<svg width="838" height="365" viewBox="0 0 838 365" fill="none" xmlns="http://www.w3.org/2000/svg">
<g clip-path="url(#clip0_12_1403)">
<path d="M395.156 234.66V150.085H362.888V133.583H446.726V150.085H414.311V234.66H395.156Z" fill="white"/>
<path d="M395.156 234.66V150.085H362.888V133.583H446.726V150.085H414.311V234.66H395.156Z" stroke="black" stroke-width="1.00496" stroke-miterlimit="10"/>
<path d="M439.504 234.66L467.205 194.73L441.419 157.158H463.226L478.55 181.174H479.434L495.053 157.158H515.533L489.601 194.289L517.007 234.66H495.494L478.255 207.843H477.372L459.985 234.66H439.504Z" fill="white"/>
<path d="M439.504 234.66L467.205 194.73L441.419 157.158H463.226L478.55 181.174H479.434L495.053 157.158H515.533L489.601 194.289L517.007 234.66H495.494L478.255 207.843H477.372L459.985 234.66H439.504Z" stroke="black" stroke-width="1.00496" stroke-miterlimit="10"/>
<path d="M521.721 234.66V133.583H600.549V149.938H540.876V174.839H594.067V191.194H540.876V218.305H601.434V234.66H521.721Z" fill="white"/>
<path d="M521.721 234.66V133.583H600.549V149.938H540.876V174.839H594.067V191.194H540.876V218.305H601.434V234.66H521.721Z" stroke="black" stroke-width="1.00496" stroke-miterlimit="10"/>
<path d="M408.122 364.497C402.523 364.497 397.168 363.883 392.061 362.655C386.953 361.428 382.433 359.512 378.506 356.909C374.576 354.308 371.481 351.067 369.222 347.185C366.962 343.305 365.834 338.712 365.834 333.409C365.834 332.818 365.857 332.23 365.908 331.639C365.956 331.051 365.982 330.608 365.982 330.314H385.284C385.284 330.512 385.258 330.879 385.21 331.418C385.159 331.959 385.135 332.428 385.135 332.818C385.135 336.06 386.068 338.837 387.935 341.143C389.8 343.453 392.503 345.221 396.039 346.447C399.574 347.676 403.749 348.289 408.563 348.289C411.804 348.289 414.677 348.093 417.182 347.699C419.687 347.308 421.847 346.743 423.666 346.006C425.481 345.269 426.981 344.385 428.159 343.353C429.338 342.322 430.196 341.168 430.737 339.89C431.276 338.616 431.549 337.239 431.549 335.765C431.549 332.917 430.664 330.559 428.896 328.692C427.127 326.827 424.745 325.256 421.75 323.977C418.752 322.702 415.363 321.546 411.582 320.515C407.8 319.483 403.921 318.429 399.943 317.346C395.965 316.267 392.083 314.965 388.303 313.442C384.52 311.92 381.13 310.078 378.135 307.917C375.138 305.757 372.757 303.032 370.989 299.739C369.221 296.45 368.337 292.496 368.337 287.878C368.337 283.163 369.342 279.037 371.358 275.501C373.369 271.966 376.22 269.043 379.903 266.734C383.586 264.428 387.883 262.707 392.796 261.577C397.707 260.45 403.059 259.884 408.857 259.884C414.258 259.884 419.341 260.45 424.106 261.577C428.87 262.707 433.069 264.476 436.704 266.881C440.336 269.29 443.187 272.334 445.25 276.017C447.313 279.7 448.345 284.098 448.345 289.203V290.973H429.338V289.5C429.338 286.652 428.477 284.245 426.759 282.28C425.039 280.316 422.634 278.794 419.539 277.712C416.445 276.633 412.835 276.092 408.71 276.092C404.29 276.092 400.507 276.51 397.365 277.343C394.221 278.18 391.814 279.407 390.145 281.028C388.473 282.648 387.64 284.637 387.64 286.995C387.64 289.452 388.523 291.515 390.292 293.184C392.06 294.855 394.44 296.279 397.438 297.456C400.433 298.635 403.822 299.717 407.604 300.698C411.385 301.681 415.266 302.738 419.244 303.865C423.223 304.996 427.102 306.297 430.885 307.77C434.665 309.243 438.054 311.085 441.052 313.295C444.047 315.506 446.43 318.231 448.198 321.473C449.965 324.714 450.85 328.596 450.85 333.113C450.85 340.678 449.008 346.767 445.324 351.382C441.641 356.001 436.581 359.34 430.148 361.402C423.713 363.464 416.371 364.496 408.12 364.496L408.122 364.497Z" fill="white"/>
<path d="M408.122 364.497C402.523 364.497 397.168 363.883 392.061 362.655C386.953 361.428 382.433 359.512 378.506 356.909C374.576 354.308 371.481 351.067 369.222 347.185C366.962 343.305 365.834 338.712 365.834 333.409C365.834 332.818 365.857 332.23 365.908 331.639C365.956 331.051 365.982 330.608 365.982 330.314H385.284C385.284 330.512 385.258 330.879 385.21 331.418C385.159 331.959 385.135 332.428 385.135 332.818C385.135 336.06 386.068 338.837 387.935 341.143C389.8 343.453 392.503 345.221 396.039 346.447C399.574 347.676 403.749 348.289 408.563 348.289C411.804 348.289 414.677 348.093 417.182 347.699C419.687 347.308 421.847 346.743 423.666 346.006C425.481 345.269 426.981 344.385 428.159 343.353C429.338 342.322 430.196 341.168 430.737 339.89C431.276 338.616 431.549 337.239 431.549 335.765C431.549 332.917 430.664 330.559 428.896 328.692C427.127 326.827 424.745 325.256 421.75 323.977C418.752 322.702 415.363 321.546 411.582 320.515C407.8 319.483 403.921 318.429 399.943 317.346C395.965 316.267 392.083 314.965 388.303 313.442C384.52 311.92 381.13 310.078 378.135 307.917C375.138 305.757 372.757 303.032 370.989 299.739C369.221 296.45 368.337 292.496 368.337 287.878C368.337 283.163 369.342 279.037 371.358 275.501C373.369 271.966 376.22 269.043 379.903 266.734C383.586 264.428 387.883 262.707 392.796 261.577C397.707 260.45 403.059 259.884 408.857 259.884C414.258 259.884 419.341 260.45 424.106 261.577C428.87 262.707 433.069 264.476 436.704 266.881C440.336 269.29 443.187 272.334 445.25 276.017C447.313 279.7 448.345 284.098 448.345 289.203V290.973H429.338V289.5C429.338 286.652 428.477 284.245 426.759 282.28C425.039 280.316 422.634 278.794 419.539 277.712C416.445 276.633 412.835 276.092 408.71 276.092C404.29 276.092 400.507 276.51 397.365 277.343C394.221 278.18 391.814 279.407 390.145 281.028C388.473 282.648 387.64 284.637 387.64 286.995C387.64 289.452 388.523 291.515 390.292 293.184C392.06 294.855 394.44 296.279 397.438 297.456C400.433 298.635 403.822 299.717 407.604 300.698C411.385 301.681 415.266 302.738 419.244 303.865C423.223 304.996 427.102 306.297 430.885 307.77C434.665 309.243 438.054 311.085 441.052 313.295C444.047 315.506 446.43 318.231 448.198 321.473C449.965 324.714 450.85 328.596 450.85 333.113C450.85 340.678 449.008 346.767 445.324 351.382C441.641 356.001 436.581 359.34 430.148 361.402C423.713 363.464 416.371 364.496 408.12 364.496L408.122 364.497Z" stroke="black" stroke-width="1.00496" stroke-miterlimit="10"/>
<path d="M483.709 364.497C476.242 364.497 470.176 362.46 465.512 358.383C460.844 354.308 458.513 347.358 458.513 337.533V285.226H476.489V334.292C476.489 337.044 476.807 339.327 477.447 341.143C478.084 342.962 479.017 344.435 480.246 345.564C481.473 346.694 482.972 347.504 484.739 347.994C486.507 348.487 488.471 348.731 490.633 348.731C493.876 348.731 496.797 347.946 499.4 346.374C502.002 344.804 504.064 342.616 505.588 339.817C507.11 337.017 507.872 333.849 507.872 330.314V285.225H525.848V362.728H510.966L509.494 352.415H508.461C506.694 354.772 504.606 356.86 502.2 358.676C499.792 360.495 497.043 361.918 493.948 362.949C490.854 363.98 487.44 364.496 483.708 364.496L483.709 364.497Z" fill="white"/>
<path d="M483.709 364.497C476.242 364.497 470.176 362.46 465.512 358.383C460.844 354.308 458.513 347.358 458.513 337.533V285.226H476.489V334.292C476.489 337.044 476.807 339.327 477.447 341.143C478.084 342.962 479.017 344.435 480.246 345.564C481.473 346.694 482.972 347.504 484.739 347.994C486.507 348.487 488.471 348.731 490.633 348.731C493.876 348.731 496.797 347.946 499.4 346.374C502.002 344.804 504.064 342.616 505.588 339.817C507.11 337.017 507.872 333.849 507.872 330.314V285.225H525.848V362.728H510.966L509.494 352.415H508.461C506.694 354.772 504.606 356.86 502.2 358.676C499.792 360.495 497.043 361.918 493.948 362.949C490.854 363.98 487.44 364.496 483.708 364.496L483.709 364.497Z" stroke="black" stroke-width="1.00496" stroke-miterlimit="10"/>
<path d="M537.045 362.729V285.226H552.075L553.549 295.54H554.579C556.249 293.183 558.165 291.097 560.326 289.279C562.485 287.462 564.967 286.037 567.766 285.005C570.566 283.974 573.635 283.458 576.976 283.458C581.492 283.458 585.521 284.393 589.058 286.257C592.594 288.125 595.342 291.219 597.309 295.541H598.34C600.01 293.183 601.973 291.098 604.234 289.279C606.492 287.463 609.096 286.037 612.044 285.006C614.99 283.975 618.181 283.459 621.621 283.459C626.237 283.459 630.315 284.294 633.851 285.964C637.388 287.636 640.187 290.384 642.249 294.215C644.313 298.046 645.344 303.155 645.344 309.54V362.73H627.368V313.223C627.368 310.571 627.073 308.337 626.483 306.519C625.894 304.703 625.083 303.277 624.053 302.246C623.021 301.215 621.743 300.455 620.221 299.962C618.698 299.472 617.054 299.226 615.285 299.226C612.435 299.226 609.882 300.012 607.623 301.583C605.363 303.155 603.572 305.317 602.245 308.066C600.919 310.817 600.257 314.01 600.257 317.643V362.73H582.28V313.223C582.28 310.571 581.987 308.337 581.397 306.519C580.808 304.703 579.996 303.277 578.966 302.246C577.935 301.215 576.656 300.455 575.136 299.962C573.612 299.472 571.967 299.226 570.2 299.226C567.349 299.226 564.77 300.012 562.463 301.583C560.154 303.155 558.338 305.317 557.012 308.066C555.686 310.817 555.023 314.01 555.023 317.643V362.73H537.047L537.045 362.729Z" fill="white"/>
<path d="M537.045 362.729V285.226H552.075L553.549 295.54H554.579C556.249 293.183 558.165 291.097 560.326 289.279C562.485 287.462 564.967 286.037 567.766 285.005C570.566 283.974 573.635 283.458 576.976 283.458C581.492 283.458 585.521 284.393 589.058 286.257C592.594 288.125 595.342 291.219 597.309 295.541H598.34C600.01 293.183 601.973 291.098 604.234 289.279C606.492 287.463 609.096 286.037 612.044 285.006C614.99 283.975 618.181 283.459 621.621 283.459C626.237 283.459 630.315 284.294 633.851 285.964C637.388 287.636 640.187 290.384 642.249 294.215C644.313 298.046 645.344 303.155 645.344 309.54V362.73H627.368V313.223C627.368 310.571 627.073 308.337 626.483 306.519C625.894 304.703 625.083 303.277 624.053 302.246C623.021 301.215 621.743 300.455 620.221 299.962C618.698 299.472 617.054 299.226 615.285 299.226C612.435 299.226 609.882 300.012 607.623 301.583C605.363 303.155 603.572 305.317 602.245 308.066C600.919 310.817 600.257 314.01 600.257 317.643V362.73H582.28V313.223C582.28 310.571 581.987 308.337 581.397 306.519C580.808 304.703 579.996 303.277 578.966 302.246C577.935 301.215 576.656 300.455 575.136 299.962C573.612 299.472 571.967 299.226 570.2 299.226C567.349 299.226 564.77 300.012 562.463 301.583C560.154 303.155 558.338 305.317 557.012 308.066C555.686 310.817 555.023 314.01 555.023 317.643V362.73H537.047L537.045 362.729Z" stroke="black" stroke-width="1.00496" stroke-miterlimit="10"/>
<path d="M655.951 362.729V285.226H670.981L672.454 295.54H673.485C675.154 293.183 677.07 291.097 679.231 289.279C681.391 287.462 683.872 286.037 686.672 285.005C689.472 283.974 692.541 283.458 695.88 283.458C700.398 283.458 704.427 284.393 707.962 286.257C711.499 288.125 714.247 291.219 716.214 295.541H717.246C718.915 293.183 720.878 291.098 723.14 289.279C725.398 287.463 728.002 286.037 730.948 285.006C733.894 283.975 737.086 283.459 740.526 283.459C745.142 283.459 749.22 284.294 752.755 285.964C756.291 287.636 759.091 290.384 761.153 294.215C763.216 298.046 764.248 303.155 764.248 309.54V362.73H746.272V313.223C746.272 310.571 745.978 308.337 745.387 306.519C744.799 304.703 743.988 303.277 742.957 302.246C741.925 301.215 740.648 300.455 739.126 299.962C737.602 299.472 735.959 299.226 734.19 299.226C731.34 299.226 728.786 300.012 726.528 301.583C724.267 303.155 722.476 305.317 721.15 308.066C719.825 310.817 719.16 314.01 719.16 317.643V362.73H701.184V313.223C701.184 310.571 700.89 308.337 700.301 306.519C699.712 304.703 698.901 303.277 697.87 302.246C696.838 301.215 695.561 300.455 694.04 299.962C692.515 299.472 690.871 299.226 689.104 299.226C686.253 299.226 683.674 300.012 681.368 301.583C679.058 303.155 677.242 305.317 675.917 308.066C674.591 310.817 673.927 314.01 673.927 317.643V362.73H655.951V362.729Z" fill="white"/>
<path d="M655.951 362.729V285.226H670.981L672.454 295.54H673.485C675.154 293.183 677.07 291.097 679.231 289.279C681.391 287.462 683.872 286.037 686.672 285.005C689.472 283.974 692.541 283.458 695.88 283.458C700.398 283.458 704.427 284.393 707.962 286.257C711.499 288.125 714.247 291.219 716.214 295.541H717.246C718.915 293.183 720.878 291.098 723.14 289.279C725.398 287.463 728.002 286.037 730.948 285.006C733.894 283.975 737.086 283.459 740.526 283.459C745.142 283.459 749.22 284.294 752.755 285.964C756.291 287.636 759.091 290.384 761.153 294.215C763.216 298.046 764.248 303.155 764.248 309.54V362.73H746.272V313.223C746.272 310.571 745.978 308.337 745.387 306.519C744.799 304.703 743.988 303.277 742.957 302.246C741.925 301.215 740.648 300.455 739.126 299.962C737.602 299.472 735.959 299.226 734.19 299.226C731.34 299.226 728.786 300.012 726.528 301.583C724.267 303.155 722.476 305.317 721.15 308.066C719.825 310.817 719.16 314.01 719.16 317.643V362.73H701.184V313.223C701.184 310.571 700.89 308.337 700.301 306.519C699.712 304.703 698.901 303.277 697.87 302.246C696.838 301.215 695.561 300.455 694.04 299.962C692.515 299.472 690.871 299.226 689.104 299.226C686.253 299.226 683.674 300.012 681.368 301.583C679.058 303.155 677.242 305.317 675.917 308.066C674.591 310.817 673.927 314.01 673.927 317.643V362.73H655.951V362.729Z" stroke="black" stroke-width="1.00496" stroke-miterlimit="10"/>
<path d="M774.856 285.226H792.832V362.729H774.856V285.226ZM774.856 256.199H792.832V273.291H774.856V256.199Z" fill="white" stroke="black" stroke-width="1.00496" stroke-miterlimit="10"/>
<path d="M824.511 364.497C819.697 364.497 815.914 363.54 813.166 361.624C810.415 359.709 808.473 357.255 807.344 354.257C806.214 351.263 805.651 348.193 805.651 345.049V299.962H796.368V285.227H806.092L809.335 263.568H823.627V285.227H837.034V299.962H823.627V343.281C823.627 345.343 824.165 346.941 825.248 348.068C826.327 349.199 827.948 349.763 830.109 349.763H837.034V362.14C836.052 362.534 834.847 362.9 833.425 363.245C832 363.587 830.501 363.883 828.929 364.13C827.358 364.373 825.885 364.498 824.51 364.498L824.511 364.497Z" fill="white"/>
<path d="M824.511 364.497C819.697 364.497 815.914 363.54 813.166 361.624C810.415 359.709 808.473 357.255 807.344 354.257C806.214 351.263 805.651 348.193 805.651 345.049V299.962H796.368V285.227H806.092L809.335 263.568H823.627V285.227H837.034V299.962H823.627V343.281C823.627 345.343 824.165 346.941 825.248 348.068C826.327 349.199 827.948 349.763 830.109 349.763H837.034V362.14C836.052 362.534 834.847 362.9 833.425 363.245C832 363.587 830.501 363.883 828.929 364.13C827.358 364.373 825.885 364.498 824.51 364.498L824.511 364.497Z" stroke="black" stroke-width="1.00496" stroke-miterlimit="10"/>
<path d="M95.8327 286.562V286.57C97.6938 287.469 99.5758 288.321 101.483 289.112C103.506 289.965 105.559 290.755 107.636 291.484H107.644C109.869 292.274 112.124 293.002 114.402 293.661C116.472 294.258 118.549 294.801 120.649 295.297H120.657C121.014 295.382 121.369 295.459 121.727 295.545H121.735C121.796 295.56 121.858 295.568 121.921 295.584H121.928H121.936C124.075 296.064 126.237 296.49 128.408 296.855H128.415C128.973 296.956 129.547 297.048 130.113 297.141H130.121C130.221 297.156 130.314 297.172 130.415 297.187C132.654 297.536 134.902 297.823 137.165 298.056C138.032 298.148 138.909 298.226 139.776 298.296H139.784C139.955 298.319 140.11 298.327 140.273 298.334H140.28C144.008 298.645 147.736 298.791 151.488 298.791C151.301 298.853 151.116 298.916 150.93 298.977H151.689L152.24 298.791H152.247H152.263C157.757 298.76 163.261 298.411 168.724 297.744L168.732 297.752L168.74 297.744H168.748C187.751 295.459 206.298 289.413 222.457 279.974C225.937 277.943 229.309 275.749 232.548 273.401C232.548 273.393 232.556 273.393 232.556 273.393C233.509 272.711 234.44 272.014 235.369 271.294L235.377 271.286H235.385C237.167 269.914 238.911 268.496 240.601 267.023C241.71 266.062 242.802 265.078 243.871 264.071L243.879 264.063C243.964 263.977 244.041 263.908 244.135 263.823C245.352 262.668 246.545 261.491 247.708 260.281C247.297 259.807 246.94 259.289 246.63 258.739C246.607 258.708 246.584 258.669 246.568 258.63C245.917 257.467 245.459 256.173 245.15 254.816C245.142 254.778 245.134 254.739 245.119 254.693C244.824 253.343 244.677 251.95 244.631 250.586V250.578C244.577 249.004 244.662 247.47 244.817 246.106C245.08 243.851 245.531 242.076 245.872 241.348C245.878 241.309 245.903 241.27 245.918 241.24C246.096 240.611 247.422 238.604 249.142 235.852C249.181 235.798 249.212 235.744 249.242 235.69C250.234 234.108 251.351 232.28 252.444 230.343C252.475 230.288 252.506 230.234 252.53 230.187C252.971 229.404 253.405 228.605 253.831 227.8C253.358 228.622 252.871 229.434 252.367 230.234C252.336 230.288 252.305 230.35 252.259 230.404C251.095 232.288 249.863 234.124 248.576 235.906C248.538 235.969 248.499 236.023 248.453 236.078V236.086C246.972 238.131 245.422 240.116 243.803 242.029C242.834 243.177 241.843 244.3 240.828 245.393C239.89 246.408 238.935 247.401 237.959 248.37L237.951 248.377C237.022 249.315 236.076 250.222 235.099 251.122C233.534 252.578 231.922 253.973 230.272 255.329L230.264 255.337H230.248C226.621 258.306 222.816 261.041 218.832 263.521C218.832 263.521 218.832 263.529 218.824 263.529C218.747 263.591 218.669 263.637 218.584 263.684C218.584 263.692 218.577 263.692 218.577 263.692C216.708 264.855 214.794 265.971 212.857 267.024C210.167 268.497 207.415 269.869 204.61 271.133H204.603C192.032 276.791 178.422 280.371 164.588 281.75H164.581C164.193 281.789 163.813 281.828 163.425 281.859H163.417C163.154 281.89 162.906 281.913 162.65 281.928H162.642C157.945 282.339 153.226 282.487 148.521 282.379H148.513C144.793 282.294 141.089 282.045 137.408 281.642H137.4C134.315 281.301 131.246 280.844 128.208 280.271H128.2C125.511 279.774 122.845 279.185 120.21 278.504H120.202C117.815 277.892 115.451 277.201 113.118 276.442H113.11C110.956 275.744 108.833 274.977 106.723 274.148C106.716 274.148 106.716 274.14 106.716 274.14C104.809 273.396 102.918 272.589 101.058 271.738C101.004 271.714 100.95 271.683 100.887 271.66C99.0889 270.831 97.3065 269.955 95.5552 269.025C95.5473 269.017 95.5473 269.017 95.5394 269.017C94.6095 268.521 93.6869 268.018 92.7802 267.499C92.0679 267.096 91.3548 266.685 90.6576 266.258H90.6496C90.6345 266.25 90.6186 266.243 90.6114 266.235C89.0761 265.313 87.5574 264.352 86.0699 263.345C86.0619 263.345 86.054 263.337 86.0468 263.329C84.6437 262.392 83.2566 261.408 81.9005 260.392C81.8846 260.376 81.8773 260.369 81.8615 260.353H81.8535C81.8383 260.345 81.8304 260.338 81.8152 260.322H81.8073C80.4974 259.338 79.2107 258.322 77.9478 257.269C77.9247 257.253 77.9009 257.237 77.8777 257.214V257.206C76.63 256.183 75.4141 255.113 74.2126 254.012C73.0494 252.951 71.9173 251.85 70.8098 250.727H70.8018C69.9262 249.844 69.0585 248.936 68.2132 248.014C66.6866 249.053 65.2908 249.82 65.2908 249.82C65.2908 249.82 65.5306 250.781 65.8651 252.355V252.362L66.6635 256.508V256.516C66.8809 257.81 67.1056 259.229 67.2913 260.709V260.717C67.2913 260.74 67.2985 260.77 67.2985 260.801C67.3455 261.189 67.3917 261.577 67.438 261.973C67.5702 263.181 67.7017 264.127 67.8722 264.862C67.8722 264.886 67.8801 264.901 67.8801 264.925C67.8953 264.964 67.9032 265.01 67.9105 265.048C68.2045 266.234 68.5932 266.815 69.2362 267.024C69.6704 267.164 70.2123 267.141 70.9181 267.024H82.5435C83.0933 267.404 83.5354 267.885 83.8996 268.45C83.9227 268.481 83.9379 268.504 83.9537 268.536C84.5975 269.551 85.0151 270.837 85.4724 272.349C85.4803 272.372 85.4876 272.395 85.4955 272.426C85.8445 273.604 86.2245 274.914 86.736 276.34C86.9448 276.936 87.1854 277.548 87.4563 278.177C87.8667 278.897 88.2467 279.525 88.587 280.137H88.5949C89.1693 281.169 89.6266 282.153 89.9279 283.494C90.1612 283.626 90.3932 283.757 90.6337 283.881C91.2609 284.23 91.8974 284.572 92.5396 284.904C93.6255 285.485 94.7258 286.036 95.8341 286.563L95.8327 286.562Z" fill="#FF6F43"/>
<path d="M66.3116 168.377C66.2264 166.92 66.1801 165.462 66.1722 164.006V163.998C66.157 162.517 66.1801 161.044 66.2343 159.573C66.2885 158.068 66.3745 156.573 66.498 155.077V155.069C66.6216 153.535 66.7841 152.015 66.9864 150.495C67.1873 148.939 67.4279 147.388 67.7154 145.846C67.9936 144.272 68.3114 142.715 68.6756 141.157C68.6835 141.142 68.6835 141.134 68.6835 141.118V141.111C69.0635 139.49 69.4898 137.879 69.9623 136.281V136.274C70.4362 134.615 70.9629 132.972 71.5359 131.345C72.1413 129.632 72.7915 127.95 73.4974 126.285C73.4974 126.277 73.5053 126.277 73.5053 126.277C74.2097 124.58 74.9784 122.913 75.7912 121.269C75.8223 121.2 75.8534 121.138 75.8916 121.076C76.7687 119.309 77.7051 117.58 78.7136 115.883C78.7447 115.821 78.783 115.76 78.8292 115.697V115.689C79.9382 113.813 81.1245 111.977 82.3802 110.194C82.4033 110.155 82.4264 110.117 82.4575 110.086V110.078H82.4647C83.4646 108.645 84.5267 107.25 85.627 105.886C86.0843 105.313 86.5489 104.747 87.0373 104.188L87.0452 104.18C87.0452 104.165 87.0604 104.157 87.0835 104.142V104.134C88.9981 101.887 91.0521 99.7322 93.2376 97.6941L94.2844 97.3451L93.2376 97.6861C93.8733 97.0901 94.5243 96.5006 95.1911 95.919C97.524 93.8816 99.9884 91.9591 102.601 90.184C102.601 90.176 102.608 90.176 102.608 90.176L102.624 90.1688C114.551 82.0149 129.4 76.6441 147.18 75.4267H147.204C149.056 75.3032 150.939 75.2179 152.861 75.1868C155.349 75.2338 157.775 75.3581 160.155 75.5517H160.163C163.448 75.8306 166.634 76.2496 169.719 76.7994H169.727C170.3 76.8998 170.859 77.0082 171.424 77.1173H171.432C173.556 77.5435 175.641 78.024 177.671 78.5817H177.686C177.996 78.659 178.315 78.753 178.624 78.8382C180.646 79.4039 182.616 80.039 184.538 80.721C184.677 80.7752 184.816 80.8294 184.956 80.877C186.87 81.5815 188.731 82.3336 190.545 83.1471C190.599 83.1709 190.653 83.194 190.707 83.2171C192.49 84.0234 194.218 84.8759 195.9 85.7826L195.908 85.7906C197.558 86.6814 199.163 87.6192 200.721 88.6032L200.727 88.6111C202.224 89.5489 203.666 90.5409 205.076 91.5718L205.045 91.5877L205.091 91.5798C206.455 92.5717 207.78 93.6027 209.06 94.672H209.067C209.563 95.0831 210.051 95.5014 210.532 95.9197C211.268 96.5634 211.989 97.2223 212.694 97.8805V97.8884C213.709 98.8414 214.694 99.8175 215.655 100.826L215.802 101.267L216.011 101.198C217.057 102.306 218.065 103.446 219.041 104.608C220.002 105.747 220.924 106.91 221.824 108.096V108.103C222.699 109.266 223.552 110.46 224.357 111.668C224.365 111.668 224.365 111.676 224.365 111.676C224.404 111.738 224.443 111.792 224.481 111.854C225.241 112.992 225.977 114.148 226.674 115.318V115.326C226.721 115.388 226.76 115.45 226.791 115.52C227.489 116.674 228.147 117.845 228.774 119.031V119.039C228.821 119.116 228.868 119.194 228.899 119.271C229.526 120.44 230.123 121.619 230.681 122.82C230.727 122.906 230.766 122.983 230.798 123.069C231.355 124.255 231.891 125.456 232.385 126.665C232.928 127.951 233.432 129.254 233.912 130.571L233.346 130.765L233.912 130.579C234.393 131.889 234.835 133.214 235.253 134.547C235.664 135.88 236.051 137.221 236.408 138.578C236.632 139.431 236.85 140.298 237.052 141.158C237.168 141.662 237.276 142.158 237.384 142.662C237.687 144.042 237.951 145.421 238.183 146.816C238.423 148.211 238.632 149.613 238.811 151.016C238.981 152.435 239.129 153.86 239.245 155.287C239.361 156.728 239.446 158.178 239.492 159.62C239.547 161.084 239.57 162.549 239.555 164.006C239.547 165.494 239.5 166.982 239.407 168.463V168.471C239.337 169.981 239.221 171.493 239.066 172.996C238.911 174.539 238.717 176.073 238.485 177.6C238.253 179.173 237.981 180.731 237.663 182.281C237.345 183.885 236.988 185.474 236.577 187.056V187.064C236.159 188.698 235.702 190.31 235.19 191.923V191.93C234.671 193.605 234.097 195.264 233.477 196.906H233.471C232.827 198.634 232.121 200.34 231.355 202.022C230.579 203.758 229.742 205.471 228.843 207.153C228.82 207.199 228.797 207.245 228.766 207.291C227.82 209.082 226.796 210.834 225.72 212.547C225.697 212.593 225.666 212.639 225.635 212.678C225.62 212.709 225.604 212.724 225.588 212.747V212.755C224.371 214.685 223.069 216.569 221.69 218.39C221.667 218.421 221.643 218.452 221.62 218.483C221.124 219.142 220.621 219.785 220.101 220.42C218.953 221.838 217.752 223.226 216.505 224.582L216.497 224.59C216.497 224.59 216.489 224.598 216.482 224.605C215.528 225.636 214.536 226.652 213.52 227.636H213.514C212.545 228.581 211.552 229.495 210.537 230.387C210.165 230.705 209.802 231.022 209.43 231.332C209.43 231.34 209.422 231.34 209.422 231.34C209.328 231.417 209.244 231.495 209.151 231.565C208.833 231.836 208.507 232.1 208.182 232.363C204.812 235.091 201.16 237.58 197.239 239.78V239.788C196.967 239.997 196.704 240.106 196.432 240.315L196.424 240.323H196.417C196.409 240.323 196.409 240.323 196.401 240.331H196.394C196.386 240.331 196.386 240.337 196.378 240.337H196.371C196.363 240.337 196.363 240.337 196.355 240.345H196.347C196.341 240.345 196.341 240.353 196.332 240.353H196.324C196.317 240.353 196.317 240.36 196.309 240.36H196.301C196.293 240.36 196.293 240.368 196.286 240.368H196.278C196.27 240.368 196.27 240.376 196.262 240.376H196.255C196.247 240.376 196.247 240.384 196.239 240.384H196.232C196.224 240.384 196.224 240.392 196.216 240.392H196.21C196.202 240.392 196.202 240.399 196.194 240.399H196.186C196.179 240.399 196.179 240.407 196.171 240.407H196.163C196.156 240.407 196.156 240.415 196.148 240.415H196.14C196.132 240.415 196.132 240.423 196.124 240.423H196.117C196.109 240.423 196.109 240.431 196.101 240.431H196.093C196.085 240.431 196.085 240.439 196.078 240.439H196.07C196.062 240.439 196.062 240.445 196.054 240.445H196.047C196.039 240.445 196.039 240.453 196.031 240.453C187.777 244.917 178.338 248.164 167.734 249.846H167.719C167.184 249.931 166.635 250.009 166.092 250.086H166.084C161.86 250.683 157.45 251.031 152.862 251.117C152.134 251.102 151.413 251.086 150.692 251.055C150.429 251.047 150.181 251.04 149.916 251.024H149.901C149.623 251.016 149.351 251.001 149.08 250.986H149.072C145.771 250.815 142.585 250.505 139.485 250.063H139.477C139.245 250.032 139.013 250.001 138.787 249.971H138.779C138.284 249.894 137.788 249.808 137.3 249.722H137.292C135.137 249.373 133.029 248.947 130.975 248.467H130.968C130.797 248.428 130.634 248.389 130.472 248.343H130.465C130.247 248.296 130.038 248.242 129.822 248.181H129.814C127.799 247.684 125.83 247.126 123.916 246.506H123.908C123.846 246.491 123.8 246.468 123.745 246.444H123.737C123.582 246.397 123.419 246.343 123.264 246.288C123.459 246.227 123.652 246.157 123.845 246.095C123.636 246.157 123.427 246.219 123.218 246.274C121.233 245.622 119.304 244.902 117.429 244.127V244.12C117.313 244.081 117.196 244.026 117.08 243.98C117.072 243.98 117.064 243.972 117.057 243.972H117.049C115.259 243.22 113.522 242.415 111.825 241.57V241.562C110.104 240.702 108.43 239.78 106.811 238.811H106.803C105.246 237.881 103.742 236.912 102.277 235.904V235.896C100.867 234.92 99.4949 233.904 98.1619 232.851C97.3636 232.223 96.5804 231.58 95.8139 230.921C95.3334 230.51 94.8682 230.1 94.4036 229.681H94.3957C94.3726 229.658 94.3494 229.635 94.3335 229.627C93.6667 229.023 93.0165 228.417 92.38 227.798C91.8995 227.341 91.427 226.875 90.9697 226.403H90.9618C90.667 226.101 90.3809 225.806 90.0861 225.496C89.3189 224.69 88.5667 223.869 87.8233 223.031C86.8314 221.899 85.8698 220.745 84.9479 219.568C84.0404 218.412 83.1648 217.226 82.3282 216.025C81.4908 214.84 80.6846 213.63 79.926 212.406C79.158 211.197 78.429 209.965 77.7397 208.718C77.0418 207.485 76.3837 206.229 75.7631 204.958C75.1359 203.703 74.5385 202.431 73.9807 201.137C73.415 199.859 72.8883 198.564 72.3848 197.254V197.246C71.8812 195.944 71.4159 194.634 70.9745 193.309C70.5403 191.976 70.1292 190.635 69.7419 189.295C69.3699 187.946 69.0209 186.59 68.7037 185.233C68.3851 183.862 68.0911 182.49 67.8353 181.11C67.5716 179.715 67.3397 178.32 67.1461 176.917C66.9452 175.507 66.774 174.097 66.6346 172.678C66.4951 171.244 66.386 169.81 66.3167 168.376L66.3116 168.377ZM69.2882 224.745C70.0555 225.775 70.83 226.799 71.6363 227.799C71.7519 227.953 71.8761 228.109 72.0004 228.263H72.0083C72.9461 229.433 73.9222 230.582 74.9149 231.712C75.922 232.86 76.9602 233.983 78.0229 235.092L78.0295 235.099C79.1153 236.224 80.2229 237.324 81.355 238.41C82.5168 239.509 83.7031 240.595 84.9197 241.641C86.1602 242.718 87.431 243.773 88.7257 244.788C88.7257 244.788 88.7257 244.795 88.7336 244.795C90.0666 245.85 91.4227 246.865 92.8098 247.857H92.8178C93.8018 248.555 94.8017 249.244 95.8096 249.911C96.2279 250.182 96.6462 250.453 97.0652 250.725C97.1115 250.755 97.1577 250.787 97.2054 250.81V250.818C97.6548 251.104 98.1106 251.391 98.5766 251.678C99.6307 252.328 100.701 252.957 101.785 253.569C101.831 253.6 101.878 253.631 101.933 253.662H101.94C101.979 253.685 102.018 253.708 102.057 253.731C103.63 254.615 105.226 255.459 106.854 256.274C106.924 256.305 106.994 256.335 107.064 256.374C108.824 257.243 110.621 258.072 112.435 258.839H112.442C112.519 258.87 112.582 258.901 112.659 258.94C114.512 259.715 116.386 260.451 118.302 261.125H118.31C118.387 261.156 118.471 261.187 118.557 261.21C118.65 261.241 118.742 261.28 118.836 261.303H118.843C120.749 261.978 122.695 262.59 124.656 263.147H124.664C125.013 263.248 125.362 263.342 125.717 263.441H125.725C127.716 263.984 129.724 264.465 131.763 264.883H131.771C132.375 265.008 132.987 265.131 133.599 265.248H133.607C135.676 265.635 137.769 265.96 139.885 266.224H139.9C140.908 266.355 141.924 266.464 142.946 266.565H142.962C145.186 266.775 147.433 266.914 149.697 266.976H149.712C150.75 267.007 151.805 267.022 152.858 267.022C153.463 267.061 154.068 267.084 154.672 267.099H154.68C156.711 267.169 158.749 267.138 160.811 267.022C165.119 266.775 169.475 266.138 173.861 265.162L173.9 265.154L173.924 265.147C179.907 263.798 185.906 261.798 191.78 259.241L191.788 259.233C197.043 256.947 202.197 254.219 207.149 251.119C208.336 250.375 209.498 249.615 210.661 248.831C210.661 248.824 210.668 248.824 210.668 248.824L211.374 248.344L211.389 248.336C214.838 245.98 218.155 243.43 221.332 240.733L221.527 240.571C224.076 238.392 226.526 236.122 228.851 233.758C228.866 233.75 228.881 233.733 228.881 233.727L228.897 233.719C230.787 231.796 232.601 229.828 234.322 227.798C234.437 227.667 234.546 227.535 234.655 227.403C234.686 227.372 234.717 227.333 234.74 227.301C236.353 225.395 237.879 223.442 239.313 221.45V221.442C239.36 221.38 239.406 221.326 239.453 221.263C239.453 221.263 239.453 221.257 239.46 221.257C239.917 220.605 240.375 219.954 240.824 219.295C241.615 218.132 242.374 216.962 243.103 215.784C244.204 213.994 245.234 212.18 246.188 210.352C247.078 208.623 247.908 206.88 248.66 205.12C248.668 205.089 248.683 205.066 248.699 205.035C249.397 203.391 250.032 201.733 250.597 200.067C251.147 198.447 251.637 196.819 252.054 195.177C252.449 193.603 252.79 192.015 253.061 190.426C253.324 188.899 253.519 187.357 253.65 185.822C253.79 184.326 253.852 182.838 253.859 181.343C253.859 179.885 253.805 178.428 253.689 176.979C253.573 175.569 253.394 174.159 253.162 172.747V172.74C252.93 171.359 252.635 169.995 252.286 168.625C251.937 167.284 251.534 165.943 251.07 164.61C250.613 163.308 250.093 162.006 249.52 160.711C248.962 159.44 248.333 158.177 247.652 156.921C246.977 155.681 246.249 154.448 245.459 153.224C244.683 152.023 243.846 150.83 242.947 149.644C242.676 149.272 242.39 148.907 242.102 148.543C241.746 147.838 241.544 146.822 241.46 145.73C241.336 144.211 241.46 142.521 241.755 141.22L241.932 141.157H241.761C241.963 140.282 242.242 139.584 242.575 139.251C242.877 138.95 245.118 138.918 248.302 139.05H248.31C249.984 139.112 251.922 139.22 253.976 139.352C253.837 138.669 253.682 137.995 253.527 137.321C253.216 135.949 252.875 134.593 252.496 133.252C252.139 131.896 251.745 130.547 251.319 129.229C250.9 127.881 250.45 126.563 249.978 125.254C249.497 123.937 248.986 122.634 248.45 121.355V121.347C247.939 120.085 247.396 118.836 246.815 117.612C246.807 117.574 246.792 117.535 246.769 117.496H246.761C246.188 116.241 245.582 115.008 244.947 113.8C244.939 113.768 244.924 113.737 244.901 113.707C244.264 112.467 243.599 111.257 242.908 110.064C242.893 110.033 242.877 110.001 242.854 109.97C242.204 108.832 241.529 107.716 240.823 106.614V106.312V106.227V106.219L240.614 106.289C239.831 105.064 239.027 103.863 238.189 102.693C238.189 102.685 238.181 102.685 238.181 102.685C237.329 101.476 236.453 100.298 235.546 99.1434C234.624 97.9571 233.679 96.8026 232.695 95.6784H232.687C231.703 94.5159 230.671 93.3845 229.618 92.2835C228.54 91.1449 227.432 90.0366 226.301 88.9673C225.139 87.8583 223.945 86.7811 222.736 85.7357H222.728C221.465 84.6498 220.186 83.6037 218.876 82.6045V82.5965H218.868C217.52 81.5432 216.14 80.5281 214.73 79.5585C213.629 78.7913 212.505 78.0399 211.366 77.3261C211.002 77.0862 210.63 76.8536 210.25 76.6282C209.413 76.1015 208.568 75.5979 207.716 75.1088C206.956 74.6674 206.181 74.2332 205.414 73.8149C203.686 72.8771 201.934 71.9848 200.152 71.1489H200.144C198.261 70.2494 196.354 69.4128 194.417 68.6297H194.409C192.333 67.7923 190.225 67.0171 188.093 66.3127C185.768 65.5375 183.419 64.8403 181.048 64.2276H181.04C178.808 63.6381 176.553 63.1266 174.282 62.6844C173.879 62.5999 173.476 62.5218 173.073 62.4525H173.065C170.67 62.0031 168.26 61.6397 165.835 61.3522H165.827C165.137 61.2676 164.44 61.1968 163.75 61.1282H163.742C160.936 60.8407 158.115 60.6629 155.294 60.5936C154.248 60.5625 153.201 60.5466 152.163 60.5466H152.156C151.931 60.5466 151.705 60.5466 151.481 60.5546H151.473C145.871 60.5856 140.274 61.035 134.748 61.8955C122.991 63.724 111.559 67.4368 101.081 73.0324L101.011 73.0555L101.003 73.0635C99.7247 73.7383 98.4625 74.4506 97.2133 75.1868C93.8733 77.1628 90.6489 79.3497 87.5488 81.7361C87.4094 81.8365 87.2779 81.9384 87.1377 82.054L87.1305 82.0619L87.1146 82.0698C87.0915 82.085 87.0763 82.1009 87.0532 82.1161L87.0452 82.124C84.2774 84.2785 81.6353 86.5882 79.1009 89.0757C79.0698 89.0995 79.0395 89.1313 79.0156 89.1537V89.1602C76.9616 91.168 74.9857 93.2921 73.1029 95.5238L73.0949 95.5317C73.0718 95.5548 73.0487 95.5859 73.0256 95.617C71.452 97.4846 69.9327 99.4381 68.4841 101.46V101.468H68.4762V101.475C67.2357 103.211 66.0429 105.001 64.9035 106.854C64.8493 106.939 64.7952 107.025 64.7403 107.117H64.7323V107.125C63.6623 108.885 62.6321 110.69 61.6481 112.55C60.7479 114.263 59.8888 116.015 59.0746 117.813V117.82C58.3146 119.487 57.6015 121.192 56.9274 122.936C56.2837 124.572 55.6797 126.237 55.1219 127.943V127.95C55.0367 128.175 54.9673 128.407 54.89 128.639C56.5098 129.43 57.9902 130.252 59.1526 131.019L59.1606 131.027C60.7255 132.073 61.7181 133.043 61.7181 133.77C61.7181 134.01 61.6871 134.29 61.6329 134.615V134.623C61.4385 135.8 60.9126 137.514 60.2306 139.49L60.2226 139.498C60.0442 140.033 59.8426 140.591 59.6417 141.157C59.2466 142.242 58.8275 143.365 58.4013 144.513C57.7741 146.195 57.1304 147.908 56.5416 149.543C55.968 151.148 55.4405 152.682 55.0461 154.023C54.9998 154.177 54.9457 154.34 54.8907 154.496C53.9761 156.905 51.6201 159.068 49.0235 160.82V160.859L48.9925 160.867V163.316V165.277L49.0084 165.269C49.0394 166.726 49.0936 168.183 49.1861 169.624C49.2713 171.066 49.3884 172.501 49.535 173.926C49.6831 175.344 49.8609 176.755 50.0617 178.158C50.264 179.561 50.4959 180.956 50.7596 182.343C51.0161 183.73 51.3022 185.111 51.628 186.475C51.938 187.839 52.2783 189.202 52.6504 190.543C53.0152 191.9 53.4183 193.233 53.8367 194.558C54.2629 195.891 54.7123 197.216 55.1927 198.526C55.666 199.843 56.1768 201.145 56.7049 202.44C57.2395 203.734 57.7973 205.021 58.3868 206.292C58.9756 207.579 59.5876 208.842 60.2313 210.097C60.875 211.369 61.5411 212.617 62.239 213.849C62.9355 215.096 63.6645 216.329 64.4166 217.538C64.5712 217.801 64.7424 218.064 64.905 218.328C65.509 219.289 66.1288 220.235 66.7726 221.173C67.5789 222.381 68.4234 223.575 69.2918 224.746L69.2882 224.745Z" fill="#FF6F43"/>
<path d="M102.32 160.875V160.867C102.382 159.356 102.498 157.844 102.684 156.341C102.87 154.775 103.126 153.218 103.444 151.675C103.776 150.055 104.187 148.443 104.668 146.863V146.855C105.179 145.157 105.777 143.483 106.458 141.855C106.559 141.623 106.652 141.39 106.753 141.157C107.428 139.599 108.179 138.08 109.008 136.601L109.016 136.593C110.094 134.648 111.31 132.772 112.65 130.981L112.658 130.973C114.355 128.726 116.254 126.618 118.362 124.681L118.37 124.673C126.664 117.054 138.157 112.086 152.859 111.823C154.154 111.846 155.417 111.908 156.657 112.009H156.665C159.866 112.241 162.896 112.715 165.764 113.404H165.779C168.19 113.977 170.469 114.691 172.646 115.544H172.654C174.584 116.303 176.428 117.163 178.18 118.124H178.188C179.807 119.001 181.342 119.969 182.806 121.008H182.814C184.186 121.984 185.495 123.023 186.728 124.116V124.124H186.736C186.813 124.185 186.883 124.247 186.953 124.325C188.054 125.301 189.101 126.34 190.092 127.417H190.1V127.425C190.146 127.471 190.192 127.518 190.231 127.573C191.208 128.634 192.122 129.735 192.982 130.874C192.982 130.874 192.99 130.874 192.99 130.882C193.021 130.928 193.06 130.974 193.091 131.022C193.935 132.137 194.718 133.285 195.455 134.47L195.307 134.524C195.354 134.509 195.408 134.493 195.462 134.477C196.222 135.687 196.919 136.927 197.57 138.19C198.066 139.166 198.531 140.158 198.973 141.158C199.089 141.444 199.213 141.724 199.33 142.011C199.864 143.305 200.345 144.615 200.771 145.948V145.955C201.205 147.281 201.584 148.629 201.902 149.987V149.993C202.236 151.357 202.508 152.738 202.732 154.125C202.957 155.528 203.135 156.946 203.251 158.365V158.373C203.375 159.821 203.437 161.271 203.445 162.72C203.46 164.208 203.414 165.697 203.305 167.177C203.204 168.703 203.034 170.231 202.8 171.749V171.757C202.56 173.345 202.25 174.919 201.863 176.477C201.467 178.127 200.995 179.755 200.437 181.36C199.856 183.065 199.181 184.739 198.414 186.375C198.406 186.398 198.398 186.428 198.383 186.452H198.375V186.459C197.522 188.303 196.546 190.102 195.461 191.83V191.838C194.198 193.86 192.779 195.798 191.213 197.627C191.206 197.635 191.198 197.65 191.19 197.658C189.059 200.146 186.648 202.432 183.951 204.463L183.943 204.471C183.834 204.556 183.727 204.642 183.61 204.719C176.139 210.261 166.559 213.857 154.872 214.415H154.864C154.492 214.438 154.128 214.453 153.756 214.461H153.733L152.857 214.484C149.478 214.423 146.261 214.112 143.223 213.578H143.215C143.184 213.578 143.161 213.57 143.13 213.562C143.122 213.562 143.122 213.555 143.122 213.555C140.464 213.089 137.945 212.453 135.551 211.656H135.543C133.45 210.958 131.459 210.145 129.559 209.222H129.551C129.505 209.199 129.459 209.176 129.413 209.145H129.405C127.731 208.331 126.134 207.432 124.615 206.448H124.607C123.142 205.51 121.755 204.494 120.438 203.417C119.182 202.402 117.996 201.317 116.873 200.186C116.865 200.186 116.865 200.178 116.865 200.178C115.779 199.092 114.764 197.961 113.804 196.783C112.866 195.643 111.99 194.458 111.176 193.241C110.37 192.047 109.625 190.823 108.929 189.576V189.568C108.246 188.335 107.611 187.071 107.037 185.786C106.464 184.515 105.944 183.213 105.472 181.895C104.999 180.578 104.588 179.244 104.216 177.896V177.888C103.851 176.54 103.534 175.168 103.271 173.795C103.008 172.401 102.798 171.006 102.635 169.596C102.472 168.161 102.364 166.728 102.309 165.286C102.255 163.814 102.255 162.348 102.317 160.876L102.32 160.875ZM86.6493 166.06C86.7035 167.493 86.8039 168.934 86.9426 170.369C87.0821 171.788 87.2612 173.205 87.478 174.609C87.694 176.004 87.9505 177.383 88.2532 178.762C88.54 180.126 88.8724 181.49 89.2524 182.839V182.847C89.6244 184.195 90.0355 185.528 90.4929 186.846V186.854C90.9422 188.171 91.4306 189.481 91.9645 190.768V190.776C92.492 192.07 93.0656 193.348 93.6855 194.612C94.2981 195.891 94.957 197.146 95.6622 198.379C96.368 199.627 97.1194 200.852 97.9098 202.045C98.7081 203.261 99.5527 204.447 100.444 205.609V205.617H100.452C101.351 206.804 102.305 207.965 103.304 209.09C103.381 209.183 103.467 209.276 103.552 209.369C104.49 210.423 105.474 211.446 106.498 212.438H106.505C107.296 213.206 108.102 213.958 108.938 214.67C109.318 215.012 109.706 215.337 110.094 215.662H110.102C111.396 216.731 112.744 217.755 114.155 218.731H114.163C115.634 219.754 117.17 220.724 118.765 221.614V221.622C118.781 221.638 118.797 221.646 118.82 221.653C120.447 222.583 122.145 223.444 123.896 224.234C123.943 224.257 123.99 224.273 124.028 224.288H124.036C125.818 225.095 127.656 225.824 129.561 226.474C129.756 226.544 129.957 226.605 130.151 226.676H130.159C131.375 227.079 132.624 227.459 133.894 227.8C135.064 228.118 136.25 228.404 137.467 228.668H137.483C140.404 229.297 143.442 229.76 146.613 230.055H146.628C148.651 230.234 150.728 230.35 152.859 230.389C155.433 230.343 157.927 230.187 160.346 229.924H160.361C160.819 229.877 161.284 229.823 161.733 229.76C163.307 229.567 164.841 229.334 166.344 229.048C166.367 229.04 166.383 229.04 166.398 229.04C167.801 228.777 169.166 228.475 170.506 228.133C170.56 228.118 170.615 228.102 170.662 228.102C170.8 228.072 170.933 228.041 171.065 228.018C177.357 226.397 182.992 223.98 188.076 220.972C188.076 220.972 188.076 220.965 188.083 220.965C188.348 220.818 188.611 220.654 188.874 220.492V220.485C191.795 218.694 194.509 216.679 197.005 214.485C197.647 213.927 198.268 213.354 198.88 212.772V212.765H198.888L198.896 212.757C200.802 210.936 202.561 209.022 204.189 206.998C204.344 206.812 204.491 206.634 204.631 206.448H204.639C206.095 204.604 207.444 202.689 208.677 200.705V200.697C208.707 200.659 208.731 200.62 208.754 200.582C209.823 198.861 210.808 197.094 211.706 195.288L211.714 195.28C211.745 195.218 211.783 195.149 211.807 195.086C212.621 193.459 213.365 191.793 214.04 190.103V190.095C214.04 190.08 214.048 190.072 214.055 190.057C214.698 188.429 215.287 186.777 215.807 185.103C216.31 183.508 216.752 181.887 217.14 180.252V180.244C217.512 178.679 217.838 177.105 218.101 175.516C218.356 173.989 218.565 172.455 218.728 170.905V170.897L219.062 166.379V166.371C219.124 164.899 219.147 163.427 219.116 161.946C219.1 160.497 219.031 159.047 218.921 157.598C218.821 156.172 218.673 154.746 218.48 153.335V153.328C218.294 151.925 218.069 150.529 217.805 149.142C217.542 147.763 217.232 146.391 216.883 145.035C216.565 143.733 216.193 142.438 215.79 141.16C215.774 141.105 215.759 141.059 215.735 141.004V140.996C215.325 139.663 214.86 138.346 214.364 137.044C213.861 135.734 213.317 134.44 212.736 133.168C212.186 131.968 211.604 130.782 210.984 129.619C210.946 129.534 210.9 129.456 210.853 129.379C210.232 128.209 209.574 127.062 208.885 125.938C208.831 125.845 208.776 125.76 208.714 125.675C208.001 124.52 207.249 123.396 206.459 122.287C206.405 122.21 206.35 122.14 206.296 122.063C205.498 120.948 204.653 119.862 203.769 118.8C203.707 118.715 203.637 118.63 203.568 118.552C203.119 118.01 202.653 117.475 202.181 116.956C201.638 116.343 201.08 115.747 200.499 115.158V115.151C199.406 114.018 198.259 112.926 197.065 111.88L197.22 111.826H197.004C195.778 110.756 194.508 109.725 193.19 108.749C191.787 107.703 190.329 106.711 188.811 105.788C187.214 104.796 185.547 103.874 183.82 103.029H183.812C182.061 102.153 180.247 101.356 178.372 100.643C178.263 100.596 178.163 100.557 178.054 100.526C178.054 100.526 178.054 100.518 178.046 100.518H178.039C175.861 99.6889 173.598 98.9678 171.241 98.3638H171.225C168.567 97.658 165.801 97.1082 162.917 96.705H162.901C159.693 96.2477 156.345 95.9847 152.857 95.9219H151.927H150.895C150.826 95.9464 150.757 95.9688 150.687 95.992C135.062 96.6501 122.298 101.449 112.385 108.85C112.261 108.942 112.145 109.028 112.028 109.12L112.02 109.128C110.888 109.981 109.804 110.872 108.75 111.794C107.191 113.158 105.727 114.576 104.348 116.072L104.34 116.08H104.333L104.325 116.088C103.357 117.134 102.419 118.204 101.535 119.312C100.777 120.234 100.063 121.172 99.3728 122.133V122.14C98.0709 123.946 96.8694 125.814 95.7691 127.737V127.744C95.7308 127.806 95.6918 127.868 95.6607 127.938C94.7078 129.605 93.8321 131.31 93.041 133.054V133.061H93.0338C92.2738 134.727 91.5766 136.432 90.9487 138.161H90.9408V138.169C90.5839 139.161 90.2429 140.153 89.9337 141.16C89.7234 141.803 89.5378 142.447 89.3521 143.098C88.9027 144.686 88.5075 146.291 88.1737 147.903V147.91C87.8407 149.46 87.5697 151.019 87.3443 152.592C87.1283 154.111 86.9571 155.638 86.8335 157.165V157.173C86.7085 158.668 86.6392 160.164 86.6081 161.66C86.5771 163.124 86.5929 164.59 86.6471 166.054V166.062L86.6493 166.06Z" fill="#FF6F43"/>
<path d="M138.413 162.169C138.506 160.541 138.856 158.93 139.445 157.418C140.297 155.194 141.677 153.186 143.575 151.636H143.583L143.59 151.629C145.829 149.8 148.791 148.613 152.481 148.475C152.488 148.467 152.496 148.467 152.511 148.475C152.744 148.475 152.922 148.467 153.045 148.467H153.069C153.092 148.467 153.116 148.467 153.131 148.475H153.147C156.021 148.559 158.463 149.288 160.462 150.458C161.919 151.31 163.144 152.396 164.143 153.652V153.659C165.042 154.783 165.748 156.031 166.266 157.365C166.778 158.667 167.111 160.054 167.252 161.458C167.406 162.937 167.36 164.441 167.111 165.914C166.809 167.665 166.212 169.37 165.329 170.913L165.321 170.921C163.065 174.85 158.912 177.741 152.858 177.85C150.821 177.811 148.999 177.463 147.387 176.858H147.379V176.85H147.372C145.566 176.177 144.04 175.185 142.776 173.967V173.96C141.69 172.929 140.815 171.728 140.133 170.426C139.482 169.185 139.009 167.852 138.73 166.481V166.473H138.723C138.428 165.063 138.327 163.613 138.412 162.171L138.413 162.169ZM122.703 162.952C122.696 164.401 122.78 165.842 122.952 167.277V167.285C123.129 168.679 123.386 170.067 123.735 171.431V171.439C124.076 172.795 124.51 174.128 125.029 175.422C125.548 176.732 126.161 178.003 126.858 179.228C127.571 180.483 128.377 181.693 129.284 182.832V182.839H129.292C130.23 184.041 131.284 185.172 132.43 186.211C133.671 187.335 135.027 188.365 136.507 189.272C136.507 189.272 136.515 189.272 136.515 189.28C138.181 190.304 139.995 191.179 141.971 191.877H141.987C144.452 192.752 147.157 193.341 150.094 193.605L149.651 193.753H152.86C161.819 193.59 168.779 190.505 173.747 185.785V185.777C175.63 183.994 177.227 181.972 178.537 179.787L178.545 179.779C179.536 178.12 180.366 176.368 181.025 174.547L181.033 174.539C181.606 172.966 182.055 171.339 182.381 169.688C182.684 168.168 182.877 166.634 182.955 165.084V165.076C183.048 163.612 183.04 162.139 182.924 160.682C182.824 159.264 182.63 157.854 182.351 156.458C182.072 155.086 181.708 153.73 181.257 152.412V152.405C180.808 151.079 180.265 149.777 179.638 148.53C179.003 147.25 178.274 146.018 177.453 144.847V144.84C176.6 143.616 175.654 142.453 174.608 141.368H174.601C174.275 141.027 173.941 140.702 173.593 140.383C172.763 139.593 171.872 138.864 170.927 138.182H170.919V138.174C170.741 138.043 170.555 137.919 170.369 137.787C169.082 136.904 167.695 136.105 166.2 135.422H166.192C166.153 135.407 166.114 135.391 166.076 135.368H166.068C165.929 135.307 165.796 135.245 165.65 135.182C163.689 134.329 161.558 133.663 159.255 133.214H159.24C159.155 133.191 159.077 133.175 158.991 133.16H158.984C157.055 132.803 155.016 132.594 152.861 132.556C149.954 132.609 147.257 132.966 144.777 133.594H144.77L144.738 133.601L144.715 133.609H144.7C143.236 133.981 141.849 134.446 140.531 134.988L140.508 134.996V135.004H140.5L140.43 135.027C137.106 136.422 134.245 138.336 131.858 140.639C131.851 140.639 131.851 140.647 131.851 140.647C131.068 141.391 130.347 142.173 129.665 142.995V143.002C128.231 144.731 127.03 146.614 126.045 148.606V148.613H126.038C126.022 148.644 126.014 148.668 125.999 148.699C125.209 150.295 124.566 151.961 124.061 153.674L123.464 153.875L124.061 153.682C123.605 155.233 123.262 156.821 123.038 158.425L122.263 158.682V158.689L123.038 158.434C122.821 159.93 122.712 161.44 122.704 162.952H122.703Z" fill="#FF6F43"/>
<path d="M253.831 277.998C253.623 276.96 253.328 275.758 252.933 274.309C252.715 273.526 252.475 272.673 252.204 271.735C250.639 273.248 249.026 274.72 247.375 276.145L247.367 276.153C244.244 278.858 240.973 281.408 237.571 283.795V283.803C232.471 287.399 227.07 290.653 221.442 293.553L221.412 293.56C221.35 293.599 221.28 293.63 221.21 293.668C217.435 295.598 213.553 297.374 209.591 298.978C200.136 302.806 190.208 305.705 180.078 307.596C179.28 307.751 178.489 307.891 177.691 308.03C171.181 309.138 164.601 309.844 158.005 310.122C153.564 310.316 149.116 310.316 144.69 310.115C141.102 309.96 137.529 309.673 133.98 309.247C130.91 308.883 127.864 308.426 124.834 307.868H124.826C124.818 307.86 124.811 307.86 124.803 307.86C122.114 307.364 119.44 306.783 116.79 306.124C116.774 306.124 116.766 306.124 116.758 306.116C114.379 305.526 112.015 304.876 109.683 304.147C109.628 304.139 109.582 304.124 109.528 304.101H109.52C107.358 303.434 105.21 302.706 103.088 301.915H103.08C103.034 301.907 102.995 301.884 102.948 301.868C100.91 301.118 98.8953 300.311 96.9027 299.45C96.5386 299.296 96.1824 299.141 95.8182 298.978C94.7172 298.489 93.6248 297.986 92.5404 297.466C92.8034 297.978 93.0822 298.481 93.377 298.978C93.6414 299.442 93.9196 299.892 94.2064 300.342C95.0206 301.636 95.8811 302.853 96.6946 303.938C96.7257 303.969 96.7416 304 96.7647 304.03C97.8412 305.442 98.8339 306.619 99.5462 307.402C99.5852 307.449 99.6242 307.487 99.6625 307.527C100.104 308.014 100.423 308.332 100.561 308.434C100.818 308.626 101.306 309.642 101.894 311.037C101.91 311.076 101.925 311.115 101.941 311.154C102.399 312.27 102.917 313.611 103.421 314.952C103.437 314.998 103.46 315.044 103.475 315.091C103.979 316.439 104.467 317.772 104.862 318.881C104.893 318.966 104.916 319.044 104.947 319.121C107.133 319.833 109.334 320.485 111.559 321.081C114.108 321.779 116.674 322.399 119.262 322.942C121.471 323.415 123.688 323.833 125.919 324.198C126.563 324.314 127.214 324.414 127.858 324.516C130.09 324.849 132.329 325.143 134.577 325.376C135.607 325.493 136.639 325.593 137.677 325.678H137.685C139.933 325.881 142.195 326.027 144.458 326.128H144.474C146.062 326.205 147.644 326.253 149.233 326.267H149.24C154.1 326.344 158.975 326.198 163.842 325.841H163.857C171.057 325.322 178.235 324.329 185.303 322.895C186.016 322.757 186.721 322.609 187.427 322.454L187.465 322.446C199.246 319.889 210.7 316.153 221.466 311.193L221.675 311.123L222.496 310.852H222.264C229.038 307.713 235.533 304.133 241.656 300.103C241.664 300.103 241.664 300.095 241.671 300.095H241.679C241.687 300.095 241.687 300.087 241.694 300.087H241.702C242.26 299.723 242.818 299.358 243.369 298.979C246.492 296.872 249.522 294.639 252.436 292.299C252.452 292.236 252.459 292.174 252.475 292.112V292.104C252.483 292.065 252.491 292.019 252.498 291.981C252.839 290.151 253.149 288.655 253.405 287.391C253.413 287.361 253.413 287.337 253.42 287.307C253.576 286.532 253.714 285.835 253.831 285.199C253.994 284.291 254.118 283.494 254.172 282.726C254.18 282.711 254.18 282.703 254.18 282.687C254.288 281.324 254.211 280.045 253.908 278.394C253.885 278.27 253.862 278.139 253.831 277.999L253.831 277.998Z" fill="#FF6F43"/>
<path d="M19.7481 91.1138C18.702 91.0675 17.8654 90.9274 17.3921 90.6333C16.7174 90.2222 16.5317 89.1689 16.5938 87.7506C16.6328 86.4487 16.8879 84.8362 17.1443 83.147C17.3835 81.6197 17.632 80.0238 17.7483 78.5362C17.8798 76.9005 17.8567 75.3898 17.4998 74.2115C17.3683 73.7621 17.1819 73.3589 16.942 73.0172C16.5541 73.5995 16.1668 74.1883 15.7868 74.7772C14.6092 76.5978 13.4698 78.4423 12.3608 80.3178C11.2988 82.1081 10.2772 83.915 9.29176 85.7436C8.33087 87.5028 7.41694 89.2852 6.5254 91.0755V91.0834C5.67288 92.8116 4.84348 94.5484 4.05237 96.3076C3.2851 98.0047 2.54962 99.7257 1.83654 101.454C1.20004 103.004 0.588105 104.569 -0.00143433 106.142V119.713V120.187C0.0527513 120.125 0.46384 119.799 1.11479 119.342C3.67307 117.559 10.0121 113.692 13.7097 115.01C14.2754 113.383 14.8649 111.771 15.4848 110.174C16.1502 108.461 16.8409 106.756 17.5684 105.073C18.3205 103.33 19.1116 101.609 19.9244 99.8889V99.881C20.7849 98.0907 21.6764 96.3235 22.5983 94.5795C23.2269 93.3946 23.8699 92.2163 24.5288 91.0458V89.5337L19.7619 91.1152H19.7467L19.7481 91.1138Z" fill="#FF6F43"/>
<path d="M153.62 15.9359C157.549 15.9511 161.485 16.1295 165.392 16.4554H165.4C168.701 16.7256 171.98 17.1135 175.235 17.6092H175.242C178.141 18.0434 181.001 18.5701 183.83 19.1827C186.31 19.7101 188.76 20.3069 191.169 20.973C190.58 19.7253 189.976 18.5159 189.364 17.3541C188.682 16.0522 187.992 14.8038 187.31 13.6189C186.55 12.3091 185.797 11.0852 185.062 9.9531C184.202 8.61219 183.364 7.41071 182.589 6.34939C181.52 4.90806 180.56 3.73765 179.745 2.88513C179.458 2.58313 179.195 2.31943 178.947 2.09402C176.59 1.71399 174.196 1.38166 171.786 1.10206C168.267 0.691693 164.702 0.397646 161.129 0.211247L161.772 0.00100708H152.821H148.434L148.248 0.0631399H148.24C146.714 0.109378 145.188 0.171511 143.676 0.265433C143.715 0.714812 143.738 1.14902 143.73 1.55939C143.715 3.52813 143.211 5.1089 142.366 6.41875C138.701 12.1075 128.571 12.5807 123.827 16.9669C123.138 17.6034 122.564 18.3157 122.137 19.1451C127.346 18.0065 132.716 17.1692 138.158 16.6418C143.266 16.1368 148.443 15.9048 153.62 15.9359Z" fill="#FF6F43"/>
<path d="M301.124 95.0975C300.543 93.8187 299.938 92.5479 299.311 91.2915C298.691 90.0206 298.047 88.765 297.389 87.5173C296.729 86.2537 296.056 85.006 295.358 83.7662C294.669 82.5185 293.955 81.2859 293.226 80.0621C292.49 78.8295 291.746 77.6049 290.979 76.3962C290.211 75.1803 289.429 73.9622 288.623 72.7694C287.817 71.552 286.995 70.3585 286.15 69.1729C285.305 67.9714 284.445 66.7866 283.554 65.6162C283.561 65.6082 283.554 65.5923 283.531 65.5851C282.809 64.6011 282.065 63.6315 281.306 62.6627C279.167 63.1121 277.439 63.461 275.959 63.7088C275.951 63.7168 275.944 63.7168 275.936 63.7168C272.292 64.3294 270.177 64.3439 267.185 63.8172C266.294 63.6546 265.317 63.4451 264.201 63.1886H264.193C262.977 62.9105 261.581 62.5767 259.931 62.1815C260.504 62.7942 261.078 63.4061 261.644 64.0339C261.652 64.0339 261.652 64.0339 261.652 64.0419C262.674 65.1581 263.682 66.2967 264.666 67.452C265.642 68.5841 266.603 69.7379 267.541 70.909C267.541 70.909 267.549 70.909 267.549 70.9155C267.549 70.9155 267.556 70.9155 267.556 70.9235C268.488 72.0708 269.394 73.2325 270.284 74.4188C270.524 74.736 270.765 75.0539 271.005 75.3717C271.648 76.2322 272.277 77.1006 272.897 77.9683C273.741 79.1546 274.562 80.3474 275.369 81.5569C276.175 82.7583 276.959 83.9678 277.725 85.1916C278.484 86.4011 279.221 87.6249 279.95 88.8647C280.67 90.0893 281.375 91.3298 282.058 92.5854C282.739 93.8259 283.406 95.0816 284.041 96.3438C284.685 97.5922 285.313 98.8551 285.909 100.134C286.522 101.397 287.103 102.676 287.669 103.963C287.684 103.986 287.692 104.009 287.708 104.04C288.234 105.241 288.754 106.458 289.249 107.683C289.358 107.443 289.46 107.226 289.521 107.078C290.048 105.854 292.374 103.761 295.101 101.537C295.117 101.522 295.14 101.506 295.163 101.491C297.318 99.7235 299.719 97.887 301.689 96.3286V94.9104L301.123 95.0968L301.124 95.0975Z" fill="#FF6F43"/>
<path d="M279.989 115.326C279.493 114.016 278.982 112.714 278.446 111.428C277.927 110.172 277.391 108.924 276.834 107.684C276.818 107.645 276.795 107.606 276.779 107.567C276.756 107.521 276.741 107.475 276.717 107.429C276.694 107.367 276.663 107.312 276.64 107.25C276.105 106.072 275.556 104.901 274.99 103.746C274.967 103.7 274.944 103.662 274.921 103.615C274.324 102.39 273.712 101.174 273.076 99.9728H273.068C273.053 99.9337 273.037 99.8955 273.014 99.8644C272.37 98.6398 271.704 97.4304 271.029 96.2376L271.023 96.2296C270.998 96.1906 270.976 96.1523 270.961 96.1133C270.271 94.9125 269.573 93.727 268.852 92.5486V92.5407C268.1 91.3081 267.326 90.0915 266.543 88.8907C265.744 87.6813 264.932 86.4805 264.094 85.2942H264.086C263.839 84.9222 263.568 84.5421 263.304 84.1701C263.304 84.1701 263.304 84.1628 263.296 84.1628L261.514 81.7288H261.506C260.622 80.5425 259.707 79.3728 258.785 78.2255H258.778C257.848 77.0559 256.887 75.9006 255.91 74.7606C254.918 73.6133 253.91 72.4746 252.88 71.3591C251.842 70.2191 250.772 69.0963 249.686 67.9953C249.617 67.918 249.539 67.84 249.462 67.7619C246.532 67.7865 243.921 70.3433 239.526 70.5919C238.573 70.6461 237.534 70.5919 236.387 70.3816C235.217 70.1114 234.109 69.6606 233.062 69.0797C231.598 68.2734 230.257 67.2042 229.048 66.0027C227.962 64.9327 226.986 63.7551 226.118 62.5536C225.312 61.454 224.599 60.345 223.986 59.2837C223.917 59.1594 223.847 59.0438 223.777 58.9196C222.964 57.4768 222.321 56.1604 221.879 55.1367C221.468 54.2069 221.22 53.5241 221.135 53.2228C220.632 52.5481 220.128 51.9592 219.639 51.4557C218.088 49.8597 216.585 49.0368 215.105 48.5492C212.532 47.6966 209.997 47.8433 207.324 46.7119C205.967 46.131 204.572 45.2243 203.115 43.6898C203.061 43.6277 202.999 43.5583 202.93 43.4955C202.115 42.6039 201.278 41.5108 200.418 40.1699C199.727 39.1006 199.031 37.876 198.31 36.4578C198.061 35.9622 197.798 35.4355 197.542 34.8843C196.271 34.4204 194.993 33.9855 193.698 33.5665C191.365 32.8079 188.985 32.1251 186.583 31.5125H186.576C183.948 30.8312 181.29 30.2416 178.599 29.7381C176.5 29.3349 174.392 28.986 172.26 28.6992H172.252C171.331 28.5677 170.408 28.4427 169.478 28.3423H169.47C167.331 28.0872 165.184 27.8849 163.03 27.7455H163.015C161.581 27.6299 160.132 27.5526 158.69 27.4984C156.179 27.3965 153.66 27.3734 151.149 27.4052H151.126C149.064 27.4363 147.011 27.5056 144.957 27.6306H144.949C139.043 27.9716 133.16 28.6768 127.394 29.7388C127.371 29.7453 127.348 29.7453 127.325 29.754C125.395 30.1188 123.48 30.514 121.582 30.9547C121.574 30.9547 121.566 30.9547 121.558 30.9627C121.551 30.9627 121.543 30.9627 121.535 30.9706C121.528 30.9706 121.52 30.9706 121.511 30.9771C121.504 30.9771 121.488 30.9851 121.481 30.9851C114.551 32.5897 107.84 34.7051 101.461 37.3718C100.686 37.6976 99.919 38.0234 99.1597 38.3637C99.1445 38.3717 99.1366 38.3717 99.1214 38.3789C99.1134 38.3789 99.1135 38.3868 99.1055 38.3868C98.3151 38.7437 97.5096 39.0992 96.7343 39.4713C96.881 40.8584 96.9742 42.0837 97.0204 43.1682C97.0284 43.2765 97.0356 43.3856 97.0356 43.4861C97.0977 45.1759 97.0515 46.5089 96.9352 47.5789C96.92 47.7024 96.9048 47.8274 96.8889 47.943C96.5631 50.3452 95.8587 51.3068 95.3154 52.0351C94.3625 53.4613 78.1638 55.1273 76.0167 57.747C75.4979 58.4218 75.0175 58.9102 74.5753 59.2822C74.3354 59.491 74.1028 59.6543 73.8861 59.7938L71.8631 60.5755C71.8552 60.5755 71.84 60.5834 71.8241 60.5834C71.4521 60.6838 71.0966 60.8009 70.7397 61.0017L70.7317 61.0097C69.8099 61.5443 68.88 62.7075 67.6786 65.9001C67.6085 66.1089 67.4842 66.3264 67.3137 66.5518V66.559C65.3536 69.2488 57.5719 73.0772 56.4795 73.9535C56.3314 74.0691 56.0995 74.3567 55.7816 74.775V74.7829C54.8828 75.9844 53.3562 78.2393 51.597 80.5721V80.5801C50.7676 81.6732 49.884 82.7887 48.9925 83.8189C47.9456 85.0132 46.8922 86.0897 45.8844 86.8808C44.9004 87.656 43.9626 88.1675 43.1332 88.252C38.6076 88.726 38.1272 90.3992 37.8873 91.5855C37.8483 91.8175 37.5766 91.9807 37.1583 92.0963C36.6317 92.9568 36.1122 93.8173 35.6 94.6929C34.5545 96.468 33.5546 98.2663 32.5937 100.095V100.103C32.5547 100.164 32.5237 100.226 32.4933 100.289C31.6097 101.962 30.7644 103.668 29.9509 105.388C29.1446 107.093 28.3774 108.821 27.6412 110.566C26.9368 112.24 26.262 113.93 25.6269 115.642H25.619C25.3329 116.402 25.0533 117.169 24.7816 117.944V129.158L39.1437 124.399C39.1437 124.399 39.1509 124.407 39.1589 124.399C39.221 124.415 39.2904 124.43 39.3612 124.438C39.3763 124.399 39.3843 124.361 39.3995 124.322C39.9803 122.632 40.6009 120.958 41.2605 119.3C41.9339 117.572 42.6549 115.867 43.415 114.177C44.2054 112.401 45.0506 110.65 45.9263 108.922H45.9342C46.8561 107.101 47.825 105.31 48.8321 103.551H48.84L48.9946 103.497V103.272C49.9945 101.551 51.0335 99.8535 52.11 98.1955C52.141 98.1333 52.18 98.0799 52.227 98.0257V98.0177C53.4364 96.1501 54.6921 94.3208 56.0084 92.5298C56.0084 92.5146 56.0164 92.5067 56.033 92.4988C56.0792 92.4294 56.1255 92.36 56.1797 92.2979C57.6672 90.2591 59.2256 88.2759 60.8382 86.3462C60.8447 86.3462 60.8447 86.3382 60.8447 86.3382C62.1625 84.7647 63.5186 83.2301 64.9064 81.7274C65.4259 81.1696 65.9374 80.6184 66.4648 80.0758L66.4728 80.0686H66.4807C68.0839 78.3939 69.7427 76.7669 71.4477 75.1854C72.1153 74.5662 72.7966 73.9463 73.4865 73.3423C73.4865 73.3423 73.4865 73.3344 73.4945 73.3344C76.5014 70.6757 79.6485 68.1571 82.9184 65.8091V65.8011C86.158 63.4683 89.5219 61.2907 92.9941 59.283C94.8848 58.1819 96.8001 57.1437 98.7522 56.1597C98.7522 56.1518 98.7602 56.1518 98.7602 56.1518C109.254 50.8199 120.64 46.9908 132.628 44.9455H132.651C138.665 43.9145 144.828 43.3329 151.106 43.2476C151.687 43.2397 152.276 43.2325 152.865 43.2325C156.329 43.2325 159.754 43.3791 163.149 43.6739C166.404 43.9448 169.621 44.3566 172.799 44.8985C175.581 45.3558 178.331 45.9215 181.044 46.5804C183.354 47.1309 185.64 47.7581 187.888 48.456C188.035 48.495 188.175 48.5333 188.315 48.5875C190.531 49.2702 192.717 50.0136 194.879 50.8271C196.895 51.5872 198.886 52.3934 200.854 53.2611C202.723 54.0754 204.559 54.9358 206.373 55.8425H206.381C208.109 56.7102 209.814 57.6169 211.488 58.5706C211.907 58.7946 212.325 59.0352 212.744 59.283C213.938 59.9643 215.108 60.6701 216.27 61.4063C217.782 62.3441 219.27 63.3209 220.734 64.3367C222.152 65.3127 223.555 66.3199 224.927 67.3595C226.268 68.3587 227.585 69.3969 228.872 70.4669C230.135 71.4979 231.367 72.5599 232.584 73.6443L232.591 73.6523C233.786 74.7071 234.947 75.7915 236.095 76.8991V76.907C237.219 77.985 238.327 79.0853 239.397 80.216H239.404V80.2239C240.474 81.3315 241.512 82.4556 242.527 83.6029C243.241 84.4092 243.945 85.2234 244.636 86.0449V86.0528C244.922 86.3787 245.194 86.7031 245.464 87.0368C246.409 88.1841 247.333 89.3538 248.232 90.5401C249.13 91.7019 249.999 92.8802 250.843 94.0817C251.681 95.268 252.501 96.4774 253.3 97.6933H253.308C254.074 98.8796 254.834 100.081 255.563 101.298C255.578 101.314 255.587 101.329 255.594 101.344C256.331 102.561 257.043 103.786 257.726 105.033C257.726 105.033 257.741 105.041 257.733 105.049C258.422 106.266 259.082 107.498 259.717 108.745C259.725 108.761 259.733 108.776 259.741 108.792C260.369 110.023 260.981 111.272 261.562 112.534C261.577 112.55 261.585 112.573 261.593 112.597C262.189 113.868 262.763 115.147 263.306 116.441C263.856 117.728 264.375 119.022 264.88 120.324C265.383 121.634 265.856 122.952 266.305 124.277C266.77 125.595 267.197 126.92 267.608 128.253C268.011 129.586 268.39 130.926 268.746 132.283H268.754C269.11 133.631 269.451 134.995 269.761 136.367C270.079 137.731 270.366 139.103 270.629 140.491C270.645 140.553 270.653 140.622 270.668 140.685C273.699 140.956 275.705 141.157 275.705 141.157C275.412 140.437 275.264 139.716 275.241 138.964C275.186 137.538 275.574 136.012 276.294 134.205C276.891 132.694 277.728 130.981 278.728 128.982C279.511 127.415 280.387 125.679 281.332 123.711H281.339C281.634 123.099 281.936 122.455 282.247 121.797C281.975 120.952 281.697 120.116 281.41 119.278C280.96 117.953 280.487 116.635 279.992 115.325L279.989 115.326Z" fill="#FF6F43"/>
<path d="M247.251 311.487C240.825 315.594 234.122 319.292 227.162 322.546L227.154 322.554C224.317 323.879 221.442 325.127 218.528 326.305C208.786 330.243 198.617 333.32 188.116 335.466C187.178 335.661 186.24 335.838 185.303 336.017C185.434 336.094 185.566 336.18 185.706 336.264C186.953 337.055 188.333 338.125 189.736 339.341C190.914 340.341 192.107 341.449 193.262 342.581C194.401 343.69 195.51 344.828 196.533 345.913C196.548 345.929 196.571 345.952 196.586 345.975C197.68 347.137 198.671 348.238 199.493 349.192H199.966L201.593 348.649H201.608C209.281 346.626 216.768 344.146 224.03 341.232C224.038 341.232 224.038 341.224 224.046 341.224C227.533 339.821 230.974 338.325 234.362 336.729C233.803 335.923 233.346 335.273 233.051 334.885C232.881 334.661 232.71 334.366 232.547 334.001C232.547 334.001 232.54 333.993 232.547 333.986C232.098 332.994 231.711 331.544 231.409 329.963C231.191 328.77 231.014 327.5 230.912 326.305C230.897 326.112 230.882 325.918 230.874 325.732C230.735 323.779 230.805 322.075 231.146 321.307C231.161 321.276 231.184 321.245 231.208 321.214V321.206C233.424 317.874 247.476 315.928 248.22 311.17L248.251 311.162V311.154V310.852C247.925 311.061 247.599 311.271 247.266 311.479C247.266 311.487 247.259 311.487 247.251 311.487V311.487Z" fill="#FF6F43"/>
<path d="M245.074 351.92C244.957 351.486 244.842 351.044 244.725 350.587C240.872 352.486 236.959 354.26 232.975 355.919C232.967 355.919 232.967 355.927 232.96 355.927L222.287 359.453V360.034C224.38 360.678 226.449 361.29 228.426 361.84C231.231 362.623 233.82 363.289 235.936 363.762C238.61 364.352 240.523 364.63 241.152 364.435C243.229 363.234 244.5 362.01 245.22 360.693C245.988 359.267 246.12 357.747 245.926 356.05C245.786 354.779 245.454 353.415 245.074 351.919V351.92Z" fill="#FF6F43"/>
<path d="M281.957 141.157H282.244V141.057C282.236 141.064 282.22 141.072 282.189 141.072L281.957 141.157Z" fill="#FF6F43"/>
<path d="M250.274 103.103C250.328 103.08 250.382 103.064 250.437 103.049L250.274 103.095V103.103Z" fill="#FF6F43"/>
<path d="M111.667 298.993C111.868 298.924 112.07 298.853 112.28 298.775L111.659 298.978V298.985L111.667 298.993Z" fill="#FF6F43"/>
<path d="M37.4032 195.581C37.0232 194.24 36.667 192.892 36.3412 191.528C36.2097 191 36.0847 190.465 35.9612 189.938C35.8528 190.373 35.7062 190.652 35.5039 190.721C34.0777 191.194 32.4037 190.482 32.4037 190.482C32.481 191.249 32.4731 192.046 32.3885 192.838C32.2173 194.512 31.7138 196.186 30.9934 197.704C30.513 198.719 29.9386 199.658 29.3115 200.472C29.3115 200.472 30.9075 200.852 33.1789 201.394C35.0696 201.845 37.4343 202.402 39.7361 202.944C39.3402 201.837 38.9681 200.721 38.6119 199.597C38.1857 198.271 37.7825 196.931 37.4025 195.582L37.4032 195.581Z" fill="#FF6F43"/>
</g>
<defs>
<clipPath id="clip0_12_1403">
<rect width="837.536" height="365" fill="white"/>
</clipPath>
</defs>
</svg>
