<svg width="115" height="137" viewBox="0 0 115 137" fill="none" xmlns="http://www.w3.org/2000/svg">
<path d="M40.4146 86.4365V86.4389C40.976 86.71 41.5437 86.9672 42.119 87.2058C42.7292 87.463 43.3485 87.7011 43.975 87.921H43.9774C44.6484 88.1594 45.3286 88.3791 46.0159 88.5778C46.6402 88.7579 47.2665 88.9217 47.9 89.0712H47.9024C48.0101 89.0969 48.1173 89.1203 48.2252 89.1462H48.2276C48.2461 89.1508 48.2649 89.1532 48.2838 89.1577H48.2858H48.2882C48.9334 89.3027 49.5857 89.4312 50.2403 89.5413H50.2425C50.4107 89.5716 50.584 89.5995 50.7546 89.6276H50.757C50.7873 89.6322 50.8152 89.637 50.8457 89.6415C51.5213 89.7468 52.1992 89.8333 52.8818 89.9035C53.1435 89.9314 53.4078 89.9547 53.6696 89.9758H53.672C53.7234 89.9828 53.7702 89.9852 53.8193 89.9874H53.8214C54.9459 90.0811 56.0704 90.1253 57.2021 90.1253C57.1459 90.1441 57.0899 90.1628 57.0339 90.1813H57.2629L57.4289 90.1253H57.4311H57.4359C59.0932 90.116 60.7531 90.0107 62.4011 89.8095L62.4035 89.8119L62.4059 89.8095H62.4083C68.1403 89.12 73.7346 87.2965 78.6089 84.4493C79.6586 83.8367 80.6756 83.1751 81.6526 82.4669C81.6526 82.4645 81.655 82.4645 81.655 82.4645C81.9424 82.2585 82.2231 82.0484 82.5036 81.8312L82.5058 81.8288H82.5082C83.0458 81.4149 83.5718 80.9872 84.0816 80.5428C84.4161 80.253 84.7456 79.9562 85.0679 79.6524L85.0703 79.65C85.096 79.6243 85.1193 79.6034 85.1476 79.5776C85.5146 79.2292 85.8744 78.8742 86.2253 78.5094C86.1013 78.3664 85.9938 78.2102 85.9001 78.0441C85.8932 78.0347 85.8862 78.023 85.8816 78.0114C85.685 77.6606 85.5471 77.2703 85.4538 76.861C85.4514 76.8495 85.449 76.8377 85.4445 76.8237C85.3555 76.4167 85.3111 75.9963 85.2971 75.5849V75.5825C85.2808 75.1078 85.3065 74.645 85.3534 74.2335C85.4327 73.5534 85.5687 73.0179 85.6715 72.7985C85.6735 72.7867 85.6809 72.775 85.6855 72.7658C85.7391 72.5762 86.1392 71.9708 86.6578 71.1408C86.6696 71.1244 86.679 71.1081 86.6881 71.0917C86.9873 70.6147 87.3243 70.0631 87.654 69.4789C87.6633 69.4625 87.6725 69.4462 87.6797 69.4318C87.8128 69.1958 87.9438 68.9548 88.0724 68.712C87.9294 68.9598 87.7825 69.2049 87.6307 69.4462C87.6213 69.4625 87.6119 69.4811 87.598 69.4974C87.2471 70.0655 86.8753 70.6195 86.4872 71.1571C86.4757 71.1758 86.4639 71.1922 86.4499 71.2087V71.2111C86.0034 71.8281 85.5358 72.4267 85.0474 73.004C84.7552 73.3501 84.4562 73.6889 84.15 74.0186C83.8671 74.3248 83.5792 74.6243 83.2848 74.9165L83.2824 74.9187C83.002 75.2015 82.7167 75.475 82.4221 75.7466C81.9501 76.1859 81.4637 76.6067 80.9659 77.0157L80.9635 77.0181H80.9589C79.8648 77.9136 78.717 78.7386 77.5153 79.4865C77.5153 79.4865 77.5153 79.4889 77.5129 79.4889C77.4896 79.5077 77.4663 79.5216 77.4406 79.5358C77.4406 79.5382 77.4384 79.5382 77.4384 79.5382C76.8746 79.8891 76.2974 80.2255 75.7131 80.5433C74.9018 80.9876 74.0717 81.4014 73.2255 81.7826H73.2236C69.4315 83.4891 65.3265 84.5692 61.1535 84.9852H61.1513C61.0343 84.9969 60.9196 85.0085 60.8028 85.0179H60.8004C60.7211 85.0272 60.6461 85.0342 60.569 85.0388H60.5666C59.1499 85.1628 57.7264 85.2075 56.3073 85.1748H56.3049C55.1828 85.1491 54.0653 85.0741 52.955 84.9525H52.9526C52.0223 84.8496 51.0963 84.7117 50.18 84.5389H50.1776C49.3665 84.3892 48.5623 84.2113 47.7676 84.0058H47.7652C47.0451 83.8213 46.3321 83.6129 45.6284 83.3839H45.626C44.9762 83.1734 44.3359 82.9422 43.6996 82.692C43.6974 82.692 43.6974 82.6896 43.6974 82.6896C43.1223 82.4651 42.5518 82.2219 41.9909 81.965C41.9745 81.958 41.9582 81.9486 41.9392 81.9417C41.3968 81.6915 40.8592 81.4274 40.3309 81.1469C40.3285 81.1445 40.3285 81.1445 40.3261 81.1445C40.0457 80.9948 39.7674 80.8429 39.4939 80.6864C39.279 80.5648 39.0639 80.4408 38.8536 80.3123H38.8512C38.8467 80.3099 38.8419 80.3077 38.8397 80.3053C38.3766 80.027 37.9185 79.7372 37.4698 79.4334C37.4674 79.4334 37.465 79.431 37.4629 79.4288C37.0396 79.1459 36.6212 78.8491 36.2122 78.5427C36.2074 78.5379 36.2052 78.5358 36.2004 78.531H36.198C36.1935 78.5286 36.1911 78.5264 36.1865 78.5216H36.1841C35.789 78.2248 35.4009 77.9184 35.0199 77.6006C35.013 77.5958 35.0058 77.5913 34.9988 77.5843V77.5819C34.6224 77.2733 34.2557 76.9506 33.8933 76.6185C33.5424 76.2983 33.2009 75.9662 32.8669 75.6273H32.8645C32.6003 75.3613 32.3386 75.0873 32.0836 74.8093C31.6232 75.1224 31.2021 75.3539 31.2021 75.3539C31.2021 75.3539 31.2745 75.6437 31.3754 76.1185V76.1207L31.6162 77.3714V77.3738C31.6818 77.7641 31.7496 78.1919 31.8056 78.6384V78.6408C31.8056 78.6478 31.8078 78.6567 31.8078 78.6663C31.8219 78.7833 31.8359 78.9001 31.8498 79.0195C31.8897 79.3839 31.9294 79.6694 31.9808 79.8912C31.9808 79.8982 31.9832 79.903 31.9832 79.91C31.9878 79.9217 31.9902 79.9357 31.9923 79.9472C32.081 80.3051 32.1983 80.4803 32.3922 80.5433C32.5232 80.5855 32.6866 80.5786 32.8995 80.5433H36.4061C36.572 80.6579 36.7054 80.8028 36.8152 80.9734C36.8222 80.9828 36.8267 80.9898 36.8315 80.9991C37.0257 81.3053 37.1517 81.6934 37.2896 82.1493C37.292 82.1563 37.2942 82.1633 37.2966 82.1727C37.4018 82.5279 37.5165 82.9232 37.6708 83.3534C37.7337 83.5332 37.8063 83.7177 37.888 83.9073C38.0118 84.1246 38.1264 84.314 38.2291 84.4986H38.2315C38.4047 84.8097 38.5427 85.1066 38.6335 85.511C38.7039 85.5509 38.7739 85.5906 38.8464 85.6278C39.0356 85.7331 39.2276 85.8362 39.4213 85.9364C39.7489 86.1116 40.0808 86.2779 40.4151 86.4368L40.4146 86.4365Z" fill="white" fill-opacity="0.3"/>
<path d="M31.5092 50.7877C31.4835 50.3483 31.4695 49.9086 31.4671 49.4692V49.4668C31.4626 49.0203 31.4695 48.576 31.4859 48.132C31.5022 47.6783 31.5282 47.2272 31.5654 46.7759V46.7735C31.6027 46.3109 31.6517 45.8524 31.7127 45.3941C31.7733 44.9244 31.8459 44.4568 31.9326 43.9915C32.0165 43.5169 32.1124 43.0473 32.2222 42.5772C32.2246 42.5726 32.2246 42.5702 32.2246 42.5654V42.5632C32.3393 42.0744 32.4678 41.5885 32.6104 41.1067V41.1045C32.7533 40.6041 32.9122 40.1083 33.085 39.6176C33.2676 39.1009 33.4638 38.5936 33.6767 38.0913C33.6767 38.0889 33.6791 38.0889 33.6791 38.0889C33.8915 37.577 34.1234 37.0742 34.3686 36.5784C34.3779 36.5575 34.3873 36.5388 34.3989 36.5202C34.6634 35.9872 34.9458 35.4657 35.2501 34.9538C35.2594 34.9351 35.271 34.9166 35.2849 34.8976V34.8952C35.6194 34.3295 35.9773 33.7755 36.356 33.2379C36.363 33.2261 36.37 33.2146 36.3793 33.2052V33.2028H36.3815C36.6831 32.7704 37.0035 32.3496 37.3354 31.9382C37.4733 31.7654 37.6134 31.5948 37.7608 31.4263L37.7632 31.4239C37.7632 31.4193 37.7677 31.4169 37.7747 31.4124V31.41C38.3522 30.732 38.9718 30.0822 39.631 29.4674L39.9467 29.3621L39.631 29.465C39.8227 29.2852 40.0191 29.1074 40.2202 28.932C40.9239 28.3174 41.6672 27.7375 42.4552 27.2021C42.4552 27.1997 42.4574 27.1997 42.4574 27.1997L42.4622 27.1975C46.0599 24.738 50.5389 23.118 55.902 22.7508H55.9089C56.4677 22.7135 57.0358 22.6878 57.6155 22.6784C58.366 22.6926 59.0976 22.7301 59.8154 22.7885H59.8178C60.8089 22.8726 61.77 22.999 62.7003 23.1648H62.7027C62.8755 23.1951 63.0442 23.2278 63.2146 23.2607H63.217C63.8577 23.3893 64.4866 23.5342 65.099 23.7025H65.1035C65.197 23.7258 65.2931 23.7541 65.3864 23.7798C65.9964 23.9505 66.5904 24.142 67.1703 24.3477C67.2122 24.3641 67.2542 24.3804 67.2965 24.3948C67.8738 24.6073 68.4351 24.8341 68.9821 25.0795C68.9985 25.0867 69.0148 25.0937 69.0312 25.1007C69.5688 25.3439 70.09 25.601 70.5974 25.8745L70.5998 25.8769C71.0975 26.1456 71.5815 26.4285 72.0516 26.7253L72.0535 26.7277C72.5048 27.0105 72.9398 27.3097 73.3652 27.6207L73.3558 27.6255L73.3698 27.6231C73.7812 27.9223 74.1809 28.2333 74.5668 28.5558H74.569C74.7187 28.6798 74.8658 28.806 75.011 28.9322C75.233 29.1263 75.4503 29.3251 75.663 29.5236V29.526C75.9692 29.8135 76.2664 30.1079 76.5563 30.4121L76.6005 30.5452L76.6635 30.5243C76.979 30.8584 77.283 31.2023 77.5777 31.5529C77.8675 31.8964 78.1456 32.2472 78.4169 32.605V32.607C78.681 32.9579 78.9381 33.3179 79.1811 33.6825C79.1835 33.6825 79.1835 33.6849 79.1835 33.6849C79.1951 33.7034 79.2068 33.7197 79.2184 33.7385C79.4477 34.0819 79.6697 34.4304 79.88 34.7834V34.7858C79.894 34.8045 79.9057 34.8231 79.9151 34.8444C80.1256 35.1924 80.3241 35.5457 80.5133 35.9033V35.9057C80.5275 35.929 80.5416 35.9523 80.551 35.9757C80.7402 36.3285 80.9204 36.6839 81.0886 37.0463C81.1026 37.072 81.1143 37.0953 81.1237 37.1213C81.2919 37.4791 81.4534 37.8413 81.6027 38.2059C81.7663 38.594 81.9182 38.9869 82.0632 39.3842L81.8925 39.4428L82.0632 39.3866C82.2081 39.7817 82.3414 40.1813 82.4676 40.5834C82.5916 40.9855 82.7084 41.39 82.8161 41.7994C82.8836 42.0566 82.9492 42.3183 83.0103 42.5776C83.0451 42.7295 83.0778 42.8792 83.1105 43.0313C83.2018 43.4474 83.2814 43.8634 83.3513 44.2842C83.4239 44.705 83.4868 45.128 83.5409 45.5512C83.5921 45.979 83.6368 46.4089 83.6719 46.8393C83.7067 47.2741 83.7324 47.7115 83.7464 48.1462C83.7627 48.5879 83.7697 49.0299 83.7651 49.4694C83.7627 49.9181 83.7488 50.3668 83.7205 50.8136V50.816C83.6995 51.2717 83.6645 51.7276 83.6176 52.1811C83.571 52.6463 83.5123 53.1092 83.4424 53.5697C83.3724 54.0443 83.2905 54.5141 83.1946 54.9818C83.0987 55.4654 82.9911 55.9448 82.8671 56.4218V56.4242C82.7409 56.9172 82.603 57.4036 82.4487 57.89V57.8922C82.2922 58.3973 82.1189 58.8977 81.932 59.393H81.93C81.7358 59.9143 81.5229 60.4288 81.2917 60.9361C81.0579 61.4598 80.8053 61.9765 80.5342 62.4838C80.5272 62.4977 80.5203 62.5117 80.5109 62.5256C80.2256 63.0656 79.9168 63.5941 79.5921 64.1108C79.5852 64.1247 79.5758 64.1387 79.5664 64.1505C79.5618 64.1598 79.557 64.1644 79.5525 64.1714V64.1738C79.1853 64.7559 78.7926 65.324 78.3766 65.8734C78.3696 65.8827 78.3624 65.8921 78.3554 65.9013C78.2059 66.1002 78.054 66.2942 77.8971 66.4857C77.5511 66.9135 77.1889 67.3319 76.8125 67.741L76.8101 67.7434C76.8101 67.7434 76.8077 67.7458 76.8056 67.7479C76.5179 68.0591 76.2187 68.3653 75.9123 68.6621H75.9103C75.6181 68.9472 75.3187 69.2231 75.0125 69.492C74.9003 69.5879 74.7906 69.6837 74.6784 69.777C74.6784 69.7794 74.676 69.7794 74.676 69.7794C74.6479 69.8027 74.6224 69.8263 74.5943 69.8474C74.4984 69.9291 74.4001 70.0087 74.3021 70.0882C73.2854 70.9111 72.1841 71.6616 71.0012 72.3254V72.3278C70.9192 72.3908 70.8399 72.4237 70.758 72.4867L70.7556 72.4891H70.7534C70.751 72.4891 70.751 72.4891 70.7486 72.4915H70.7464C70.744 72.4915 70.744 72.4934 70.7416 72.4934H70.7395C70.7371 72.4934 70.7371 72.4934 70.7347 72.4958H70.7323C70.7303 72.4958 70.7303 72.4982 70.7277 72.4982H70.7253C70.7233 72.4982 70.7233 72.5004 70.7207 72.5004H70.7183C70.7159 72.5004 70.7159 72.5028 70.7137 72.5028H70.7113C70.7089 72.5028 70.7089 72.5052 70.7068 72.5052H70.7044C70.702 72.5052 70.702 72.5076 70.6996 72.5076H70.6976C70.6952 72.5076 70.6952 72.5098 70.6928 72.5098H70.6909C70.6885 72.5098 70.6885 72.5122 70.6861 72.5122H70.6837C70.6815 72.5122 70.6815 72.5146 70.6791 72.5146H70.6767C70.6745 72.5146 70.6745 72.5167 70.6721 72.5167H70.6697C70.6675 72.5167 70.6675 72.5191 70.6651 72.5191H70.6627C70.6603 72.5191 70.6603 72.5215 70.6582 72.5215H70.6558C70.6534 72.5215 70.6534 72.5239 70.651 72.5239H70.6488C70.6464 72.5239 70.6464 72.5259 70.644 72.5259H70.6418C70.6394 72.5259 70.6394 72.5283 70.637 72.5283C68.1473 73.8748 65.3001 74.8542 62.1016 75.3615H62.0971C61.9358 75.3872 61.77 75.4108 61.6063 75.4339H61.6039C60.3297 75.6141 58.9995 75.7191 57.6157 75.7451C57.3963 75.7403 57.1786 75.7357 56.9611 75.7263C56.8817 75.7239 56.807 75.7217 56.7272 75.7169H56.7227C56.6388 75.7145 56.5568 75.71 56.4749 75.7054H56.4725C55.4768 75.6537 54.5158 75.5605 53.5806 75.4271H53.5782C53.5083 75.4177 53.4383 75.4084 53.3703 75.3992H53.368C53.2185 75.3759 53.069 75.35 52.9216 75.3242H52.9193C52.2694 75.219 51.6335 75.0904 51.0137 74.9455H51.0118C50.9601 74.9337 50.9111 74.9222 50.8621 74.9082H50.8599C50.7943 74.8941 50.7313 74.8777 50.6659 74.8592H50.6635C50.056 74.7095 49.4619 74.541 48.8846 74.354H48.8822C48.8635 74.3495 48.8495 74.3425 48.833 74.3355H48.8306C48.7839 74.3214 48.7347 74.305 48.6881 74.2885C48.7467 74.2699 48.8051 74.2488 48.8633 74.2303C48.8003 74.2488 48.7371 74.2675 48.6741 74.2841C48.0755 74.0875 47.4934 73.8703 46.9279 73.6364V73.6342C46.8928 73.6225 46.8575 73.6061 46.8226 73.5922C46.8202 73.5922 46.8178 73.5898 46.8157 73.5898H46.8133C46.2733 73.3629 45.7496 73.1202 45.2375 72.8652V72.8628C44.7186 72.6035 44.2135 72.3252 43.7251 72.033H43.7227C43.2531 71.7525 42.7993 71.4603 42.3576 71.1562V71.1539C41.9322 70.8594 41.5184 70.553 41.1163 70.2353C40.8755 70.0457 40.6393 69.8518 40.4081 69.6532C40.2632 69.5292 40.1228 69.4055 39.9827 69.2791H39.9803C39.9733 69.2721 39.9664 69.2651 39.9616 69.2627C39.7604 69.0805 39.5643 68.8979 39.3723 68.7112C39.2274 68.5732 39.0849 68.4329 38.9469 68.2903H38.9445C38.8556 68.1993 38.7693 68.1103 38.6804 68.0169C38.449 67.7736 38.2221 67.5261 37.9979 67.2733C37.6986 66.9318 37.4086 66.5838 37.1305 66.2286C36.8568 65.8801 36.5927 65.5223 36.3403 65.1601C36.0878 64.8025 35.8446 64.4377 35.6157 64.0685C35.3841 63.7037 35.1642 63.3319 34.9563 62.9558C34.7458 62.584 34.5473 62.2053 34.3601 61.822C34.1709 61.4432 33.9907 61.0597 33.8225 60.6694C33.6518 60.2836 33.493 59.8931 33.3411 59.498V59.4956C33.1892 59.1029 33.0488 58.7078 32.9157 58.3082C32.7847 57.9061 32.6607 57.5016 32.5439 57.0972C32.4317 56.6903 32.3264 56.2813 32.2307 55.8722C32.1346 55.4584 32.0459 55.0448 31.9688 54.6283C31.8893 54.2077 31.8193 53.7869 31.7609 53.3637C31.7003 52.9383 31.6487 52.513 31.6066 52.085C31.5646 51.6526 31.5316 51.22 31.5107 50.7874L31.5092 50.7877ZM32.407 67.7902C32.6385 68.101 32.8721 68.4098 33.1153 68.7114C33.1502 68.758 33.1876 68.8049 33.2251 68.8515H33.2275C33.5104 69.2043 33.8048 69.5508 34.1042 69.8919C34.408 70.2379 34.7212 70.5768 35.0417 70.9113L35.0437 70.9135C35.3712 71.2526 35.7053 71.5845 36.0468 71.912C36.3972 72.2437 36.755 72.5712 37.122 72.8868C37.4962 73.2115 37.8795 73.5296 38.27 73.8358C38.27 73.8358 38.27 73.838 38.2724 73.838C38.6745 74.1562 39.0835 74.4624 39.502 74.7616H39.5044C39.8012 74.9721 40.1028 75.18 40.4068 75.3811C40.533 75.4628 40.6591 75.5448 40.7855 75.6267C40.7995 75.6359 40.8134 75.6452 40.8278 75.6522V75.6546C40.9633 75.7409 41.1009 75.8276 41.2414 75.9142C41.5594 76.1103 41.8821 76.2999 42.2092 76.4845C42.2232 76.4938 42.2373 76.5032 42.2539 76.5126H42.2561C42.2678 76.5195 42.2794 76.5265 42.2912 76.5335C42.7658 76.8 43.2472 77.0548 43.7382 77.3004C43.7593 77.3097 43.7804 77.3189 43.8016 77.3307C44.3322 77.5926 44.8744 77.8428 45.4216 78.0742H45.4236C45.4469 78.0836 45.4659 78.0927 45.4892 78.1045C46.0479 78.3383 46.6134 78.5604 47.1911 78.7637H47.1935C47.2169 78.7731 47.2424 78.7825 47.2681 78.7894C47.2962 78.7988 47.3241 78.8104 47.3524 78.8173H47.3544C47.9295 79.0209 48.5163 79.2054 49.1078 79.3737H49.1102C49.2154 79.4042 49.3207 79.4323 49.4279 79.4624H49.4303C50.0309 79.626 50.6365 79.7712 51.2515 79.8971H51.2539C51.4361 79.9348 51.6209 79.9721 51.8054 80.0072H51.8078C52.4318 80.124 53.0631 80.2221 53.7014 80.3016H53.706C54.01 80.3413 54.3164 80.374 54.6247 80.4045H54.6295C55.3005 80.4679 55.9782 80.5097 56.661 80.5285H56.6656C56.9787 80.5378 57.2969 80.5424 57.6146 80.5424C57.797 80.5542 57.9794 80.5611 58.1616 80.5657H58.164C58.7766 80.5869 59.3913 80.5775 60.0133 80.5424C61.3128 80.4679 62.6266 80.2759 63.9498 79.9815L63.9614 79.9791L63.9688 79.9769C65.7734 79.57 67.5828 78.9668 69.3548 78.1954L69.3572 78.193C70.9421 77.5035 72.4968 76.6806 73.9906 75.7455C74.3485 75.521 74.6989 75.2918 75.0498 75.0555C75.0498 75.0534 75.0519 75.0534 75.0519 75.0534L75.2648 74.9084L75.2694 74.906C76.3098 74.1954 77.3103 73.4264 78.2687 72.6126L78.3273 72.5638C79.0964 71.9068 79.8353 71.2218 80.5366 70.5088C80.5412 70.5064 80.5455 70.5014 80.5455 70.4994L80.5503 70.497C81.1206 69.9171 81.6676 69.3235 82.1867 68.7112C82.2216 68.6715 82.2543 68.6318 82.2872 68.592C82.2966 68.5826 82.3059 68.5708 82.3129 68.5612C82.7993 67.9863 83.2598 67.3971 83.6924 66.7963V66.7941C83.7063 66.7753 83.7202 66.759 83.7344 66.74C83.7344 66.74 83.7344 66.7381 83.7366 66.7381C83.8745 66.5415 84.0125 66.3452 84.148 66.1464C84.3867 65.7956 84.6157 65.4427 84.8354 65.0873C85.1675 64.5473 85.4782 64.0003 85.7659 63.4488C86.0346 62.9273 86.2848 62.4014 86.5116 61.8708C86.514 61.8614 86.5186 61.8544 86.5234 61.8451C86.7339 61.3493 86.9255 60.8489 87.0959 60.3466C87.2619 59.8578 87.4095 59.3668 87.5354 58.8715C87.6546 58.3969 87.7575 57.9177 87.8392 57.4384C87.9185 56.9778 87.9771 56.5127 88.0168 56.0498C88.0591 55.5985 88.0778 55.1498 88.0798 54.6987C88.0798 54.2589 88.0634 53.8196 88.0286 53.3825C87.9935 52.9571 87.9397 52.5317 87.8695 52.1059V52.1037C87.7995 51.6872 87.7106 51.2758 87.6054 50.8624C87.5001 50.4579 87.3785 50.0535 87.2386 49.6514C87.1007 49.2587 86.944 48.866 86.7709 48.4755C86.6027 48.0922 86.4131 47.711 86.2076 47.3323C86.0041 46.9581 85.7844 46.5863 85.546 46.2172C85.3122 45.8548 85.0596 45.495 84.7885 45.1371C84.7068 45.0249 84.6203 44.9151 84.5335 44.805C84.4261 44.5925 84.3653 44.2861 84.3398 43.9566C84.3023 43.4986 84.3398 42.9889 84.4287 42.5962L84.4823 42.5774H84.4307C84.4917 42.3133 84.5756 42.1028 84.6763 42.0023C84.7671 41.9114 85.4431 41.9019 86.4037 41.9417H86.4061C86.9111 41.9605 87.4955 41.9929 88.1151 42.0328C88.073 41.8269 88.0264 41.6236 87.9795 41.4202C87.8858 41.0064 87.783 40.5974 87.6686 40.1929C87.5611 39.7839 87.4421 39.377 87.3136 38.9795C87.1872 38.5729 87.0516 38.1754 86.9091 37.7803C86.7642 37.383 86.6099 36.9901 86.4484 36.6044V36.602C86.2941 36.2213 86.1305 35.8445 85.955 35.4753C85.9526 35.4638 85.9481 35.452 85.9411 35.4404H85.9387C85.7659 35.0617 85.5833 34.6899 85.3917 34.3253C85.3893 34.316 85.3847 34.3066 85.3778 34.2974C85.1858 33.9233 84.9851 33.5585 84.7767 33.1984C84.7722 33.1891 84.7674 33.1797 84.7604 33.1703C84.5643 32.8269 84.3607 32.4902 84.1478 32.1581V32.0668V32.0411V32.0389L84.0848 32.0598C83.8486 31.6904 83.6058 31.3282 83.3533 30.9752C83.3533 30.9728 83.3509 30.9728 83.3509 30.9728C83.0937 30.608 82.8296 30.2528 82.5561 29.9045C82.2778 29.5467 81.9928 29.1985 81.696 28.8594H81.6936C81.3967 28.5087 81.0856 28.1675 80.7678 27.8354C80.4429 27.4919 80.1086 27.1576 79.7673 26.8351C79.4169 26.5006 79.0567 26.1757 78.6921 25.8603H78.6897C78.3086 25.5328 77.9228 25.2172 77.5278 24.9159V24.9135H77.5253C77.1187 24.5957 76.7025 24.2895 76.2771 23.9971C75.945 23.7657 75.6061 23.539 75.2624 23.3237C75.1526 23.2514 75.0406 23.1812 74.926 23.1132C74.6734 22.9543 74.4186 22.8024 74.1615 22.6549C73.9322 22.5218 73.6984 22.3908 73.4672 22.2646C72.9459 21.9817 72.4175 21.7126 71.8798 21.4605H71.8774C71.3095 21.1892 70.7344 20.9368 70.1502 20.7006H70.1478C69.5215 20.448 68.8856 20.2142 68.2425 20.0017C67.5412 19.7679 66.8327 19.5576 66.1175 19.3728H66.1151C65.442 19.1949 64.7616 19.0407 64.0767 18.9073C63.9551 18.8818 63.8337 18.8583 63.7121 18.8373H63.7097C62.9871 18.7018 62.2603 18.5922 61.5287 18.5054H61.5263C61.3182 18.4799 61.1079 18.4586 60.8998 18.4379H60.8974C60.0512 18.3511 59.2002 18.2975 58.3492 18.2766C58.0337 18.2672 57.7179 18.2625 57.4048 18.2625H57.4028C57.3348 18.2625 57.2668 18.2625 57.1993 18.2648H57.1969C55.5069 18.2742 53.8186 18.4098 52.1519 18.6693C48.6055 19.2209 45.1573 20.3408 41.9967 22.0286L41.9758 22.0356L41.9734 22.038C41.5877 22.2415 41.207 22.4564 40.8302 22.6784C39.8227 23.2745 38.8502 23.9341 37.915 24.6539C37.873 24.6842 37.8333 24.7149 37.791 24.7498L37.7889 24.7522L37.7841 24.7546C37.7771 24.7592 37.7725 24.764 37.7656 24.7685L37.7632 24.7709C36.9283 25.4208 36.1313 26.1175 35.3669 26.8678C35.3575 26.875 35.3484 26.8846 35.3412 26.8913V26.8933C34.7216 27.4989 34.1256 28.1396 33.5577 28.8128L33.5553 28.8151C33.5483 28.8221 33.5413 28.8315 33.5344 28.8409C33.0597 29.4042 32.6014 29.9935 32.1645 30.6034V30.6058H32.1621V30.6078C31.7879 31.1315 31.4281 31.6715 31.0845 32.2302C31.0681 32.2559 31.0518 32.2819 31.0352 32.3098H31.0328V32.3122C30.7101 32.8428 30.3993 33.3874 30.1025 33.9485C29.831 34.4652 29.5719 34.9935 29.3263 35.5359V35.5381C29.097 36.0408 28.8819 36.5551 28.6786 37.0812C28.4844 37.5746 28.3023 38.0769 28.134 38.5916V38.5936C28.1083 38.6616 28.0874 38.7315 28.0641 38.8015C28.5526 39.0401 28.9992 39.2879 29.3498 39.5193L29.3522 39.5217C29.8242 39.8372 30.1236 40.1297 30.1236 40.3492C30.1236 40.4215 30.1143 40.5058 30.0979 40.6041V40.6063C30.0393 40.9615 29.8807 41.4784 29.6749 42.0744L29.6725 42.0768C29.6187 42.2381 29.5579 42.4066 29.4973 42.5772C29.3781 42.9045 29.2517 43.2434 29.1232 43.5894C28.934 44.0968 28.7398 44.6135 28.5622 45.1068C28.3892 45.5909 28.2301 46.0537 28.1111 46.458C28.0972 46.5046 28.0808 46.5538 28.0643 46.6007C27.7884 47.3275 27.0777 47.9797 26.2945 48.5084V48.5199L26.2852 48.5223V49.2613V49.8525L26.29 49.8502C26.2993 50.2897 26.3157 50.7293 26.3436 51.164C26.3693 51.5988 26.4046 52.0316 26.4488 52.4615C26.4935 52.8893 26.5471 53.3147 26.6077 53.7381C26.6687 54.1611 26.7387 54.5819 26.8182 55.0003C26.8956 55.4187 26.9819 55.8352 27.0801 56.2466C27.1736 56.6581 27.2763 57.0693 27.3885 57.4737C27.4986 57.8832 27.6202 58.2853 27.7463 58.6847C27.8749 59.0868 28.0105 59.4865 28.1554 59.8816C28.2981 60.2791 28.4522 60.6718 28.6115 61.0623C28.7727 61.4526 28.941 61.8407 29.1188 62.2242C29.2964 62.6124 29.481 62.9933 29.6752 63.372C29.8693 63.7556 30.0703 64.1319 30.2808 64.5035C30.4908 64.8799 30.7107 65.2516 30.9376 65.6162C30.9842 65.6958 31.0359 65.7751 31.0849 65.8546C31.2671 66.1445 31.4541 66.4297 31.6482 66.7128C31.8914 67.0772 32.1462 67.4374 32.4081 67.7904L32.407 67.7902Z" fill="white" fill-opacity="0.3"/>
<path d="M42.3699 48.5246V48.5222C42.3886 48.0665 42.4237 47.6104 42.4797 47.1571C42.5357 46.6846 42.6131 46.215 42.709 45.7495C42.8092 45.2612 42.9332 44.7748 43.0781 44.2982V44.2958C43.2324 43.7837 43.4127 43.2787 43.6182 42.7877C43.6484 42.7178 43.6768 42.6474 43.7071 42.5772C43.9106 42.1072 44.1372 41.6491 44.3874 41.2028L44.3896 41.2004C44.7147 40.6137 45.0815 40.0478 45.486 39.5078L45.4884 39.5054C46.0003 38.8274 46.573 38.1915 47.2089 37.6073L47.2113 37.6049C49.7128 35.3069 53.1795 33.8082 57.6142 33.7289C58.0048 33.7359 58.3857 33.7546 58.7599 33.7851H58.7623C59.7277 33.8551 60.6416 33.998 61.5068 34.2059H61.5114C62.2386 34.3788 62.9259 34.5941 63.5827 34.8512H63.5851C64.1672 35.0803 64.7235 35.3398 65.2518 35.6296H65.2542C65.7426 35.894 66.2056 36.186 66.6474 36.4994H66.6498C67.0634 36.794 67.4585 37.1074 67.8303 37.4369V37.4393H67.8326C67.856 37.4578 67.8769 37.4765 67.8982 37.4998C68.2304 37.7945 68.5459 38.1079 68.8449 38.4326H68.8473V38.435C68.8612 38.4489 68.8752 38.4631 68.887 38.4796C69.1816 38.7998 69.4573 39.1319 69.7168 39.4753C69.7168 39.4753 69.7192 39.4753 69.7192 39.4777C69.7286 39.4917 69.7401 39.5056 69.7495 39.52C70.0042 39.8565 70.2403 40.2025 70.4625 40.5599L70.4181 40.5763C70.432 40.5717 70.4484 40.5671 70.4647 40.5623C70.694 40.9271 70.9043 41.3013 71.1006 41.682C71.2503 41.9766 71.3905 42.2756 71.5238 42.5775C71.5587 42.6637 71.5962 42.7481 71.6315 42.8346C71.7925 43.2251 71.9377 43.6202 72.0662 44.0223V44.0245C72.197 44.4243 72.3114 44.831 72.4073 45.2405V45.2424C72.508 45.6539 72.5899 46.0703 72.6575 46.4887C72.7255 46.9117 72.7791 47.3395 72.8141 47.7675V47.7699C72.8514 48.2068 72.8702 48.6442 72.8726 49.0814C72.8771 49.5301 72.8632 49.9792 72.8305 50.4255C72.8 50.886 72.7488 51.3467 72.6782 51.8047V51.8071C72.6058 52.2861 72.5123 52.7608 72.3955 53.2308C72.2761 53.7286 72.1336 54.2195 71.9653 54.7036C71.7901 55.2178 71.5866 55.723 71.3552 56.2164C71.3528 56.2233 71.3504 56.2325 71.3458 56.2397H71.3434V56.2417C71.0862 56.798 70.7918 57.3406 70.4643 57.8617V57.8641C70.0834 58.4741 69.6556 59.0587 69.1831 59.6103C69.1809 59.6127 69.1785 59.6173 69.1761 59.6197C68.5333 60.3702 67.8061 61.0597 66.9926 61.6723L66.9902 61.6747C66.9575 61.7004 66.925 61.7263 66.8897 61.7497C64.6362 63.4211 61.7465 64.5059 58.2214 64.6742H58.219C58.1068 64.6812 57.9971 64.6857 57.8849 64.6881H57.8777L57.6136 64.6951C56.5944 64.6766 55.6242 64.5829 54.7078 64.4216H54.7054C54.696 64.4216 54.6891 64.4192 54.6797 64.417C54.6773 64.417 54.6773 64.4146 54.6773 64.4146C53.8756 64.2743 53.1157 64.0825 52.3935 63.8419H52.3911C51.76 63.6314 51.1592 63.3863 50.5862 63.1077H50.5838C50.5699 63.1008 50.5559 63.0938 50.542 63.0844H50.5396C50.0347 62.839 49.5531 62.5677 49.0948 62.2709H49.0926C48.6506 61.9881 48.2322 61.6817 47.835 61.357C47.4562 61.0508 47.0984 60.7232 46.7595 60.3822C46.7571 60.3822 46.7571 60.3798 46.7571 60.3798C46.4298 60.0522 46.1236 59.7112 45.8338 59.3558C45.5509 59.0119 45.2868 58.6545 45.0412 58.2873C44.798 57.9273 44.5735 57.5579 44.3634 57.1818V57.1794C44.1575 56.8076 43.966 56.4265 43.7927 56.0388C43.6199 55.6552 43.4632 55.2625 43.3207 54.865C43.1782 54.4678 43.0542 54.0655 42.9419 53.6588V53.6564C42.8319 53.2498 42.736 52.836 42.6567 52.4219C42.5774 52.0013 42.5142 51.5805 42.4649 51.1551C42.4159 50.7225 42.3832 50.2902 42.3666 49.8552C42.3503 49.4111 42.3503 48.9691 42.369 48.525L42.3699 48.5246ZM37.6431 50.0886C37.6595 50.521 37.6898 50.9557 37.7316 51.3885C37.7737 51.8163 37.8277 52.2439 37.8931 52.6673C37.9583 53.0881 38.0356 53.5041 38.1269 53.9201C38.2135 54.3316 38.3137 54.743 38.4283 55.1499V55.1523C38.5406 55.5589 38.6646 55.961 38.8025 56.3585V56.3609C38.938 56.7581 39.0854 57.1532 39.2464 57.5413V57.5437C39.4055 57.934 39.5785 58.3198 39.7655 58.7009C39.9503 59.0866 40.149 59.4654 40.3617 59.8372C40.5746 60.2135 40.8013 60.5831 41.0397 60.9429C41.2805 61.3097 41.5352 61.6675 41.8042 62.0181V62.0205H41.8066C42.0777 62.3784 42.3653 62.7288 42.6667 63.0679C42.69 63.096 42.716 63.1241 42.7417 63.1522C43.0245 63.4699 43.3213 63.7785 43.6301 64.0779H43.6323C43.8709 64.3094 44.1141 64.5362 44.3663 64.7511C44.4809 64.8542 44.5979 64.9522 44.7147 65.0503H44.7171C45.1074 65.3728 45.5143 65.6816 45.9397 65.976H45.9421C46.386 66.2846 46.8491 66.5771 47.3305 66.8458V66.8482C47.3353 66.8528 47.3398 66.8551 47.3468 66.8575C47.8378 67.138 48.3499 67.3976 48.8782 67.636C48.8921 67.6429 48.9063 67.6477 48.9178 67.6523H48.9202C49.4578 67.8955 50.0122 68.1154 50.5869 68.3115C50.6455 68.3327 50.7061 68.3512 50.7647 68.3725H50.7671C51.1339 68.4941 51.5107 68.6088 51.8938 68.7116C52.2466 68.8075 52.6044 68.8938 52.9714 68.9734H52.9762C53.8573 69.163 54.7738 69.3029 55.7301 69.3918H55.7347C56.3451 69.4458 56.9716 69.4807 57.6142 69.4924C58.3905 69.4785 59.143 69.4314 59.8726 69.3521H59.8772C60.0151 69.3382 60.1554 69.3218 60.291 69.3029C60.7656 69.2447 61.2283 69.1743 61.6818 69.088C61.6887 69.0856 61.6935 69.0856 61.6981 69.0856C62.1213 69.0063 62.533 68.9152 62.937 68.8121C62.9534 68.8075 62.9701 68.8027 62.9841 68.8027C63.0259 68.7936 63.0658 68.7842 63.1057 68.7772C65.0038 68.2884 66.7034 67.5593 68.2369 66.652C68.2369 66.652 68.2369 66.6499 68.2391 66.6499C68.3188 66.6054 68.3982 66.5562 68.4777 66.5071V66.5049C69.3588 65.9649 70.1773 65.3569 70.9302 64.6953C71.1239 64.5271 71.3111 64.3543 71.4957 64.1786V64.1764H71.4981L71.5005 64.174C72.0754 63.6247 72.606 63.0474 73.0972 62.437C73.1439 62.381 73.1881 62.3271 73.2304 62.2711H73.2328C73.6721 61.7148 74.079 61.1373 74.4508 60.5389V60.5365C74.4599 60.5249 74.4671 60.5132 74.4741 60.5016C74.7966 59.9825 75.0936 59.4495 75.3645 58.9049L75.3669 58.9025C75.3763 58.8837 75.3878 58.8628 75.3948 58.8439C75.6404 58.3531 75.8649 57.8506 76.0684 57.3409V57.3385C76.0684 57.3339 76.0708 57.3315 76.073 57.3269C76.2669 56.8359 76.4447 56.3378 76.6014 55.8328C76.7533 55.3514 76.8865 54.8626 77.0035 54.3695V54.3671C77.1157 53.8951 77.214 53.4202 77.2933 52.941C77.3703 52.4803 77.4335 52.0177 77.4825 51.5502V51.5478L77.5832 50.1849V50.1825C77.6019 49.7384 77.6089 49.2945 77.5995 48.8477C77.5947 48.4106 77.5738 47.9732 77.5409 47.5363C77.5106 47.1061 77.4659 46.6759 77.4077 46.2503V46.2481C77.3517 45.8249 77.2837 45.4039 77.2042 44.9857C77.1249 44.5697 77.0312 44.1559 76.9259 43.7468C76.83 43.3541 76.718 42.9636 76.5962 42.5779C76.5916 42.5615 76.587 42.5476 76.5799 42.531V42.5286C76.4561 42.1266 76.3157 41.7291 76.1662 41.3364C76.0143 40.9413 75.8505 40.551 75.6753 40.1674C75.5092 39.8053 75.3338 39.4476 75.1468 39.0968C75.1352 39.0711 75.1213 39.0475 75.1071 39.0244C74.9199 38.6714 74.7214 38.3256 74.5135 37.9865C74.4972 37.9584 74.4808 37.9329 74.4619 37.9071C74.247 37.5587 74.0201 37.2198 73.7817 36.8853C73.7654 36.862 73.749 36.8411 73.7327 36.8177C73.4919 36.4813 73.2369 36.1537 72.9704 35.8336C72.9517 35.8079 72.9307 35.7822 72.9098 35.7586C72.7743 35.5952 72.6339 35.4339 72.4914 35.2773C72.3277 35.0925 72.1593 34.9125 71.9841 34.7348V34.7327C71.6544 34.3912 71.3085 34.0617 70.9483 33.7461L70.9949 33.7298H70.9298C70.5602 33.407 70.1768 33.0963 69.7794 32.8016C69.3564 32.4861 68.9166 32.1871 68.4585 31.9086C67.9769 31.6094 67.4742 31.3313 66.9531 31.0764H66.9507C66.4225 30.8122 65.8755 30.5716 65.3098 30.3566C65.2771 30.3426 65.2468 30.3308 65.2139 30.3215C65.2139 30.3215 65.2139 30.3191 65.2115 30.3191H65.2093C64.5523 30.0689 63.8697 29.8514 63.1589 29.6692H63.1541C62.3523 29.4563 61.5179 29.2905 60.6482 29.1689H60.6434C59.6756 29.0309 58.6657 28.9516 57.6136 28.9326H57.3331H57.0219C57.001 28.9401 56.9801 28.9468 56.959 28.9538C52.2459 29.1523 48.3959 30.5998 45.4058 32.8322C45.3685 32.8601 45.3334 32.8858 45.2981 32.9137L45.2959 32.9161C44.9545 33.1732 44.6274 33.4421 44.3094 33.7202C43.8393 34.1316 43.3976 34.5594 42.9816 35.0107L42.9792 35.0131H42.9772L42.9748 35.0155C42.6826 35.3309 42.3997 35.6536 42.1332 35.9879C41.9044 36.266 41.6891 36.5488 41.481 36.8387V36.8411C41.0883 37.3857 40.7259 37.949 40.394 38.5291V38.5313C40.3824 38.55 40.3707 38.5688 40.3613 38.5899C40.0739 39.0926 39.8097 39.6069 39.5711 40.133V40.135H39.5689C39.3397 40.6377 39.1294 41.152 38.94 41.6733H38.9376V41.6757C38.83 41.9749 38.7271 42.2743 38.6338 42.5781C38.5704 42.7721 38.5144 42.9662 38.4584 43.1626C38.3228 43.6416 38.2036 44.1256 38.103 44.612V44.6142C38.0025 45.0816 37.9208 45.5517 37.8528 46.0263C37.7876 46.4844 37.736 46.9451 37.6987 47.4055V47.4079C37.661 47.859 37.6401 48.3103 37.6307 48.7615C37.6214 49.2032 37.6261 49.6451 37.6425 50.0869V50.0893L37.6431 50.0886Z" fill="white" fill-opacity="0.3"/>
<path d="M53.2562 48.9152C53.2843 48.4242 53.3898 47.938 53.5674 47.4821C53.8246 46.8111 54.2406 46.2055 54.8133 45.7381H54.8157L54.8176 45.7359C55.4932 45.1841 56.3865 44.8263 57.4994 44.7844C57.5016 44.782 57.504 44.782 57.5085 44.7844C57.5789 44.7844 57.6325 44.782 57.6698 44.782H57.677C57.684 44.782 57.6909 44.782 57.6955 44.7844H57.7003C58.5674 44.8099 59.304 45.0298 59.907 45.3826C60.3463 45.6398 60.7157 45.9673 61.0173 46.3461V46.3483C61.2884 46.6873 61.5013 47.0637 61.6576 47.466C61.8119 47.8587 61.9125 48.2771 61.9548 48.7005C62.0015 49.1468 61.9875 49.6003 61.9125 50.0447C61.8212 50.5729 61.6412 51.0872 61.3749 51.5527L61.3725 51.5549C60.6922 52.7402 59.4393 53.6123 57.6134 53.645C56.9988 53.6334 56.4492 53.5282 55.963 53.3458H55.9606V53.3434H55.9585C55.4136 53.1403 54.9534 52.841 54.5722 52.4738V52.4717C54.2447 52.1607 53.9808 51.7983 53.7751 51.4056C53.5785 51.0314 53.436 50.6294 53.3519 50.2157V50.2133H53.3497C53.2606 49.7879 53.2303 49.3508 53.256 48.9158L53.2562 48.9152ZM48.5175 49.1514C48.5153 49.5883 48.5408 50.0231 48.5924 50.4559V50.4583C48.6461 50.8789 48.7234 51.2973 48.8287 51.7087V51.7111C48.9315 52.1202 49.0625 52.5222 49.219 52.9127C49.3757 53.3078 49.5605 53.6912 49.7708 54.0605C49.9858 54.4393 50.229 54.8041 50.5025 55.1478V55.1499H50.5049C50.7878 55.5123 51.1057 55.8536 51.4516 56.167C51.8258 56.5061 52.2348 56.8168 52.6811 57.0903C52.6811 57.0903 52.6835 57.0903 52.6835 57.0927C53.1863 57.4015 53.7332 57.6654 54.3295 57.8759H54.3341C55.0776 58.1401 55.8935 58.3177 56.7796 58.3972L56.646 58.4419H57.6138C60.3163 58.3926 62.4155 57.4621 63.9139 56.0384V56.036C64.4821 55.4984 64.9637 54.8884 65.3588 54.2292L65.3612 54.2268C65.6604 53.7265 65.9106 53.198 66.1093 52.6488L66.1117 52.6464C66.2845 52.1718 66.4201 51.681 66.5183 51.1831C66.6096 50.7246 66.6681 50.2619 66.6916 49.7945V49.7921C66.7195 49.3504 66.7173 48.906 66.6822 48.4667C66.6519 48.0389 66.5935 47.6135 66.5092 47.1925C66.4253 46.7787 66.3155 46.3696 66.1795 45.9721V45.9699C66.0439 45.5701 65.8803 45.1774 65.6911 44.801C65.4993 44.4151 65.2797 44.0435 65.0319 43.6902V43.6881C64.7747 43.3189 64.4893 42.9681 64.1737 42.6409H64.1715C64.0732 42.5379 63.9726 42.4398 63.8675 42.3437C63.6174 42.1053 63.3487 41.8856 63.0634 41.6799H63.061V41.6775C63.0074 41.6379 62.9512 41.6006 62.8952 41.5607C62.507 41.2942 62.0886 41.0534 61.6375 40.8474H61.6351C61.6236 40.8429 61.6118 40.8381 61.6003 40.8311H61.5979C61.5558 40.8126 61.5159 40.7938 61.4717 40.7749C60.8802 40.5177 60.2374 40.3168 59.5429 40.1813H59.5383C59.5126 40.1743 59.4892 40.1695 59.4633 40.1649H59.4609C58.8791 40.0573 58.2641 39.9943 57.614 39.9827C56.7373 39.9989 55.9238 40.1065 55.1759 40.2959H55.1735L55.1641 40.2981L55.1572 40.3005H55.1526C54.7108 40.4127 54.2924 40.553 53.8949 40.7165L53.888 40.7189V40.7213H53.8856L53.8647 40.7282C52.8618 41.149 51.999 41.7263 51.279 42.4208C51.2768 42.4208 51.2768 42.4232 51.2768 42.4232C51.0406 42.6477 50.8231 42.8835 50.6176 43.1315V43.1337C50.1848 43.6552 49.8226 44.2231 49.5256 44.8241V44.8263H49.5234C49.5186 44.8357 49.5162 44.8426 49.5116 44.852C49.2732 45.3334 49.0793 45.8361 48.927 46.3528L48.7472 46.4134L48.927 46.3552C48.7894 46.8229 48.6862 47.3019 48.6186 47.7859L48.3848 47.8633V47.8654L48.6186 47.7885C48.553 48.2396 48.5203 48.6953 48.5179 49.1514H48.5175Z" fill="white" fill-opacity="0.3"/>
<path d="M88.0717 83.8532C88.0088 83.54 87.9198 83.1776 87.8006 82.7404C87.735 82.5042 87.6627 82.2471 87.5808 81.9642C87.1087 82.4203 86.6223 82.8644 86.1244 83.2944L86.122 83.2968C85.1799 84.1127 84.1931 84.8818 83.1672 85.6018V85.6042C81.6289 86.6888 79.9994 87.6705 78.302 88.545L78.2929 88.5472C78.2741 88.559 78.2532 88.5684 78.2319 88.5799C77.0932 89.162 75.9223 89.6976 74.7275 90.1814C71.8755 91.3362 68.8808 92.2105 65.8253 92.781C65.5845 92.8277 65.3459 92.8699 65.1053 92.912C63.1416 93.2461 61.1567 93.459 59.1673 93.5429C57.8278 93.6015 56.486 93.6015 55.151 93.5409C54.0688 93.4941 52.991 93.4073 51.9205 93.279C50.9946 93.1691 50.0758 93.0312 49.1618 92.863H49.1594C49.157 92.8606 49.1549 92.8606 49.1525 92.8606C48.3414 92.7111 47.5348 92.5356 46.7353 92.3369C46.7305 92.3369 46.7283 92.3369 46.7259 92.3345C46.0083 92.1567 45.2952 91.9605 44.5916 91.7407C44.5752 91.7383 44.5613 91.7337 44.5449 91.7267H44.5425C43.8903 91.5256 43.2426 91.3059 42.6024 91.0675H42.6C42.586 91.0651 42.5742 91.0581 42.5603 91.0533C41.9453 90.8269 41.3377 90.5837 40.7367 90.3239C40.6269 90.2773 40.5194 90.2307 40.4096 90.1814C40.0775 90.0341 39.748 89.8822 39.4209 89.7255C39.5002 89.8798 39.5843 90.0317 39.6733 90.1814C39.753 90.3216 39.8369 90.4571 39.9234 90.5929C40.169 90.9832 40.4286 91.3504 40.674 91.6775C40.6833 91.6868 40.6881 91.6962 40.6951 91.7054C41.0198 92.1312 41.3192 92.4864 41.5341 92.7224C41.5459 92.7366 41.5576 92.7481 41.5692 92.7601C41.7023 92.9072 41.7984 93.0029 41.8403 93.0336C41.9176 93.0918 42.065 93.398 42.2423 93.819C42.2471 93.8308 42.2517 93.8423 42.2565 93.8541C42.3945 94.1908 42.5509 94.5952 42.7028 94.9997C42.7076 95.0136 42.7146 95.0276 42.7192 95.0418C42.8711 95.4484 43.0184 95.8505 43.1376 96.185C43.1469 96.2105 43.1539 96.234 43.1633 96.2573C43.8225 96.4722 44.4865 96.6688 45.1575 96.8486C45.9265 97.0591 46.7004 97.246 47.481 97.4099C48.1474 97.5524 48.816 97.6786 49.4892 97.7887C49.6833 97.8235 49.8797 97.8538 50.0738 97.8846C50.747 97.985 51.4226 98.0737 52.1005 98.1439C52.4113 98.1792 52.7225 98.2095 53.0356 98.2352H53.038C53.716 98.2962 54.3985 98.3404 55.0811 98.3707H55.0858C55.5648 98.3941 56.0419 98.4084 56.5213 98.4128H56.5235C57.9892 98.4361 59.4598 98.3919 60.9279 98.2842H60.9325C63.1041 98.1278 65.2692 97.8283 67.4011 97.3958C67.6164 97.3539 67.8289 97.3095 68.0418 97.2626L68.0533 97.2602C71.6068 96.489 75.062 95.3621 78.3092 93.8658L78.3722 93.8449L78.62 93.763H78.55C80.5931 92.8163 82.5522 91.7363 84.3991 90.5207C84.4015 90.5207 84.4015 90.5183 84.4037 90.5183H84.4061C84.4085 90.5183 84.4085 90.5159 84.4106 90.5159H84.413C84.5813 90.4061 84.7497 90.296 84.9158 90.1819C85.8579 89.5462 86.7718 88.8726 87.6509 88.1667C87.6557 88.148 87.6579 88.129 87.6627 88.1105V88.1081C87.6651 88.0963 87.6673 88.0824 87.6697 88.0708C87.7725 87.5188 87.8658 87.0677 87.9432 86.6866C87.9456 86.6774 87.9456 86.6702 87.9477 86.6611C87.9948 86.4273 88.0364 86.217 88.0717 86.0254C88.1208 85.7515 88.158 85.5109 88.1744 85.2795C88.1768 85.2749 88.1768 85.2725 88.1768 85.2677C88.2095 84.8565 88.1861 84.4705 88.0948 83.9726C88.0879 83.9353 88.0809 83.8957 88.0715 83.8534L88.0717 83.8532Z" fill="white" fill-opacity="0.3"/>
<path d="M17.464 27.4826C17.1484 27.4686 16.8961 27.4264 16.7533 27.3377C16.5498 27.2137 16.4938 26.8959 16.5125 26.4681C16.5243 26.0755 16.6012 25.589 16.6786 25.0795C16.7507 24.6189 16.8257 24.1375 16.8608 23.6888C16.9004 23.1954 16.8935 22.7397 16.7858 22.3843C16.7461 22.2487 16.6899 22.1271 16.6176 22.024C16.5005 22.1997 16.3837 22.3773 16.2691 22.5549C15.9139 23.1041 15.5702 23.6604 15.2357 24.2262C14.9154 24.7662 14.6072 25.3112 14.31 25.8628C14.0201 26.3934 13.7445 26.931 13.4756 27.471V27.4734C13.2184 27.9947 12.9682 28.5186 12.7296 29.0492C12.4982 29.5611 12.2763 30.0802 12.0612 30.6015C11.8692 31.0692 11.6847 31.5412 11.5068 32.0156V36.1091V36.252C11.5232 36.2333 11.6472 36.135 11.8435 35.997C12.6152 35.4594 14.5272 34.2929 15.6426 34.6906C15.8132 34.1996 15.991 33.7134 16.178 33.2318C16.3787 32.7151 16.5871 32.2008 16.8065 31.6933C17.0334 31.1674 17.272 30.6483 17.5171 30.1295V30.1271C17.7767 29.5871 18.0456 29.054 18.3237 28.528C18.5133 28.1706 18.7072 27.8151 18.906 27.4621V27.006L17.4681 27.483H17.4635L17.464 27.4826Z" fill="white" fill-opacity="0.3"/>
<path d="M57.8439 4.80651C59.0291 4.81108 60.2164 4.86491 61.3947 4.96319H61.3971C62.3928 5.0447 63.3819 5.16172 64.3637 5.31122H64.3659C65.2404 5.44219 66.1029 5.60105 66.9563 5.78585C67.7044 5.94493 68.4432 6.12494 69.17 6.32586C68.9924 5.94951 68.8102 5.58471 68.6254 5.23429C68.4199 4.84159 68.2115 4.46502 68.0058 4.10763C67.7766 3.71253 67.5497 3.34337 67.3279 3.00189C67.0683 2.59742 66.8157 2.23502 66.5819 1.91489C66.2596 1.48013 65.9698 1.1271 65.7242 0.869948C65.6377 0.778856 65.5583 0.699314 65.4834 0.631322C64.7725 0.516695 64.0503 0.416451 63.3233 0.332114C62.262 0.208334 61.1866 0.11964 60.109 0.0634155L60.3029 0H57.6028H56.2796L56.2236 0.0187414H56.2212C55.761 0.0326884 55.3005 0.0514298 54.8444 0.0797598C54.8561 0.215308 54.8631 0.346279 54.8607 0.47006C54.8561 1.0639 54.7042 1.54071 54.4493 1.93581C53.3438 3.65173 50.2883 3.79447 48.8574 5.11748C48.6495 5.30947 48.4764 5.52434 48.3477 5.77452C49.9189 5.43107 51.5387 5.1785 53.1801 5.01942C54.7208 4.86709 56.2822 4.79714 57.8439 4.80651Z" fill="white" fill-opacity="0.3"/>
<path d="M102.336 28.6843C102.161 28.2985 101.979 27.9152 101.789 27.5363C101.602 27.1529 101.408 26.7742 101.21 26.3978C101.011 26.0167 100.808 25.6403 100.597 25.2664C100.389 24.89 100.174 24.5182 99.9541 24.1491C99.732 23.7773 99.5078 23.4079 99.2764 23.0433C99.0447 22.6766 98.8087 22.3092 98.5657 21.9494C98.3225 21.5822 98.0747 21.2222 97.8198 20.8645C97.565 20.5021 97.3055 20.1447 97.0368 19.7917C97.039 19.7893 97.0368 19.7845 97.0298 19.7823C96.8121 19.4855 96.5876 19.1931 96.3588 18.9008C95.7135 19.0364 95.1923 19.1416 94.7457 19.2164C94.7434 19.2188 94.7412 19.2188 94.7388 19.2188C93.6398 19.4036 93.0019 19.408 92.0993 19.2491C91.8306 19.2001 91.536 19.1369 91.1993 19.0595H91.1969C90.8299 18.9756 90.4091 18.8749 89.9111 18.7557C90.0842 18.9405 90.2572 19.1251 90.4278 19.3145C90.4302 19.3145 90.4302 19.3145 90.4302 19.3169C90.7386 19.6535 91.0428 19.997 91.3394 20.3455C91.6338 20.6869 91.9237 21.035 92.2067 21.3882C92.2067 21.3882 92.2091 21.3882 92.2091 21.3902C92.2091 21.3902 92.2113 21.3902 92.2113 21.3926C92.4922 21.7386 92.7657 22.0891 93.0342 22.4469C93.1065 22.5426 93.1791 22.6384 93.2517 22.7343C93.4456 22.9939 93.6352 23.2558 93.8222 23.5175C94.0769 23.8754 94.3245 24.2352 94.5679 24.6C94.8111 24.9624 95.0474 25.3272 95.2786 25.6963C95.5074 26.0611 95.7297 26.4303 95.9496 26.8043C96.1668 27.1736 96.3795 27.5478 96.5855 27.9266C96.791 28.3007 96.9921 28.6795 97.1837 29.0602C97.3778 29.4368 97.5672 29.8177 97.747 30.2034C97.932 30.5846 98.1072 30.9703 98.2781 31.3584C98.2826 31.3654 98.285 31.3724 98.2896 31.3817C98.4485 31.7439 98.6052 32.1111 98.7547 32.4805C98.7873 32.4081 98.8181 32.3425 98.8366 32.2979C98.9957 31.9287 99.6972 31.2976 100.52 30.6266C100.524 30.622 100.531 30.6172 100.538 30.6127C101.188 30.0796 101.913 29.5257 102.507 29.0556V28.6278L102.336 28.6841L102.336 28.6843Z" fill="white" fill-opacity="0.3"/>
<path d="M95.9605 34.7858C95.811 34.3907 95.6567 33.998 95.4952 33.6099C95.3386 33.2311 95.1771 32.8548 95.0088 32.4806C95.0043 32.4689 94.9973 32.4573 94.9925 32.4455C94.9855 32.4316 94.9809 32.4176 94.9738 32.4037C94.9668 32.385 94.9574 32.3686 94.9504 32.3496C94.7892 31.9944 94.6233 31.6414 94.4527 31.2929C94.4457 31.279 94.4388 31.2674 94.4318 31.2533C94.2518 30.8839 94.0672 30.5171 93.8754 30.1547H93.873C93.8685 30.143 93.8637 30.1314 93.8567 30.122C93.6625 29.7527 93.4616 29.3879 93.258 29.0281L93.2561 29.0257C93.2487 29.0139 93.2419 29.0024 93.2373 28.9906C93.0294 28.6284 92.8189 28.2708 92.6015 27.9154V27.913C92.3746 27.5412 92.141 27.1742 91.9048 26.812C91.6639 26.4472 91.4188 26.085 91.1662 25.7272H91.1638C91.0893 25.615 91.0073 25.5003 90.9278 25.3881C90.9278 25.3881 90.9278 25.3859 90.9254 25.3859L90.3878 24.6517H90.3854C90.1189 24.2939 89.843 23.9411 89.5649 23.595H89.5625C89.2821 23.2422 88.9922 22.8938 88.6976 22.5499C88.3984 22.2038 88.0944 21.8604 87.7836 21.5239C87.4705 21.18 87.1477 20.8414 86.8202 20.5092C86.7993 20.4859 86.7759 20.4624 86.7526 20.4389C85.8687 20.4463 85.0812 21.2175 83.7557 21.2925C83.4681 21.3088 83.1547 21.2925 82.8089 21.229C82.4558 21.1475 82.1218 21.0116 81.806 20.8363C81.3643 20.5931 80.9598 20.2706 80.595 19.9082C80.2675 19.5855 79.973 19.2303 79.7113 18.8679C79.4681 18.5362 79.2532 18.2017 79.0682 17.8815C79.0473 17.844 79.0264 17.8092 79.0052 17.7717C78.7599 17.3365 78.5659 16.9395 78.4325 16.6307C78.3088 16.3502 78.234 16.1443 78.2083 16.0534C78.0564 15.8498 77.9045 15.6722 77.757 15.5203C77.2893 15.0389 76.8358 14.7907 76.3895 14.6436C75.6133 14.3865 74.8488 14.4307 74.0423 14.0895C73.6332 13.9142 73.2124 13.6408 72.7729 13.1779C72.7565 13.1591 72.7378 13.1382 72.7169 13.1193C72.4713 12.8503 72.2187 12.5206 71.9594 12.1162C71.751 11.7936 71.541 11.4243 71.3235 10.9965C71.2485 10.847 71.1692 10.6881 71.0918 10.5218C70.7085 10.3819 70.323 10.2507 69.9322 10.1244C69.2286 9.89553 68.5107 9.6896 67.7864 9.5048H67.784C66.9914 9.2993 66.1896 9.12147 65.3781 8.96958C64.7448 8.84798 64.1089 8.74272 63.466 8.65621H63.4636C63.1856 8.61654 62.9073 8.57884 62.6268 8.54855H62.6244C61.9791 8.47162 61.3315 8.41061 60.6819 8.36855H60.6773C60.2447 8.33368 59.8075 8.31036 59.3728 8.29402C58.6153 8.26329 57.8554 8.25632 57.0981 8.26591H57.0911C56.4692 8.27528 55.8499 8.2962 55.2303 8.3339H55.2279C53.4466 8.43676 51.6721 8.64945 49.9328 8.9698C49.9258 8.97176 49.9189 8.97176 49.9119 8.97437C49.3298 9.08442 48.7523 9.20363 48.1796 9.33656C48.1772 9.33656 48.1748 9.33656 48.1724 9.33896C48.1703 9.33896 48.1679 9.33896 48.1657 9.34135C48.1633 9.34135 48.1609 9.34135 48.1583 9.34332C48.1563 9.34332 48.1513 9.34571 48.1491 9.34571C46.059 9.82972 44.0345 10.4678 42.1107 11.2722C41.8769 11.3704 41.6454 11.4687 41.4164 11.5714C41.4118 11.5738 41.4094 11.5738 41.4048 11.5759C41.4024 11.5759 41.4024 11.5783 41.4 11.5783C41.1616 11.686 40.9187 11.7932 40.6848 11.9054C40.7291 12.3238 40.7572 12.6934 40.7711 13.0205C40.7735 13.0532 40.7757 13.0861 40.7757 13.1164C40.7944 13.6262 40.7805 14.0282 40.7454 14.351C40.7408 14.3882 40.7362 14.4259 40.7315 14.4608C40.6332 15.1854 40.4207 15.4754 40.2568 15.6951C39.9694 16.1253 35.0833 16.6278 34.4357 17.418C34.2792 17.6215 34.1343 17.7689 34.0009 17.8811C33.9286 17.9441 33.8584 17.9933 33.793 18.0354L33.1828 18.2712C33.1804 18.2712 33.1759 18.2736 33.1711 18.2736C33.0588 18.3039 32.9516 18.3392 32.844 18.3998L32.8416 18.4022C32.5635 18.5634 32.283 18.9143 31.9206 19.8773C31.8995 19.9402 31.862 20.0058 31.8106 20.0738V20.076C31.2193 20.8873 28.8721 22.0421 28.5426 22.3065C28.4979 22.3413 28.428 22.4281 28.3321 22.5542V22.5566C28.061 22.919 27.6005 23.5992 27.0699 24.3028V24.3052C26.8197 24.635 26.5532 24.9714 26.2843 25.2822C25.9685 25.6424 25.6508 25.9671 25.3468 26.2057C25.0499 26.4396 24.7671 26.5939 24.5169 26.6194C23.1518 26.7623 23.0069 27.267 22.9346 27.6249C22.9228 27.6948 22.8409 27.7441 22.7147 27.7789C22.5558 28.0385 22.3991 28.298 22.2446 28.5621C21.9293 29.0976 21.6277 29.64 21.3378 30.1916V30.194C21.3261 30.2125 21.3167 30.2312 21.3076 30.2502C21.041 30.7549 20.7861 31.2694 20.5407 31.7883C20.2975 32.3026 20.066 32.8236 19.844 33.3499C19.6315 33.8548 19.428 34.3646 19.2364 34.881H19.234C19.1477 35.1103 19.0634 35.3417 18.9814 35.5753V38.9579L23.3135 37.5225C23.3135 37.5225 23.3157 37.5249 23.3181 37.5225C23.3369 37.5273 23.3578 37.5319 23.3791 37.5343C23.3837 37.5225 23.3861 37.5109 23.3907 37.4992C23.5659 36.9894 23.7531 36.4845 23.952 35.9844C24.1552 35.4631 24.3726 34.949 24.6019 34.4391C24.8403 33.9037 25.0953 33.3754 25.3594 32.8541H25.3618C25.6399 32.3048 25.9321 31.7645 26.2359 31.2341H26.2383L26.2849 31.2178V31.1498C26.5865 30.6309 26.8999 30.1188 27.2246 29.6186C27.234 29.5999 27.2457 29.5838 27.2599 29.5674V29.565C27.6247 29.0017 28.0035 28.4499 28.4005 27.9097C28.4005 27.9051 28.4029 27.9027 28.4079 27.9003C28.4219 27.8794 28.4358 27.8585 28.4522 27.8397C28.9009 27.2248 29.3709 26.6266 29.8573 26.0445C29.8593 26.0445 29.8593 26.0421 29.8593 26.0421C30.2568 25.5675 30.6658 25.1046 31.0844 24.6513C31.2411 24.4831 31.3954 24.3168 31.5545 24.1531L31.5569 24.151H31.5593C32.0429 23.6458 32.5432 23.155 33.0575 22.678C33.2589 22.4913 33.4644 22.3043 33.6725 22.1221C33.6725 22.1221 33.6725 22.1197 33.6749 22.1197C34.5819 21.3177 35.5312 20.5581 36.5175 19.8498V19.8474C37.4946 19.1437 38.5093 18.4869 39.5566 17.8813C40.1269 17.5492 40.7046 17.236 41.2935 16.9392C41.2935 16.9368 41.2959 16.9368 41.2959 16.9368C44.4612 15.3286 47.8954 14.1736 51.5117 13.5566H51.5186C53.3326 13.2457 55.1915 13.0702 57.085 13.0445C57.2605 13.0421 57.4381 13.0399 57.6157 13.0399C58.6606 13.0399 59.6938 13.0842 60.7178 13.1731C61.6996 13.2548 62.67 13.379 63.6284 13.5425C64.4676 13.6804 65.2972 13.851 66.1155 14.0498C66.8122 14.2159 67.5018 14.405 68.1799 14.6155C68.2242 14.6273 68.2664 14.6388 68.3085 14.6552C68.9771 14.8611 69.6363 15.0854 70.2885 15.3307C70.8965 15.56 71.4971 15.8032 72.0908 16.0649C72.6545 16.3105 73.2085 16.5701 73.7555 16.8436H73.7579C74.2792 17.1053 74.7934 17.3788 75.2984 17.6664C75.4248 17.734 75.5509 17.8066 75.6771 17.8813C76.0374 18.0868 76.3902 18.2997 76.7408 18.5218C77.1969 18.8047 77.6456 19.0993 78.0874 19.4057C78.5151 19.7001 78.9383 20.0039 79.352 20.3175C79.7564 20.6189 80.1539 20.932 80.542 21.2548C80.923 21.5657 81.2945 21.8861 81.6617 22.2132L81.6639 22.2156C82.0241 22.5337 82.3746 22.8609 82.7206 23.1949V23.1973C83.0597 23.5225 83.394 23.8544 83.7167 24.1954H83.7187V24.1978C84.0414 24.5319 84.3546 24.871 84.6608 25.217C84.8761 25.4602 85.0886 25.7058 85.2969 25.9536V25.956C85.3832 26.0543 85.4651 26.1521 85.5466 26.2528C85.8319 26.5989 86.1104 26.9517 86.3815 27.3095C86.6526 27.6599 86.9145 28.0154 87.1693 28.3778C87.4219 28.7356 87.6694 29.1004 87.9102 29.4672H87.9126C88.1438 29.825 88.3731 30.1874 88.5928 30.5544C88.5976 30.5592 88.6002 30.5638 88.6021 30.5683C88.8244 30.9355 89.0393 31.3049 89.2452 31.6811C89.2452 31.6811 89.2498 31.6835 89.2474 31.6859C89.4553 32.0528 89.6543 32.4246 89.846 32.8007C89.8484 32.8055 89.8506 32.8101 89.853 32.8149C90.0426 33.1863 90.2272 33.563 90.4024 33.9438C90.407 33.9485 90.4094 33.9555 90.4118 33.9625C90.5915 34.346 90.7646 34.7318 90.9285 35.1221C91.0943 35.5102 91.2508 35.9007 91.4031 36.2934C91.555 36.6885 91.6975 37.086 91.8331 37.4857C91.9734 37.8831 92.102 38.2828 92.226 38.6849C92.3476 39.087 92.462 39.4914 92.5694 39.9005H92.5718C92.6792 40.3073 92.7819 40.7188 92.8756 41.1324C92.9715 41.5438 93.058 41.9579 93.1373 42.3763C93.1421 42.395 93.1445 42.4159 93.1491 42.4349C94.0633 42.5166 94.6685 42.5774 94.6685 42.5774C94.58 42.3602 94.5353 42.1427 94.5283 41.9158C94.512 41.4856 94.6288 41.0254 94.8461 40.4803C95.0263 40.0247 95.2786 39.508 95.5802 38.9048C95.8165 38.4323 96.0806 37.9086 96.3658 37.315H96.3678C96.4567 37.1304 96.548 36.9363 96.6417 36.7377C96.5598 36.4828 96.4757 36.2306 96.3892 35.9778C96.2536 35.5782 96.1109 35.1807 95.9614 34.7856L95.9605 34.7858Z" fill="white" fill-opacity="0.3"/>
<path d="M86.0862 93.9545C84.148 95.1933 82.1261 96.3087 80.0266 97.2904L80.0242 97.2928C79.1684 97.6925 78.3013 98.0688 77.4222 98.4243C74.4838 99.612 71.4165 100.54 68.249 101.188C67.9661 101.246 67.6833 101.3 67.4004 101.354C67.4401 101.377 67.4797 101.403 67.522 101.428C67.8983 101.667 68.3144 101.989 68.7376 102.356C69.093 102.658 69.4528 102.992 69.8012 103.333C70.1447 103.668 70.4792 104.011 70.7878 104.338C70.7924 104.343 70.7993 104.35 70.8039 104.357C71.1338 104.708 71.4328 105.04 71.6808 105.328H71.8234L72.3141 105.164H72.3187C74.633 104.554 76.8914 103.806 79.0819 102.927C79.0843 102.927 79.0843 102.924 79.0867 102.924C80.1386 102.501 81.1766 102.05 82.1984 101.568C82.0298 101.325 81.892 101.129 81.8029 101.012C81.7517 100.945 81.7 100.856 81.651 100.746C81.651 100.746 81.6488 100.743 81.651 100.741C81.5155 100.442 81.3987 100.004 81.3076 99.5276C81.242 99.1678 81.1884 98.7845 81.1579 98.4243C81.1533 98.3661 81.1487 98.3075 81.1463 98.2515C81.1043 97.6622 81.1254 97.1481 81.2282 96.9165C81.2328 96.9073 81.2398 96.8979 81.247 96.8886V96.8862C81.9154 95.8811 86.154 95.2943 86.3784 93.8588L86.3878 93.8564V93.854V93.7631C86.2895 93.8261 86.1912 93.8893 86.0908 93.9523C86.0908 93.9547 86.0886 93.9547 86.0862 93.9547V93.9545Z" fill="white" fill-opacity="0.3"/>
<path d="M85.4297 106.151C85.3946 106.02 85.3598 105.886 85.3245 105.748C84.1625 106.321 82.9822 106.856 81.7804 107.357C81.778 107.357 81.778 107.359 81.7758 107.359L78.5566 108.423V108.598C79.188 108.792 79.8119 108.977 80.4081 109.143C81.2543 109.379 82.0351 109.58 82.6734 109.723C83.48 109.9 84.0572 109.984 84.2468 109.926C84.8734 109.563 85.2567 109.194 85.4739 108.797C85.7056 108.367 85.7455 107.908 85.6869 107.396C85.6446 107.013 85.5443 106.601 85.4297 106.15V106.151Z" fill="white" fill-opacity="0.3"/>
<path d="M96.5557 42.5776H96.642V42.5473C96.6396 42.5495 96.635 42.5518 96.6256 42.5518L96.5557 42.5776Z" fill="white" fill-opacity="0.3"/>
<path d="M86.998 31.0992C87.0148 31.092 87.0316 31.0871 87.0486 31.0824L86.998 31.0967V31.0992Z" fill="white" fill-opacity="0.3"/>
<path d="M45.1899 90.186C45.2505 90.165 45.3115 90.1439 45.3747 90.1204L45.1875 90.1814V90.1836L45.1899 90.186Z" fill="white" fill-opacity="0.3"/>
<path d="M22.7894 58.9934C22.6747 58.589 22.5673 58.1823 22.469 57.7709C22.4294 57.6118 22.3917 57.4503 22.3544 57.2914C22.3217 57.4224 22.2775 57.5068 22.2165 57.5277C21.7863 57.6702 21.2813 57.4553 21.2813 57.4553C21.3047 57.6868 21.3023 57.9273 21.2768 58.166C21.2251 58.6709 21.0732 59.1758 20.856 59.6339C20.711 59.9401 20.5378 60.2232 20.3486 60.4688C20.3486 60.4688 20.83 60.5834 21.5152 60.7468C22.0855 60.8828 22.7987 61.051 23.493 61.2145C23.3736 60.8804 23.2614 60.5437 23.154 60.2049C23.0254 59.8047 22.9038 59.4007 22.7892 58.9939L22.7894 58.9934Z" fill="white" fill-opacity="0.3"/>
<path d="M5.04706 135.754V122.525H0V119.944H13.1132V122.525H8.04311V135.754H5.04706Z" fill="white" fill-opacity="0.3"/>
<path d="M11.9834 135.754L16.3162 129.508L12.283 123.631H15.6937L18.0906 127.388H18.229L20.6719 123.631H23.8752L19.8191 129.439L24.1057 135.754H20.7409L18.0445 131.559H17.9063L15.1869 135.754H11.9834Z" fill="white" fill-opacity="0.3"/>
<path d="M24.8438 135.754V119.944H37.1734V122.502H27.8398V126.397H36.1594V128.955H27.8398V133.196H37.3117V135.754H24.8438Z" fill="white" fill-opacity="0.3"/>
<path d="M46.9258 136.883C46.05 136.883 45.2125 136.787 44.4138 136.595C43.6147 136.403 42.9079 136.104 42.2936 135.696C41.6789 135.289 41.1949 134.783 40.8415 134.175C40.4879 133.569 40.3115 132.85 40.3115 132.021C40.3115 131.928 40.3151 131.836 40.323 131.744C40.3306 131.652 40.3347 131.583 40.3347 131.537H43.3537C43.3537 131.567 43.3497 131.625 43.3422 131.709C43.3341 131.794 43.3305 131.867 43.3305 131.928C43.3305 132.435 43.4764 132.87 43.7684 133.23C44.0601 133.592 44.4828 133.868 45.036 134.06C45.5889 134.252 46.2419 134.348 46.9949 134.348C47.5018 134.348 47.9511 134.317 48.343 134.256C48.7348 134.195 49.0725 134.106 49.3571 133.991C49.6411 133.876 49.8757 133.737 50.0598 133.576C50.2443 133.415 50.3785 133.234 50.4632 133.034C50.5475 132.835 50.5901 132.62 50.5901 132.389C50.5901 131.944 50.4516 131.575 50.1751 131.283C49.8985 130.991 49.5259 130.745 49.0574 130.545C48.5885 130.346 48.0584 130.165 47.4671 130.004C46.8755 129.842 46.2688 129.678 45.6465 129.508C45.0243 129.339 44.4172 129.136 43.8259 128.898C43.2342 128.66 42.704 128.371 42.2356 128.033C41.7668 127.696 41.3944 127.269 41.1179 126.754C40.8413 126.24 40.7031 125.621 40.7031 124.899C40.7031 124.162 40.8603 123.516 41.1755 122.963C41.4901 122.41 41.9361 121.953 42.5121 121.592C43.0882 121.231 43.7603 120.962 44.5287 120.785C45.2968 120.609 46.134 120.521 47.0407 120.521C47.8856 120.521 48.6806 120.609 49.4259 120.785C50.171 120.962 50.8278 121.239 51.3963 121.615C51.9645 121.992 52.4104 122.468 52.7332 123.044C53.0558 123.62 53.2172 124.308 53.2172 125.106V125.383H50.2443V125.153C50.2443 124.707 50.1096 124.331 49.841 124.023C49.5719 123.716 49.1957 123.478 48.7116 123.309C48.2276 123.14 47.6631 123.056 47.0178 123.056C46.3265 123.056 45.7348 123.121 45.2433 123.251C44.7515 123.382 44.3751 123.574 44.1141 123.828C43.8526 124.081 43.7222 124.392 43.7222 124.761C43.7222 125.145 43.8604 125.468 44.137 125.729C44.4135 125.99 44.7859 126.213 45.2547 126.397C45.7232 126.582 46.2532 126.751 46.8449 126.904C47.4363 127.058 48.0433 127.223 48.6655 127.4C49.2878 127.577 49.8945 127.78 50.4862 128.01C51.0774 128.241 51.6075 128.529 52.0765 128.875C52.5449 129.22 52.9176 129.647 53.1942 130.154C53.4706 130.661 53.6089 131.268 53.6089 131.974C53.6089 133.158 53.3209 134.11 52.7447 134.832C52.1686 135.554 51.3771 136.077 50.3709 136.399C49.3645 136.722 48.2161 136.883 46.9255 136.883L46.9258 136.883Z" fill="white" fill-opacity="0.3"/>
<path d="M58.7485 136.883C57.5807 136.883 56.6318 136.564 55.9023 135.927C55.1723 135.289 54.8076 134.202 54.8076 132.666V124.484H57.6192V132.159C57.6192 132.589 57.669 132.946 57.7691 133.23C57.8688 133.515 58.0146 133.745 58.207 133.922C58.3989 134.098 58.6332 134.225 58.9097 134.302C59.1863 134.379 59.4934 134.417 59.8316 134.417C60.3388 134.417 60.7957 134.294 61.2028 134.048C61.6097 133.803 61.9324 133.461 62.1707 133.023C62.4088 132.585 62.5279 132.089 62.5279 131.536V124.484H65.3395V136.606H63.0119L62.7816 134.993H62.6201C62.3437 135.362 62.0171 135.689 61.6407 135.973C61.2642 136.257 60.8341 136.48 60.3501 136.641C59.8661 136.802 59.3321 136.883 58.7484 136.883L58.7485 136.883Z" fill="white" fill-opacity="0.3"/>
<path d="M67.0908 136.607V124.484H69.4416L69.6721 126.098H69.8333C70.0944 125.729 70.3941 125.403 70.7321 125.118C71.0699 124.834 71.458 124.611 71.8959 124.45C72.3338 124.288 72.8139 124.208 73.3364 124.208C74.0428 124.208 74.673 124.354 75.2261 124.646C75.7793 124.938 76.2092 125.422 76.5167 126.098H76.678C76.9391 125.729 77.2463 125.403 77.5999 125.118C77.9531 124.834 78.3604 124.611 78.8215 124.45C79.2823 124.289 79.7813 124.208 80.3194 124.208C81.0414 124.208 81.6792 124.339 82.2323 124.6C82.7855 124.861 83.2234 125.291 83.5459 125.89C83.8687 126.49 84.03 127.289 84.03 128.287V136.607H81.2184V128.863C81.2184 128.448 81.1721 128.099 81.0799 127.815C80.9878 127.531 80.8609 127.308 80.6998 127.146C80.5384 126.985 80.3385 126.866 80.1004 126.789C79.8622 126.712 79.605 126.674 79.3284 126.674C78.8826 126.674 78.4832 126.797 78.13 127.043C77.7765 127.289 77.4964 127.627 77.2888 128.057C77.0814 128.487 76.9778 128.986 76.9778 129.555V136.607H74.1661V128.863C74.1661 128.448 74.1202 128.099 74.0279 127.815C73.9358 127.531 73.8089 127.308 73.6477 127.146C73.4865 126.985 73.2864 126.866 73.0486 126.789C72.8102 126.712 72.5529 126.674 72.2765 126.674C71.8306 126.674 71.4273 126.797 71.0665 127.043C70.7053 127.289 70.4212 127.627 70.2139 128.057C70.0065 128.487 69.9028 128.986 69.9028 129.555V136.607H67.0912L67.0908 136.607Z" fill="white" fill-opacity="0.3"/>
<path d="M85.6895 136.607V124.484H88.0403L88.2708 126.098H88.4319C88.6931 125.729 88.9928 125.403 89.3308 125.118C89.6685 124.834 90.0567 124.611 90.4946 124.45C90.9325 124.289 91.4125 124.208 91.9348 124.208C92.6414 124.208 93.2716 124.354 93.8246 124.646C94.3778 124.938 94.8077 125.422 95.1153 126.098H95.2766C95.5378 125.729 95.8448 125.403 96.1985 125.118C96.5518 124.834 96.959 124.611 97.4199 124.45C97.8807 124.289 98.3799 124.208 98.9179 124.208C99.6399 124.208 100.278 124.339 100.831 124.6C101.384 124.861 101.822 125.291 102.144 125.89C102.467 126.49 102.628 127.289 102.628 128.287V136.607H99.8167V128.863C99.8167 128.449 99.7707 128.099 99.6783 127.815C99.5864 127.531 99.4595 127.308 99.2982 127.146C99.1368 126.985 98.937 126.866 98.6989 126.789C98.4606 126.713 98.2035 126.674 97.9269 126.674C97.4811 126.674 97.0816 126.797 96.7285 127.043C96.3749 127.289 96.0947 127.627 95.8873 128.057C95.6801 128.487 95.5761 128.986 95.5761 129.555V136.607H92.7645V128.863C92.7645 128.449 92.7185 128.099 92.6263 127.815C92.5342 127.531 92.4073 127.308 92.2461 127.146C92.0846 126.985 91.8849 126.866 91.647 126.789C91.4084 126.713 91.1513 126.674 90.8749 126.674C90.429 126.674 90.0257 126.797 89.6649 127.043C89.3037 127.289 89.0197 127.627 88.8123 128.057C88.6049 128.487 88.5011 128.986 88.5011 129.555V136.607H85.6895V136.607Z" fill="white" fill-opacity="0.3"/>
<path d="M104.287 124.484H107.099V136.607H104.287V124.484ZM104.287 119.944H107.099V122.617H104.287V119.944Z" fill="white" fill-opacity="0.3"/>
<path d="M112.054 136.883C111.301 136.883 110.71 136.734 110.28 136.434C109.849 136.134 109.546 135.751 109.369 135.282C109.192 134.813 109.104 134.333 109.104 133.841V126.789H107.652V124.484H109.173L109.68 121.097H111.916V124.484H114.013V126.789H111.916V133.565C111.916 133.887 112 134.137 112.169 134.314C112.338 134.49 112.592 134.579 112.93 134.579H114.013V136.515C113.859 136.576 113.671 136.633 113.448 136.687C113.226 136.741 112.991 136.787 112.745 136.826C112.499 136.864 112.269 136.883 112.054 136.883L112.054 136.883Z" fill="white" fill-opacity="0.3"/>
</svg>
