<svg width="464" height="800" viewBox="0 0 464 800" fill="none" xmlns="http://www.w3.org/2000/svg">
<path d="M17.8546 628.452V628.47C21.8847 630.444 25.9603 632.317 30.0905 634.054C34.4711 635.927 38.9174 637.661 43.4154 639.262H43.4326C48.2497 640.998 53.1325 642.598 58.0669 644.045C62.5492 645.356 67.0456 646.549 71.5936 647.638H71.6108C72.3837 647.825 73.1534 647.995 73.9278 648.184H73.945C74.078 648.217 74.2126 648.235 74.3487 648.268H74.38C79.0125 649.323 83.695 650.26 88.3947 651.061H88.4104C89.6182 651.282 90.862 651.485 92.087 651.689H92.1042C92.3217 651.723 92.5219 651.758 92.7409 651.791C97.5909 652.557 102.458 653.188 107.358 653.698C109.237 653.902 111.135 654.071 113.014 654.225H113.031C113.4 654.276 113.737 654.294 114.089 654.309H114.104C122.177 654.992 130.25 655.314 138.374 655.314C137.971 655.45 137.569 655.587 137.167 655.722H138.811L140.003 655.314H140.053C151.951 655.246 163.868 654.479 175.699 653.015L175.716 653.032L175.733 653.015H175.75C216.901 647.994 257.064 634.714 292.057 613.981C299.593 609.521 306.894 604.703 313.908 599.545C313.908 599.528 313.925 599.528 313.925 599.528C315.989 598.028 318.004 596.499 320.017 594.916L320.033 594.899H320.05C323.91 591.885 327.687 588.77 331.346 585.535C333.747 583.424 336.113 581.263 338.427 579.051L338.444 579.033C338.629 578.846 338.796 578.693 339 578.506C341.634 575.969 344.217 573.384 346.736 570.727C345.846 569.686 345.074 568.548 344.402 567.339C344.352 567.271 344.302 567.185 344.269 567.101C342.858 564.546 341.867 561.704 341.198 558.724C341.18 558.64 341.163 558.554 341.13 558.453C340.492 555.488 340.173 552.427 340.073 549.431V549.414C339.955 545.957 340.14 542.587 340.476 539.591C341.046 534.638 342.022 530.739 342.761 529.141C342.775 529.055 342.828 528.969 342.861 528.903C343.246 527.522 346.118 523.114 349.841 517.069C349.926 516.95 349.993 516.831 350.059 516.712C352.207 513.238 354.626 509.222 356.993 504.968C357.06 504.849 357.126 504.73 357.177 504.625C358.133 502.906 359.074 501.151 359.997 499.383C358.97 501.188 357.916 502.973 356.825 504.73C356.758 504.849 356.691 504.983 356.591 505.102C354.072 509.24 351.403 513.273 348.617 517.188C348.534 517.325 348.449 517.444 348.349 517.564V517.582C345.143 522.074 341.786 526.434 338.28 530.637C336.182 533.157 334.035 535.625 331.837 538.026C329.807 540.256 327.74 542.436 325.626 544.564L325.609 544.58C323.595 546.64 321.548 548.631 319.432 550.608C316.044 553.808 312.552 556.872 308.978 559.851L308.961 559.868H308.928C301.073 566.389 292.833 572.397 284.206 577.843C284.206 577.843 284.206 577.86 284.189 577.86C284.021 577.997 283.854 578.098 283.669 578.202C283.669 578.219 283.654 578.219 283.654 578.219C279.606 580.774 275.462 583.224 271.268 585.538C265.443 588.773 259.484 591.787 253.409 594.563H253.395C226.171 606.99 196.7 614.854 166.742 617.884H166.726C165.886 617.969 165.063 618.053 164.225 618.122H164.207C163.638 618.19 163.1 618.241 162.546 618.274H162.529C152.358 619.177 142.138 619.502 131.95 619.264H131.933C123.878 619.077 115.855 618.531 107.884 617.646H107.867C101.188 616.897 94.5401 615.892 87.9614 614.634H87.9442C82.1211 613.543 76.3481 612.249 70.6424 610.752H70.6252C65.456 609.408 60.337 607.891 55.2852 606.223H55.268C50.6027 604.69 46.0062 603.006 41.4378 601.185C41.4222 601.185 41.4222 601.167 41.4222 601.167C37.2935 599.533 33.1976 597.762 29.1706 595.891C29.0533 595.84 28.9359 595.772 28.7998 595.721C24.9058 593.899 21.0461 591.976 17.2538 589.934C17.2366 589.916 17.2366 589.916 17.2194 589.916C15.2059 588.826 13.208 587.72 11.2446 586.58C9.70195 585.695 8.15779 584.792 6.64806 583.856H6.63084C6.59799 583.838 6.56358 583.822 6.54794 583.805C3.22337 581.778 -0.0652313 579.668 -3.28653 577.456C-3.30374 577.456 -3.32094 577.438 -3.33658 577.422C-6.37483 575.363 -9.37868 573.201 -12.3152 570.97C-12.3497 570.935 -12.3653 570.919 -12.3997 570.884H-12.4169C-12.4498 570.867 -12.467 570.851 -12.4998 570.816H-12.5171C-15.3535 568.655 -18.1399 566.424 -20.8746 564.11C-20.9247 564.075 -20.9763 564.042 -21.0264 563.991V563.973C-23.7283 561.726 -26.3613 559.376 -28.9631 556.958C-31.4819 554.627 -33.9335 552.208 -36.3319 549.74H-36.3491C-38.2453 547.803 -40.1242 545.808 -41.9547 543.783C-45.2605 546.064 -48.2831 547.749 -48.2831 547.749C-48.2831 547.749 -47.7637 549.859 -47.0393 553.317V553.333L-45.3105 562.44V562.458C-44.8396 565.3 -44.3531 568.415 -43.951 571.667V571.684C-43.951 571.735 -43.9353 571.8 -43.9353 571.87C-43.8336 572.722 -43.7335 573.573 -43.6334 574.442C-43.3471 577.096 -43.0624 579.174 -42.6931 580.79C-42.6931 580.841 -42.6759 580.875 -42.6759 580.926C-42.6431 581.012 -42.6259 581.114 -42.6102 581.198C-41.9735 583.803 -41.1318 585.079 -39.7394 585.538C-38.7991 585.846 -37.6257 585.795 -36.0972 585.538H-10.9228C-9.73225 586.372 -8.77478 587.428 -7.98627 588.67C-7.9362 588.739 -7.90335 588.789 -7.86893 588.858C-6.47496 591.087 -5.57068 593.913 -4.58035 597.233C-4.56314 597.284 -4.5475 597.335 -4.53029 597.403C-3.77463 599.99 -2.95171 602.868 -1.84404 606.001C-1.39191 607.31 -0.870926 608.654 -0.284241 610.035C0.604401 611.617 1.42734 612.996 2.16422 614.34H2.18141C3.42519 616.606 4.41553 618.768 5.06792 621.713C5.57326 622.003 6.07545 622.292 6.59644 622.563C7.95442 623.33 9.33275 624.081 10.7236 624.81C13.075 626.086 15.4577 627.297 17.8577 628.454L17.8546 628.452Z" fill="#CECAC9" fill-opacity="0.25"/>
<path d="M-46.7379 369.304C-46.9226 366.108 -47.0229 362.91 -47.0401 359.714V359.696C-47.073 356.448 -47.0229 353.216 -46.9054 349.987C-46.788 346.687 -46.6017 343.406 -46.3339 340.123V340.106C-46.0661 336.74 -45.7138 333.405 -45.2754 330.072C-44.8401 326.656 -44.3186 323.254 -43.6954 319.87C-43.0925 316.417 -42.4036 313.001 -41.6144 309.582C-41.5972 309.549 -41.5972 309.531 -41.5972 309.496V309.48C-40.7735 305.925 -39.8497 302.39 -38.8256 298.885V298.869C-37.7984 295.23 -36.6569 291.624 -35.4152 288.054C-34.103 284.296 -32.6937 280.605 -31.1639 276.952C-31.1639 276.934 -31.1466 276.934 -31.1466 276.934C-29.6199 273.211 -27.9538 269.554 -26.1922 265.948C-26.1249 265.795 -26.0576 265.659 -25.9746 265.524C-24.0737 261.647 -22.0443 257.854 -19.8584 254.13C-19.791 253.994 -19.7081 253.859 -19.6078 253.721V253.704C-17.2042 249.589 -14.6331 245.559 -11.9116 241.649C-11.8615 241.563 -11.8114 241.479 -11.7441 241.411V241.394H-11.7284C-9.56128 238.249 -7.25948 235.188 -4.87468 232.195C-3.8835 230.938 -2.87665 229.697 -1.81813 228.471L-1.8009 228.454C-1.8009 228.421 -1.76802 228.403 -1.71791 228.37V228.353C2.43161 223.421 6.88335 218.694 11.6201 214.223L13.889 213.457L11.6201 214.205C12.998 212.897 14.4089 211.604 15.8541 210.328C20.9103 205.858 26.2514 201.64 31.9136 197.745C31.9136 197.727 31.9292 197.727 31.9292 197.727L31.9637 197.712C57.8144 179.822 89.9975 168.038 128.533 165.367H128.583C132.598 165.096 136.68 164.909 140.846 164.84C146.238 164.943 151.495 165.216 156.653 165.641H156.67C163.792 166.253 170.697 167.172 177.382 168.378H177.399C178.641 168.599 179.853 168.837 181.077 169.076H181.094C185.698 170.011 190.217 171.065 194.617 172.289H194.65C195.322 172.459 196.012 172.665 196.682 172.852C201.065 174.093 205.334 175.486 209.501 176.983C209.801 177.101 210.103 177.22 210.407 177.325C214.555 178.87 218.589 180.521 222.519 182.306C222.637 182.358 222.754 182.409 222.871 182.459C226.734 184.228 230.48 186.099 234.125 188.088L234.143 188.106C237.719 190.06 241.197 192.118 244.574 194.277L244.588 194.294C247.831 196.352 250.957 198.528 254.013 200.79L253.946 200.825L254.046 200.807C257.002 202.984 259.874 205.246 262.647 207.592H262.663C263.739 208.494 264.796 209.412 265.839 210.329C267.434 211.742 268.995 213.187 270.524 214.631V214.649C272.724 216.74 274.86 218.881 276.942 221.094L277.26 222.063L277.712 221.91C279.98 224.341 282.164 226.842 284.281 229.392C286.364 231.891 288.362 234.443 290.311 237.045V237.06C292.209 239.612 294.057 242.231 295.803 244.882C295.82 244.882 295.82 244.9 295.82 244.9C295.903 245.035 295.988 245.154 296.071 245.29C297.718 247.788 299.314 250.323 300.825 252.891V252.908C300.925 253.044 301.009 253.179 301.077 253.334C302.589 255.866 304.016 258.436 305.375 261.037V261.054C305.477 261.224 305.579 261.393 305.646 261.563C307.005 264.129 308.3 266.715 309.509 269.351C309.609 269.538 309.694 269.708 309.761 269.896C310.97 272.499 312.13 275.133 313.203 277.785C314.379 280.609 315.47 283.467 316.511 286.356L315.285 286.783L316.511 286.374C317.553 289.248 318.511 292.155 319.418 295.079C320.309 298.004 321.148 300.946 321.921 303.925C322.407 305.795 322.878 307.699 323.317 309.585C323.567 310.69 323.802 311.779 324.037 312.885C324.693 315.911 325.265 318.938 325.767 321.998C326.289 325.059 326.741 328.136 327.129 331.214C327.497 334.326 327.818 337.454 328.07 340.584C328.321 343.747 328.506 346.928 328.606 350.09C328.723 353.304 328.774 356.518 328.741 359.715C328.723 362.979 328.623 366.243 328.42 369.493V369.51C328.269 372.825 328.017 376.141 327.681 379.439C327.345 382.824 326.924 386.191 326.422 389.54C325.919 392.992 325.33 396.41 324.641 399.812C323.952 403.329 323.179 406.817 322.288 410.286V410.304C321.381 413.889 320.39 417.428 319.281 420.966V420.981C318.157 424.656 316.912 428.295 315.569 431.898H315.555C314.159 435.69 312.63 439.433 310.968 443.123C309.288 446.932 307.473 450.69 305.525 454.381C305.475 454.482 305.425 454.583 305.358 454.685C303.308 458.613 301.089 462.457 298.756 466.215C298.706 466.317 298.639 466.418 298.571 466.504C298.538 466.572 298.504 466.605 298.471 466.656V466.673C295.833 470.907 293.011 475.04 290.022 479.036C289.972 479.104 289.92 479.172 289.87 479.239C288.796 480.686 287.704 482.097 286.577 483.49C284.09 486.602 281.488 489.645 278.784 492.621L278.766 492.638C278.766 492.638 278.749 492.656 278.733 492.671C276.667 494.935 274.517 497.162 272.315 499.321H272.301C270.201 501.395 268.05 503.401 265.85 505.357C265.043 506.055 264.256 506.752 263.449 507.431C263.449 507.448 263.432 507.448 263.432 507.448C263.23 507.618 263.047 507.789 262.845 507.943C262.156 508.537 261.45 509.116 260.745 509.694C253.44 515.68 245.526 521.139 237.027 525.967V525.985C236.438 526.443 235.868 526.682 235.279 527.141L235.262 527.158H235.246C235.229 527.158 235.229 527.158 235.212 527.175H235.196C235.179 527.175 235.179 527.19 235.162 527.19H235.146C235.129 527.19 235.129 527.19 235.112 527.207H235.095C235.08 527.207 235.08 527.224 235.062 527.224H235.044C235.03 527.224 235.03 527.24 235.012 527.24H234.994C234.977 527.24 234.977 527.258 234.961 527.258H234.944C234.927 527.258 234.927 527.275 234.911 527.275H234.894C234.877 527.275 234.877 527.293 234.86 527.293H234.846C234.828 527.293 234.828 527.309 234.811 527.309H234.797C234.78 527.309 234.78 527.326 234.763 527.326H234.745C234.73 527.326 234.73 527.343 234.712 527.343H234.695C234.68 527.343 234.68 527.359 234.662 527.359H234.645C234.63 527.359 234.63 527.377 234.612 527.377H234.595C234.578 527.377 234.578 527.394 234.562 527.394H234.545C234.528 527.394 234.528 527.412 234.51 527.412H234.495C234.478 527.412 234.478 527.426 234.46 527.426H234.445C234.428 527.426 234.427 527.443 234.41 527.443C216.52 537.238 196.062 544.362 173.08 548.052H173.047C171.889 548.239 170.697 548.41 169.521 548.578H169.504C160.348 549.889 150.79 550.653 140.847 550.842C139.27 550.807 137.706 550.773 136.143 550.705C135.573 550.688 135.036 550.672 134.463 550.637H134.43C133.827 550.62 133.239 550.586 132.65 550.553H132.633C125.478 550.177 118.573 549.499 111.854 548.529H111.837C111.334 548.461 110.831 548.393 110.343 548.326H110.325C109.251 548.156 108.177 547.968 107.119 547.781H107.101C102.432 547.015 97.8628 546.08 93.4095 545.026H93.3954C93.0243 544.94 92.672 544.856 92.3197 544.755H92.304C91.8327 544.652 91.3802 544.533 90.9104 544.398H90.8932C86.5276 543.309 82.259 542.084 78.1111 540.724H78.0939C77.9592 540.69 77.859 540.64 77.74 540.589H77.7227C77.3877 540.486 77.0338 540.367 76.6987 540.247C77.1199 540.112 77.5396 539.958 77.9576 539.823C77.5051 539.958 77.051 540.094 76.5984 540.215C72.297 538.785 68.1146 537.205 64.0512 535.504V535.488C63.7991 535.402 63.5455 535.283 63.2949 535.182C63.2777 535.182 63.2605 535.164 63.2448 535.164H63.2276C59.3474 533.514 55.5847 531.748 51.9049 529.894V529.876C48.1766 527.99 44.5469 525.966 41.0378 523.84H41.0206C37.6462 521.8 34.3861 519.674 31.2121 517.463V517.446C28.1555 515.304 25.1819 513.075 22.2929 510.764C20.5627 509.385 18.8653 507.974 17.2039 506.53C16.1626 505.628 15.1542 504.728 14.1474 503.809H14.1301C14.08 503.758 14.0299 503.707 13.9955 503.69C12.5502 502.365 11.1409 501.036 9.7614 499.678C8.72011 498.674 7.69603 497.654 6.70485 496.617H6.68762C6.04875 495.954 5.42868 495.307 4.78981 494.627C3.12688 492.858 1.4968 491.058 -0.114471 489.219C-2.26439 486.735 -4.34854 484.204 -6.34657 481.62C-8.31329 479.085 -10.2111 476.482 -12.0244 473.848C-13.8392 471.247 -15.5867 468.593 -17.2309 465.908C-18.8954 463.254 -20.4753 460.55 -21.9691 457.814C-23.4818 455.11 -24.9082 452.355 -26.2533 449.566C-27.6125 446.811 -28.9075 444.022 -30.1163 441.183C-31.3424 438.377 -32.4839 435.536 -33.5753 432.662V432.645C-34.6667 429.789 -35.6751 426.915 -36.6318 424.007C-37.5729 421.083 -38.4639 418.141 -39.3032 415.199C-40.1096 412.239 -40.8659 409.264 -41.5533 406.289C-42.2439 403.279 -42.8812 400.27 -43.4355 397.241C-44.007 394.181 -44.5097 391.12 -44.9293 388.042C-45.3646 384.948 -45.7357 381.854 -46.0379 378.74C-46.3401 375.595 -46.5766 372.449 -46.7269 369.302L-46.7379 369.304ZM-40.2865 492.979C-38.6236 495.239 -36.945 497.486 -35.1975 499.679C-34.947 500.019 -34.6776 500.359 -34.4083 500.699H-34.3911C-32.3586 503.265 -30.2431 505.785 -28.0916 508.266C-25.9088 510.783 -23.6587 513.248 -21.3553 515.681L-21.3412 515.697C-18.9877 518.164 -16.5873 520.578 -14.1336 522.96C-11.6157 525.373 -9.04454 527.755 -6.40764 530.051C-3.71906 532.413 -0.964737 534.727 1.84128 536.954C1.84128 536.954 1.84128 536.97 1.85851 536.97C4.74751 539.284 7.68665 541.511 10.6931 543.688H10.7103C12.843 545.219 15.0101 546.731 17.1945 548.194C18.1012 548.789 19.0078 549.385 19.916 549.981C20.0162 550.047 20.1164 550.116 20.2198 550.166V550.184C21.1937 550.812 22.1818 551.442 23.1918 552.072C25.4764 553.498 27.7954 554.877 30.1457 556.22C30.2459 556.288 30.3477 556.356 30.4667 556.425H30.4824C30.5669 556.475 30.6499 556.526 30.7345 556.577C34.1449 558.515 37.6039 560.368 41.1318 562.155C41.2837 562.223 41.4356 562.29 41.5875 562.375C45.4003 564.281 49.2962 566.1 53.228 567.784H53.2421C53.4097 567.852 53.5459 567.919 53.7135 568.004C57.7283 569.705 61.7917 571.32 65.9428 572.799H65.96C66.1276 572.867 66.3108 572.935 66.4955 572.986C66.6975 573.054 66.898 573.138 67.1015 573.189H67.1156C71.2479 574.67 75.4648 576.012 79.7145 577.236H79.7318C80.4881 577.458 81.2443 577.662 82.0147 577.881H82.032C86.3475 579.072 90.699 580.127 95.1179 581.044H95.1351C96.4441 581.318 97.772 581.589 99.0983 581.844H99.1155C103.599 582.694 108.135 583.407 112.721 583.986H112.754C114.938 584.274 117.14 584.512 119.356 584.734H119.39C124.212 585.195 129.081 585.499 133.987 585.636H134.02C136.27 585.704 138.556 585.737 140.839 585.737C142.15 585.823 143.461 585.873 144.77 585.907H144.787C149.188 586.06 153.606 585.992 158.075 585.737C167.412 585.195 176.853 583.798 186.36 581.657L186.443 581.64L186.497 581.624C199.463 578.664 212.465 574.276 225.197 568.665L225.214 568.648C236.603 563.632 247.773 557.647 258.507 550.845C261.078 549.212 263.596 547.545 266.117 545.826C266.117 545.81 266.133 545.81 266.133 545.81L267.663 544.756L267.696 544.739C275.171 539.57 282.36 533.976 289.247 528.057L289.668 527.702C295.194 522.922 300.504 517.94 305.542 512.754C305.575 512.736 305.607 512.7 305.607 512.686L305.641 512.668C309.739 508.45 313.669 504.132 317.399 499.678C317.65 499.389 317.885 499.101 318.121 498.811C318.188 498.743 318.256 498.657 318.306 498.587C321.801 494.406 325.109 490.119 328.218 485.749V485.733C328.318 485.597 328.418 485.478 328.52 485.34C328.52 485.34 328.52 485.326 328.536 485.326C329.527 483.896 330.518 482.468 331.492 481.022C333.206 478.47 334.852 475.904 336.431 473.318C338.817 469.39 341.05 465.412 343.117 461.4C345.048 457.606 346.845 453.781 348.475 449.922C348.492 449.853 348.525 449.803 348.56 449.734C350.072 446.128 351.449 442.489 352.673 438.835C353.866 435.28 354.927 431.708 355.832 428.105C356.688 424.653 357.427 421.167 358.014 417.681C358.584 414.33 359.006 410.947 359.291 407.581C359.594 404.298 359.729 401.034 359.743 397.753C359.743 394.554 359.626 391.358 359.375 388.178C359.123 385.084 358.736 381.99 358.232 378.893V378.877C357.729 375.848 357.091 372.855 356.334 369.848C355.578 366.906 354.704 363.964 353.699 361.039C352.708 358.183 351.582 355.326 350.339 352.486C349.13 349.697 347.767 346.925 346.291 344.17C344.828 341.448 343.25 338.744 341.537 336.059C339.857 333.423 338.042 330.805 336.094 328.203C335.507 327.386 334.885 326.587 334.262 325.787C333.49 324.241 333.053 322.013 332.87 319.616C332.6 316.284 332.87 312.576 333.509 309.72L333.894 309.583H333.523C333.961 307.662 334.564 306.131 335.288 305.4C335.94 304.739 340.798 304.67 347.7 304.96H347.717C351.345 305.096 355.545 305.332 359.997 305.622C359.695 304.124 359.359 302.645 359.023 301.166C358.349 298.156 357.61 295.181 356.788 292.239C356.016 289.263 355.161 286.304 354.238 283.413C353.329 280.455 352.355 277.564 351.331 274.69C350.29 271.8 349.181 268.942 348.021 266.136V266.119C346.912 263.349 345.737 260.609 344.476 257.923C344.459 257.839 344.426 257.754 344.376 257.67H344.359C343.117 254.915 341.805 252.211 340.428 249.559C340.411 249.491 340.378 249.422 340.328 249.356C338.948 246.634 337.506 243.981 336.009 241.362C335.976 241.294 335.942 241.226 335.892 241.157C334.483 238.659 333.02 236.21 331.49 233.794V232.927L331.038 233.079C329.34 230.393 327.596 227.758 325.781 225.19C325.781 225.173 325.764 225.173 325.764 225.173C323.916 222.519 322.018 219.935 320.053 217.402C318.054 214.8 316.006 212.266 313.873 209.8H313.856C311.723 207.249 309.487 204.767 307.204 202.351C304.869 199.853 302.467 197.422 300.015 195.076C297.497 192.642 294.909 190.279 292.289 187.985H292.272C289.533 185.603 286.762 183.307 283.923 181.115V181.098H283.905C280.984 178.786 277.993 176.559 274.936 174.432C272.55 172.749 270.115 171.1 267.646 169.534C266.856 169.008 266.052 168.497 265.228 168.003C263.413 166.847 261.583 165.742 259.735 164.669C258.088 163.701 256.407 162.748 254.746 161.83C251.001 159.773 247.203 157.815 243.34 155.981H243.323C239.242 154.007 235.11 152.172 230.912 150.454H230.895C226.395 148.616 221.825 146.915 217.205 145.37C212.166 143.669 207.075 142.139 201.936 140.795H201.919C197.082 139.502 192.193 138.379 187.272 137.409C186.398 137.224 185.526 137.053 184.652 136.901H184.635C179.442 135.915 174.22 135.117 168.964 134.486H168.946C167.451 134.301 165.94 134.146 164.445 133.995H164.427C158.347 133.364 152.233 132.974 146.118 132.822C143.85 132.754 141.582 132.719 139.331 132.719H139.317C138.829 132.719 138.34 132.719 137.855 132.736H137.838C125.694 132.804 113.564 133.79 101.588 135.678C76.1052 139.69 51.3286 147.836 28.619 160.113L28.4687 160.164L28.4515 160.182C25.6799 161.662 22.9444 163.225 20.237 164.84C12.998 169.176 6.00961 173.974 -0.709488 179.21C-1.0117 179.43 -1.29669 179.654 -1.60046 179.907L-1.61612 179.925L-1.65057 179.942C-1.70068 179.975 -1.73355 180.01 -1.78366 180.044L-1.8009 180.061C-7.7997 184.788 -13.526 189.856 -19.0191 195.313C-19.0864 195.366 -19.1522 195.435 -19.2038 195.484V195.499C-23.6556 199.904 -27.9382 204.564 -32.0188 209.461L-32.036 209.478C-32.0862 209.529 -32.1362 209.597 -32.1864 209.665C-35.5968 213.763 -38.8898 218.049 -42.0293 222.486V222.503H-42.0466V222.518C-44.7352 226.327 -47.3204 230.255 -49.7897 234.319C-49.9072 234.506 -50.0246 234.695 -50.1436 234.898H-50.1608V234.915C-52.4799 238.775 -54.7128 242.736 -56.8455 246.818C-58.7966 250.576 -60.6584 254.419 -62.4231 258.364V258.38C-64.0704 262.037 -65.6159 265.778 -67.0768 269.604C-68.472 273.193 -69.781 276.847 -70.9899 280.591V280.605C-71.1746 281.1 -71.325 281.609 -71.4925 282.118C-67.9819 283.853 -64.7734 285.656 -62.254 287.339L-62.2367 287.357C-58.8451 289.652 -56.6936 291.779 -56.6936 293.375C-56.6936 293.902 -56.7609 294.515 -56.8784 295.23V295.246C-57.2996 297.83 -58.4395 301.59 -59.9177 305.925L-59.9349 305.942C-60.3217 307.115 -60.7586 308.341 -61.1939 309.582C-62.0504 311.963 -62.9586 314.428 -63.8825 316.945C-65.2416 320.635 -66.6368 324.394 -67.913 327.982C-69.1563 331.503 -70.2993 334.87 -71.1543 337.81C-71.2545 338.15 -71.3719 338.508 -71.491 338.849C-73.4733 344.135 -78.5796 348.879 -84.2073 352.725V352.809L-84.2746 352.826V362.502L-84.2402 362.485C-84.1728 365.682 -84.0554 368.879 -83.855 372.042C-83.6702 375.204 -83.4165 378.352 -83.0987 381.48C-82.7777 384.591 -82.3925 387.685 -81.9571 390.765C-81.5187 393.842 -81.0161 396.903 -80.4445 399.947C-79.8886 402.99 -79.2686 406.019 -78.5624 409.012C-77.8906 412.005 -77.1531 414.996 -76.3467 417.938C-75.5559 420.916 -74.6822 423.841 -73.7755 426.747C-72.8517 429.671 -71.8777 432.578 -70.8364 435.452C-69.8108 438.344 -68.7037 441.2 -67.5591 444.041C-66.4003 446.88 -65.1915 449.703 -63.9138 452.493C-62.6376 455.316 -61.3113 458.087 -59.9161 460.842C-58.521 463.631 -57.0772 466.369 -55.5646 469.072C-54.0551 471.809 -52.4752 474.514 -50.8451 477.165C-50.51 477.744 -50.1389 478.321 -49.7866 478.9C-48.4776 481.008 -47.134 483.083 -45.7389 485.142C-43.9914 487.792 -42.1609 490.413 -40.2787 492.981L-40.2865 492.979Z" fill="#CECAC9" fill-opacity="0.25"/>
<path d="M31.865 352.668V352.651C31.9995 349.34 32.2512 346.026 32.653 342.733C33.0548 339.3 33.6098 335.888 34.2977 332.507C35.0169 328.958 35.9064 325.424 36.9461 321.962V321.944C38.053 318.224 39.346 314.555 40.8203 310.988C41.0376 310.48 41.2408 309.968 41.4582 309.459C42.9184 306.043 44.5443 302.715 46.3392 299.473L46.3548 299.455C48.6874 295.193 51.3187 291.081 54.2204 287.158L54.2376 287.141C57.9101 282.215 62.0187 277.595 66.5808 273.35L66.598 273.333C84.5446 256.637 109.415 245.749 141.231 245.172C144.033 245.223 146.766 245.359 149.45 245.581H149.467C156.393 246.089 162.95 247.128 169.157 248.638H169.19C174.407 249.894 179.338 251.458 184.05 253.326H184.067C188.243 254.99 192.235 256.876 196.024 258.982H196.042C199.545 260.902 202.868 263.024 206.037 265.301H206.054C209.021 267.441 211.856 269.718 214.523 272.112V272.129H214.54C214.707 272.264 214.857 272.4 215.011 272.57C217.393 274.71 219.657 276.987 221.802 279.346H221.819V279.363C221.919 279.465 222.019 279.568 222.104 279.688C224.218 282.014 226.195 284.427 228.057 286.922C228.057 286.922 228.075 286.922 228.075 286.939C228.142 287.041 228.225 287.142 228.292 287.247C230.12 289.691 231.813 292.206 233.407 294.802L233.089 294.921C233.189 294.888 233.306 294.854 233.423 294.82C235.068 297.47 236.576 300.188 237.985 302.954C239.059 305.095 240.064 307.267 241.021 309.46C241.271 310.087 241.54 310.7 241.794 311.328C242.949 314.166 243.99 317.036 244.913 319.957V319.973C245.851 322.879 246.672 325.833 247.359 328.808V328.822C248.082 331.811 248.67 334.837 249.154 337.877C249.642 340.95 250.027 344.058 250.278 347.168V347.185C250.546 350.36 250.68 353.537 250.697 356.713C250.73 359.973 250.63 363.236 250.396 366.479C250.177 369.825 249.809 373.172 249.303 376.5V376.517C248.784 379.997 248.113 383.446 247.275 386.861C246.418 390.477 245.396 394.044 244.189 397.561C242.932 401.297 241.472 404.967 239.811 408.552C239.794 408.602 239.777 408.669 239.744 408.721H239.727V408.735C237.882 412.778 235.77 416.72 233.42 420.506V420.523C230.687 424.955 227.618 429.203 224.229 433.21C224.213 433.227 224.196 433.26 224.179 433.278C219.566 438.731 214.349 443.74 208.513 448.191L208.496 448.208C208.261 448.395 208.028 448.584 207.775 448.753C191.608 460.897 170.877 468.778 145.587 470.001H145.57C144.764 470.051 143.978 470.085 143.173 470.102H143.121L141.226 470.153C133.914 470.018 126.954 469.337 120.38 468.166H120.363C120.295 468.166 120.245 468.148 120.178 468.132C120.161 468.132 120.161 468.115 120.161 468.115C114.409 467.095 108.957 465.702 103.776 463.954H103.759C99.2313 462.425 94.921 460.643 90.8107 458.62H90.7935C90.6935 458.569 90.5934 458.519 90.4933 458.451H90.4762C86.8537 456.668 83.3985 454.697 80.1107 452.54H80.095C76.9244 450.485 73.9226 448.259 71.0725 445.9C68.3553 443.675 65.7882 441.296 63.357 438.818C63.3398 438.818 63.3398 438.8 63.3398 438.8C60.9916 436.421 58.7949 433.943 56.7156 431.361C54.6863 428.862 52.7914 426.266 51.0294 423.598C49.2847 420.982 47.6743 418.298 46.1672 415.566V415.548C44.6898 412.847 43.3155 410.078 42.0726 407.261C40.8328 404.475 39.7087 401.622 38.6862 398.734C37.6637 395.847 36.7741 392.925 35.969 389.97V389.953C35.1794 386.998 34.4916 383.992 33.9225 380.984C33.3534 377.928 32.9 374.87 32.5466 371.78C32.1949 368.637 31.9604 365.496 31.8415 362.336C31.7243 359.109 31.7243 355.898 31.8587 352.671L31.865 352.668ZM-2.04565 364.031C-1.92839 367.173 -1.71106 370.331 -1.41089 373.476C-1.10915 376.584 -0.72142 379.69 -0.252396 382.766C0.215073 385.824 0.770081 388.846 1.42516 391.869C2.04584 394.858 2.76501 397.847 3.58737 400.803V400.821C4.39253 403.775 5.28214 406.696 6.27177 409.584V409.601C7.24422 412.488 8.3011 415.358 9.45647 418.178V418.196C10.5978 421.031 11.8391 423.834 13.1805 426.603C14.5063 429.405 15.9322 432.157 17.4581 434.858C18.9855 437.592 20.6115 440.278 22.3219 442.892C24.0494 445.556 25.8771 448.156 27.8064 450.704V450.721H27.8235C29.7684 453.321 31.8322 455.867 33.9944 458.33C34.1617 458.535 34.3477 458.739 34.5322 458.943C36.5615 461.251 38.6909 463.493 40.9063 465.669H40.9219C42.6339 467.35 44.3786 468.998 46.1875 470.56C47.0099 471.308 47.8494 472.021 48.6874 472.733H48.7046C51.5047 475.077 54.4236 477.32 57.4754 479.459H57.4926C60.6773 481.701 63.9996 483.826 67.4532 485.778V485.796C67.4876 485.829 67.5204 485.846 67.5705 485.864C71.0929 487.901 74.7669 489.787 78.5566 491.519C78.6567 491.57 78.7583 491.605 78.8412 491.638H78.8584C82.7153 493.405 86.6927 495.002 90.8154 496.427C91.236 496.581 91.6706 496.715 92.0912 496.871H92.1084C94.7396 497.754 97.4428 498.587 100.191 499.334C102.722 500.031 105.29 500.658 107.922 501.236H107.957C114.278 502.613 120.853 503.63 127.714 504.276H127.747C132.126 504.668 136.621 504.922 141.231 505.007C146.8 504.906 152.199 504.564 157.433 503.987H157.466C158.455 503.886 159.462 503.767 160.435 503.63C163.84 503.207 167.159 502.696 170.412 502.069C170.462 502.051 170.497 502.051 170.53 502.051C173.566 501.475 176.519 500.813 179.418 500.064C179.535 500.031 179.655 499.996 179.755 499.996C180.056 499.93 180.342 499.861 180.628 499.811C194.245 496.259 206.438 490.962 217.44 484.371C217.44 484.371 217.44 484.355 217.456 484.355C218.028 484.032 218.597 483.674 219.168 483.318V483.302C225.489 479.378 231.361 474.961 236.763 470.154C238.152 468.932 239.495 467.676 240.82 466.4V466.384H240.837L240.854 466.367C244.978 462.376 248.785 458.181 252.309 453.747C252.644 453.34 252.961 452.949 253.264 452.542H253.282C256.434 448.5 259.352 444.304 262.02 439.956V439.939C262.085 439.855 262.137 439.769 262.187 439.685C264.501 435.914 266.632 432.041 268.575 428.085L268.592 428.067C268.659 427.931 268.742 427.779 268.792 427.641C270.554 424.076 272.165 420.425 273.625 416.721V416.704C273.625 416.671 273.642 416.653 273.658 416.62C275.049 413.053 276.325 409.434 277.449 405.765C278.539 402.268 279.494 398.716 280.334 395.133V395.116C281.139 391.687 281.844 388.237 282.413 384.755C282.965 381.408 283.418 378.047 283.77 374.65V374.633L284.492 364.731V364.714C284.627 361.487 284.677 358.262 284.61 355.016C284.575 351.84 284.425 348.662 284.189 345.488C283.972 342.362 283.651 339.237 283.234 336.145V336.129C282.832 333.054 282.344 329.995 281.773 326.957C281.204 323.935 280.532 320.928 279.777 317.956C279.089 315.103 278.285 312.266 277.412 309.463C277.379 309.345 277.346 309.243 277.294 309.123V309.105C276.406 306.184 275.399 303.296 274.327 300.443C273.237 297.573 272.061 294.737 270.805 291.951C269.613 289.319 268.355 286.721 267.013 284.172C266.93 283.985 266.83 283.814 266.729 283.646C265.386 281.081 263.961 278.569 262.47 276.105C262.353 275.901 262.235 275.716 262.099 275.529C260.558 272.997 258.93 270.535 257.22 268.105C257.103 267.935 256.985 267.783 256.868 267.614C255.141 265.169 253.311 262.79 251.399 260.464C251.265 260.277 251.115 260.09 250.965 259.919C249.992 258.732 248.985 257.56 247.963 256.422C246.789 255.079 245.58 253.771 244.323 252.481V252.465C241.958 249.984 239.477 247.59 236.892 245.297L237.227 245.179H236.759C234.108 242.834 231.358 240.576 228.506 238.436C225.471 236.143 222.316 233.971 219.03 231.947C215.575 229.773 211.968 227.753 208.23 225.901H208.213C204.423 223.982 200.499 222.234 196.44 220.671C196.206 220.57 195.988 220.484 195.752 220.416C195.752 220.416 195.752 220.399 195.735 220.399H195.72C191.006 218.581 186.109 217.001 181.009 215.677H180.975C175.223 214.13 169.237 212.926 162.997 212.042H162.963C156.02 211.04 148.775 210.464 141.226 210.326H136.982C136.832 210.38 136.682 210.429 136.53 210.479C102.718 211.922 75.0968 222.438 53.6451 238.657C53.3777 238.86 53.126 239.047 52.8727 239.249L52.8571 239.267C50.4072 241.135 48.0605 243.089 45.7795 245.109C42.4072 248.098 39.2381 251.206 36.2535 254.485L36.2363 254.503H36.2223L36.2051 254.52C34.1085 256.811 32.0792 259.156 30.1671 261.585C28.5255 263.605 26.9809 265.66 25.4878 267.766V267.783C22.6705 271.74 20.0705 275.833 17.6894 280.047V280.063C17.6066 280.199 17.5222 280.336 17.4549 280.489C15.3928 284.142 13.4979 287.878 11.786 291.7V291.715H11.7703C10.1256 295.367 8.6169 299.104 7.25829 302.891H7.24109V302.909C6.46877 305.082 5.73082 307.258 5.06168 309.465C4.60672 310.874 4.20491 312.285 3.80312 313.711C2.83067 317.191 1.97548 320.708 1.25317 324.242V324.258C0.53244 327.654 -0.0538483 331.069 -0.541641 334.517C-1.00911 337.845 -1.37962 341.192 -1.64697 344.538V344.555C-1.91745 347.833 -2.06752 351.112 -2.13475 354.389C-2.20198 357.598 -2.16759 360.809 -2.05032 364.019V364.036L-2.04565 364.031Z" fill="#CECAC9" fill-opacity="0.25"/>
<path d="M109.294 356.075C109.496 352.515 110.253 348.989 111.529 345.684C113.375 340.819 116.363 336.427 120.475 333.038H120.492L120.506 333.022C125.357 329.021 131.772 326.427 139.763 326.124C139.779 326.106 139.796 326.106 139.829 326.124C140.334 326.124 140.719 326.106 140.987 326.106H141.039C141.089 326.106 141.139 326.106 141.172 326.124H141.206C147.433 326.308 152.722 327.903 157.052 330.461C160.207 332.326 162.859 334.7 165.025 337.447V337.462C166.971 339.921 168.5 342.65 169.622 345.567C170.73 348.414 171.453 351.448 171.757 354.518C172.092 357.754 171.991 361.043 171.453 364.264C170.797 368.095 169.505 371.824 167.593 375.199L167.575 375.215C162.69 383.809 153.694 390.132 140.582 390.369C136.169 390.286 132.222 389.523 128.731 388.2H128.714V388.183H128.698C124.786 386.71 121.481 384.54 118.744 381.878V381.862C116.392 379.607 114.497 376.98 113.02 374.132C111.608 371.419 110.585 368.504 109.981 365.505V365.487H109.965C109.325 362.403 109.108 359.233 109.293 356.079L109.294 356.075ZM75.2664 357.788C75.2507 360.956 75.4338 364.108 75.8047 367.246V367.263C76.1896 370.313 76.7451 373.347 77.501 376.33V376.348C78.2396 379.313 79.1801 382.229 80.3036 385.06C81.4288 387.925 82.7558 390.704 84.2658 393.383C85.8103 396.129 87.5567 398.774 89.5206 401.266V401.282H89.5378C91.569 403.91 93.8521 406.384 96.3355 408.656C99.0224 411.115 101.96 413.368 105.164 415.351C105.164 415.351 105.182 415.351 105.182 415.368C108.792 417.608 112.72 419.521 117.001 421.047H117.034C122.373 422.963 128.232 424.25 134.595 424.827L133.635 425.151H140.585C159.991 424.794 175.065 418.047 185.825 407.724V407.707C189.904 403.808 193.363 399.386 196.2 394.606L196.217 394.588C198.365 390.96 200.162 387.129 201.589 383.147L201.606 383.129C202.847 379.688 203.82 376.129 204.526 372.519C205.182 369.194 205.601 365.84 205.77 362.45V362.433C205.971 359.23 205.955 356.008 205.703 352.823C205.485 349.721 205.066 346.637 204.461 343.584C203.858 340.583 203.069 337.617 202.093 334.735V334.719C201.12 331.82 199.944 328.973 198.586 326.244C197.209 323.445 195.632 320.751 193.852 318.19V318.174C192.006 315.497 189.956 312.953 187.69 310.582H187.674C186.969 309.834 186.246 309.123 185.491 308.426C183.695 306.698 181.766 305.105 179.717 303.613H179.7V303.596C179.315 303.308 178.911 303.038 178.509 302.749C175.722 300.816 172.718 299.07 169.478 297.577H169.461C169.378 297.544 169.294 297.509 169.211 297.459H169.193C168.891 297.324 168.605 297.188 168.287 297.051C164.04 295.186 159.424 293.73 154.437 292.747H154.404C154.219 292.696 154.052 292.661 153.866 292.628H153.849C149.67 291.848 145.254 291.391 140.586 291.307C134.291 291.424 128.449 292.205 123.079 293.578H123.062L122.994 293.594L122.944 293.611H122.911C119.739 294.425 116.735 295.442 113.881 296.628L113.831 296.645V296.662H113.813L113.663 296.713C106.462 299.764 100.266 303.95 95.0962 308.986C95.0805 308.986 95.0805 309.003 95.0805 309.003C93.3842 310.63 91.8225 312.34 90.3469 314.138V314.154C87.2391 317.935 84.6383 322.053 82.5054 326.411V326.427H82.4897C82.4553 326.495 82.4381 326.545 82.4052 326.613C80.6933 330.104 79.3006 333.749 78.2067 337.496L76.9157 337.935L78.2067 337.513C77.2193 340.904 76.4776 344.377 75.9925 347.887L74.3134 348.447V348.463L75.9925 347.905C75.5215 351.176 75.2867 354.48 75.2695 357.788H75.2664Z" fill="#CECAC9" fill-opacity="0.25"/>
<path d="M360.265 609.797C359.812 607.528 359.172 604.902 358.314 601.735C357.842 600.023 357.322 598.16 356.732 596.111C353.336 599.416 349.836 602.633 346.253 605.749L346.235 605.766C339.457 611.678 332.357 617.25 324.974 622.467V622.484C313.906 630.343 302.181 637.456 289.968 643.792L289.902 643.808C289.767 643.893 289.617 643.961 289.463 644.045C281.27 648.262 272.845 652.143 264.247 655.649C243.727 664.016 222.179 670.35 200.193 674.484C198.46 674.822 196.743 675.128 195.012 675.433C180.883 677.854 166.601 679.396 152.286 680.004C142.648 680.429 132.993 680.429 123.387 679.99C115.601 679.65 107.845 679.022 100.143 678.092C93.4802 677.296 86.8694 676.297 80.293 675.078H80.2758C80.2585 675.06 80.2428 675.06 80.2256 675.06C74.3893 673.977 68.5861 672.706 62.8329 671.266C62.7984 671.266 62.7827 671.266 62.7655 671.249C57.6019 669.96 52.4713 668.539 47.4081 666.946C47.2905 666.929 47.1902 666.896 47.0726 666.845H47.0553C42.3622 665.388 37.702 663.796 33.0951 662.069H33.0778C32.9774 662.051 32.8928 662.001 32.7924 661.966C28.3674 660.326 23.9957 658.563 19.6711 656.681C18.8808 656.343 18.1078 656.006 17.3175 655.649C14.9278 654.581 12.5569 653.481 10.2033 652.345C10.774 653.463 11.3793 654.564 12.019 655.649C12.5929 656.664 13.1966 657.646 13.8192 658.63C15.5863 661.458 17.4539 664.118 19.2195 666.488C19.2869 666.556 19.3214 666.624 19.3716 666.69C21.708 669.776 23.8624 672.349 25.4085 674.059C25.4932 674.162 25.5779 674.246 25.661 674.332C26.619 675.398 27.3106 676.091 27.6116 676.314C28.1683 676.736 29.2283 678.954 30.5047 682.005C30.5392 682.09 30.5721 682.174 30.6066 682.259C31.5992 684.698 32.725 687.629 33.8179 690.559C33.8524 690.66 33.9026 690.761 33.9355 690.864C35.0284 693.81 36.0885 696.724 36.9462 699.147C37.0136 699.332 37.0638 699.503 37.1312 699.672C41.8745 701.228 46.6523 702.653 51.4803 703.955C57.0139 705.481 62.582 706.835 68.1987 708.023C72.9938 709.055 77.8046 709.97 82.6482 710.767C84.0453 711.02 85.4581 711.239 86.8553 711.462C91.6989 712.19 96.5598 712.832 101.438 713.341C103.674 713.596 105.913 713.816 108.166 714.002H108.184C113.062 714.444 117.973 714.765 122.884 714.984H122.919C126.365 715.153 129.798 715.258 133.247 715.289H133.263C143.81 715.458 154.391 715.138 164.955 714.357H164.987C180.613 713.224 196.191 711.054 211.532 707.92C213.081 707.617 214.61 707.295 216.142 706.955L216.225 706.938C241.793 701.35 266.654 693.185 290.02 682.344L290.473 682.193L292.256 681.599H291.752C306.453 674.74 320.549 666.914 333.839 658.107C333.856 658.107 333.856 658.09 333.872 658.09H333.889C333.906 658.09 333.906 658.072 333.922 658.072H333.939C335.149 657.277 336.362 656.479 337.556 655.652C344.335 651.046 350.911 646.165 357.237 641.051C357.271 640.915 357.287 640.778 357.322 640.644V640.626C357.339 640.541 357.354 640.44 357.372 640.356C358.112 636.357 358.783 633.088 359.34 630.327C359.357 630.26 359.357 630.208 359.373 630.142C359.711 628.448 360.011 626.924 360.265 625.536C360.618 623.552 360.886 621.808 361.003 620.132C361.021 620.098 361.021 620.081 361.021 620.046C361.256 617.067 361.088 614.27 360.431 610.662C360.381 610.392 360.331 610.105 360.263 609.799L360.265 609.797Z" fill="#CECAC9" fill-opacity="0.25"/>
<path d="M-147.44 199.411C-149.694 199.31 -151.497 199.002 -152.517 198.357C-153.971 197.455 -154.371 195.145 -154.237 192.034C-154.153 189.178 -153.603 185.64 -153.051 181.935C-152.535 178.584 -152 175.083 -151.749 171.82C-151.466 168.232 -151.516 164.918 -152.285 162.333C-152.568 161.347 -152.97 160.463 -153.487 159.713C-154.323 160.99 -155.157 162.282 -155.976 163.574C-158.514 167.568 -160.969 171.614 -163.359 175.728C-165.648 179.656 -167.849 183.619 -169.973 187.631C-172.044 191.49 -174.013 195.4 -175.935 199.327V199.345C-177.772 203.136 -179.559 206.946 -181.264 210.805C-182.917 214.528 -184.502 218.303 -186.039 222.094C-187.411 225.495 -188.73 228.928 -190 232.379V263.189C-189.883 263.052 -188.997 262.338 -187.595 261.334C-182.081 257.425 -168.421 248.941 -160.452 251.833C-159.233 248.262 -157.963 244.726 -156.627 241.224C-155.193 237.466 -153.705 233.726 -152.137 230.034C-150.516 226.21 -148.811 222.435 -147.06 218.661V218.644C-145.205 214.717 -143.284 210.84 -141.297 207.014C-139.943 204.415 -138.557 201.83 -137.137 199.262V195.945L-147.41 199.414H-147.443L-147.44 199.411Z" fill="#CECAC9" fill-opacity="0.25"/>
<path d="M142.535 35.0384C151.051 35.0718 159.58 35.4642 168.045 36.1806H168.062C175.215 36.7748 182.322 37.6279 189.375 38.7177H189.39C195.673 39.6724 201.869 40.8305 208 42.1777C213.375 43.3373 218.682 44.6495 223.904 46.1142C222.628 43.3707 221.319 40.7114 219.991 38.1569C218.515 35.2942 217.018 32.5491 215.54 29.9438C213.893 27.0636 212.263 24.3725 210.67 21.8831C208.805 18.9347 206.99 16.2928 205.311 13.9591C202.995 10.7899 200.913 8.2163 199.148 6.34174C198.527 5.6777 197.957 5.09786 197.418 4.60221C192.312 3.7666 187.123 3.03584 181.9 2.42105C174.276 1.51871 166.55 0.872148 158.808 0.462286L160.201 0H131.298L130.895 0.136621H130.878C127.571 0.238292 124.263 0.374913 120.987 0.581432C121.071 1.56955 121.121 2.52431 121.104 3.42664C121.071 7.75561 119.98 11.2315 118.148 14.1116C110.206 26.6204 88.2549 27.6609 77.9753 37.3054C76.4817 38.705 75.2386 40.2713 74.3134 42.0951C85.6013 39.5914 97.2383 37.7502 109.03 36.5905C120.099 35.4801 131.316 34.9701 142.535 35.0384Z" fill="#CECAC9" fill-opacity="0.25"/>
<path d="M462.255 208.507C461.004 205.694 459.699 202.898 458.348 200.134C457.012 197.338 455.625 194.576 454.207 191.831C452.785 189.051 451.334 186.306 449.831 183.579C448.345 180.834 446.807 178.122 445.237 175.43C443.65 172.718 442.048 170.024 440.395 167.365C438.74 164.69 437.054 162.01 435.319 159.386C433.581 156.708 431.811 154.082 429.99 151.474C428.17 148.831 426.316 146.224 424.396 143.649C424.412 143.632 424.396 143.597 424.347 143.581C422.791 141.416 421.188 139.283 419.553 137.152C414.944 138.141 411.22 138.908 408.03 139.453C408.013 139.471 407.998 139.471 407.98 139.471C400.13 140.819 395.573 140.85 389.125 139.692C387.205 139.334 385.101 138.873 382.695 138.309H382.678C380.057 137.697 377.051 136.963 373.494 136.093C374.73 137.441 375.966 138.787 377.185 140.169C377.202 140.169 377.202 140.169 377.202 140.186C379.405 142.642 381.578 145.147 383.697 147.688C385.8 150.179 387.87 152.717 389.892 155.294C389.892 155.294 389.91 155.294 389.91 155.308C389.91 155.308 389.925 155.308 389.925 155.325C391.932 157.849 393.885 160.405 395.803 163.015C396.32 163.713 396.839 164.412 397.357 165.111C398.743 167.004 400.097 168.915 401.433 170.824C403.253 173.434 405.021 176.058 406.76 178.718C408.497 181.362 410.185 184.022 411.836 186.715C413.471 189.375 415.059 192.068 416.63 194.795C418.182 197.489 419.701 200.218 421.172 202.981C422.64 205.71 424.077 208.472 425.446 211.249C426.833 213.996 428.186 216.774 429.47 219.587C430.792 222.367 432.043 225.18 433.264 228.011C433.296 228.062 433.313 228.113 433.346 228.181C434.481 230.823 435.6 233.501 436.668 236.195C436.902 235.667 437.121 235.189 437.254 234.863C438.39 232.171 443.401 227.568 449.276 222.674C449.311 222.64 449.361 222.605 449.41 222.572C454.054 218.684 459.229 214.644 463.473 211.216V208.096L462.254 208.506L462.255 208.507Z" fill="#CECAC9" fill-opacity="0.25"/>
<path d="M416.964 252.608C415.89 249.733 414.781 246.876 413.622 244.052C412.496 241.296 411.336 238.557 410.127 235.835C410.095 235.749 410.044 235.665 410.01 235.58C409.96 235.478 409.927 235.377 409.875 235.275C409.825 235.139 409.758 235.02 409.708 234.882C408.549 232.297 407.358 229.728 406.132 227.193C406.082 227.091 406.032 227.007 405.982 226.904C404.689 224.217 403.363 221.548 401.986 218.911H401.968C401.935 218.825 401.901 218.741 401.851 218.673C400.456 215.985 399.013 213.331 397.551 210.713L397.537 210.695C397.483 210.61 397.435 210.526 397.402 210.44C395.909 207.805 394.396 205.203 392.834 202.616V202.599C391.204 199.894 389.526 197.223 387.829 194.588C386.099 191.934 384.338 189.298 382.524 186.694H382.507C381.971 185.878 381.383 185.044 380.811 184.227C380.811 184.227 380.811 184.211 380.794 184.211L376.932 178.869H376.915C375 176.265 373.019 173.698 371.021 171.18H371.004C368.989 168.613 366.907 166.077 364.791 163.575C362.641 161.057 360.458 158.558 358.225 156.11C355.976 153.608 353.657 151.143 351.304 148.727C351.154 148.557 350.987 148.386 350.819 148.215C344.47 148.269 338.812 153.88 329.291 154.426C327.225 154.545 324.974 154.426 322.489 153.964C319.953 153.371 317.553 152.382 315.285 151.107C312.112 149.337 309.207 146.991 306.586 144.354C304.233 142.005 302.118 139.421 300.238 136.784C298.491 134.37 296.948 131.936 295.619 129.607C295.468 129.334 295.318 129.08 295.166 128.808C293.403 125.641 292.01 122.752 291.052 120.505C290.163 118.464 289.626 116.966 289.441 116.304C288.35 114.823 287.259 113.531 286.199 112.426C282.84 108.923 279.582 107.117 276.376 106.047C270.8 104.176 265.308 104.497 259.515 102.014C256.576 100.739 253.554 98.7493 250.396 95.3814C250.279 95.245 250.144 95.0928 249.994 94.9548C248.23 92.9981 246.415 90.5989 244.552 87.6559C243.056 85.3091 241.547 82.6214 239.984 79.5087C239.446 78.4209 238.876 77.2649 238.32 76.0551C235.567 75.037 232.797 74.0825 229.991 73.1628C224.936 71.4978 219.779 69.9993 214.576 68.6547H214.558C208.865 67.1594 203.106 65.8655 197.276 64.7602C192.727 63.8754 188.159 63.1095 183.541 62.48H183.524C181.526 62.1914 179.527 61.9171 177.512 61.6967H177.495C172.86 61.137 168.207 60.693 163.541 60.3869H163.508C160.4 60.1332 157.26 59.9635 154.137 59.8446C148.696 59.621 143.237 59.5703 137.797 59.6401H137.747C133.279 59.7083 128.83 59.8605 124.38 60.1348H124.362C111.567 60.8832 98.8192 62.4309 86.3254 64.7618C86.2753 64.7761 86.2252 64.7761 86.1751 64.7951C81.9938 65.5959 77.8454 66.4633 73.7314 67.4305C73.7142 67.4305 73.6969 67.4305 73.6797 67.448C73.6641 67.448 73.6469 67.448 73.6312 67.4654C73.614 67.4654 73.5968 67.4654 73.578 67.4797C73.5639 67.4797 73.5279 67.4971 73.5122 67.4971C58.4981 71.0189 43.9551 75.6618 30.1354 81.5146C28.4557 82.2297 26.7932 82.9448 25.1479 83.6917C25.1151 83.7091 25.0978 83.7092 25.065 83.725C25.0477 83.725 25.0477 83.7424 25.0305 83.7424C23.3179 84.5258 21.5725 85.3059 19.8928 86.1226C20.2105 89.1671 20.4125 91.8564 20.5127 94.2365C20.5299 94.4743 20.5455 94.7138 20.5455 94.9342C20.6802 98.6431 20.58 101.569 20.3279 103.917C20.2951 104.188 20.2622 104.463 20.2277 104.716C19.5217 109.989 17.9954 112.099 16.8182 113.698C14.7534 116.828 -20.3453 120.484 -24.9978 126.234C-26.1218 127.715 -27.1628 128.787 -28.1209 129.604C-28.6406 130.062 -29.1447 130.42 -29.6143 130.726L-33.9976 132.442C-34.0148 132.442 -34.0477 132.459 -34.0821 132.459C-34.8883 132.68 -35.6585 132.937 -36.4318 133.378L-36.449 133.395C-38.4465 134.568 -40.4613 137.121 -43.0646 144.128C-43.2164 144.587 -43.4857 145.064 -43.8551 145.559V145.575C-48.1022 151.478 -64.9635 159.881 -67.3305 161.804C-67.6514 162.058 -68.1539 162.689 -68.8427 163.607V163.624C-70.7901 166.261 -74.0979 171.21 -77.9097 176.33V176.348C-79.7069 178.747 -81.6214 181.195 -83.5532 183.457C-85.8215 186.078 -88.1039 188.44 -90.2877 190.177C-92.4198 191.878 -94.4518 193.001 -96.2489 193.186C-106.055 194.226 -107.096 197.899 -107.616 200.503C-107.7 201.012 -108.289 201.37 -109.195 201.624C-110.336 203.512 -111.462 205.401 -112.572 207.323C-114.837 211.219 -117.003 215.165 -119.086 219.179V219.196C-119.17 219.331 -119.237 219.467 -119.303 219.605C-121.218 223.278 -123.049 227.022 -124.812 230.797C-126.559 234.539 -128.221 238.331 -129.817 242.16C-131.343 245.834 -132.805 249.543 -134.181 253.301H-134.198C-134.818 254.969 -135.424 256.653 -136.013 258.353V282.966L-104.893 272.521C-104.893 272.521 -104.878 272.539 -104.86 272.521C-104.726 272.556 -104.575 272.589 -104.422 272.607C-104.389 272.521 -104.372 272.437 -104.339 272.352C-103.08 268.643 -101.736 264.969 -100.307 261.329C-98.8475 257.536 -97.2852 253.796 -95.6384 250.085C-93.9258 246.189 -92.0942 242.346 -90.1969 238.553H-90.1797C-88.1822 234.555 -86.0829 230.624 -83.9007 226.765H-83.8835L-83.5485 226.646V226.151C-81.3819 222.376 -79.1308 218.649 -76.7983 215.01C-76.731 214.874 -76.6464 214.756 -76.5447 214.637V214.62C-73.9241 210.521 -71.2034 206.506 -68.3512 202.575C-68.3512 202.542 -68.3339 202.524 -68.2979 202.507C-68.1977 202.355 -68.0976 202.202 -67.9801 202.066C-64.7569 197.591 -61.3802 193.239 -57.8862 189.003C-57.8721 189.003 -57.8721 188.986 -57.8721 188.986C-55.0167 185.532 -52.0784 182.164 -49.0712 178.866C-47.9456 177.642 -46.8373 176.432 -45.6945 175.241L-45.6773 175.225H-45.6601C-42.1864 171.55 -38.5921 167.979 -34.8977 164.508C-33.4512 163.149 -31.975 161.788 -30.48 160.463C-30.48 160.463 -30.48 160.445 -30.4628 160.445C-23.9474 154.61 -17.1284 149.082 -10.0432 143.929V143.911C-3.02374 138.791 4.26495 134.012 11.7885 129.605C15.8852 127.189 20.0352 124.91 24.265 122.75C24.265 122.733 24.2822 122.733 24.2822 122.733C47.0203 111.03 71.6901 102.626 97.667 98.1373H97.7171C110.748 95.8745 124.101 94.598 137.703 94.4109C138.963 94.3935 140.239 94.3776 141.515 94.3776C149.021 94.3776 156.443 94.6995 163.799 95.3465C170.851 95.9411 177.822 96.8449 184.707 98.0342C190.736 99.0379 196.695 100.28 202.573 101.726C207.578 102.934 212.531 104.31 217.403 105.842C217.721 105.928 218.024 106.012 218.326 106.131C223.129 107.629 227.865 109.261 232.55 111.046C236.918 112.714 241.232 114.484 245.496 116.388C249.546 118.176 253.525 120.064 257.455 122.054H257.472C261.216 123.959 264.911 125.949 268.538 128.042C269.446 128.533 270.352 129.061 271.259 129.605C273.846 131.1 276.381 132.65 278.9 134.265C282.176 136.324 285.399 138.468 288.573 140.697C291.645 142.839 294.686 145.05 297.657 147.332C300.562 149.525 303.418 151.803 306.206 154.152C308.942 156.414 311.611 158.745 314.249 161.125L314.265 161.143C316.852 163.458 319.369 165.838 321.855 168.269V168.286C324.291 170.652 326.693 173.067 329.011 175.549H329.025V175.566C331.343 177.997 333.593 180.464 335.792 182.982C337.339 184.752 338.865 186.539 340.362 188.342V188.359C340.982 189.075 341.571 189.787 342.156 190.519C344.205 193.037 346.206 195.604 348.153 198.208C350.101 200.758 351.982 203.344 353.812 205.981C355.627 208.585 357.405 211.239 359.135 213.908H359.152C360.813 216.512 362.46 219.149 364.038 221.819C364.072 221.854 364.091 221.887 364.105 221.92C365.702 224.592 367.245 227.28 368.725 230.017C368.725 230.017 368.758 230.034 368.74 230.052C370.234 232.722 371.663 235.427 373.041 238.164C373.058 238.199 373.073 238.232 373.091 238.267C374.453 240.969 375.779 243.711 377.037 246.481C377.07 246.516 377.087 246.567 377.104 246.617C378.396 249.408 379.639 252.215 380.816 255.055C382.007 257.879 383.131 260.721 384.226 263.578C385.317 266.453 386.341 269.345 387.314 272.253C388.322 275.145 389.246 278.054 390.137 280.979C391.01 283.905 391.832 286.848 392.604 289.824H392.621C393.393 292.785 394.13 295.778 394.803 298.788C395.492 301.782 396.114 304.795 396.683 307.839C396.718 307.975 396.735 308.128 396.768 308.266C403.335 308.86 407.682 309.303 407.682 309.303C407.047 307.722 406.726 306.139 406.676 304.489C406.558 301.358 407.397 298.009 408.958 294.044C410.253 290.728 412.065 286.968 414.232 282.579C415.929 279.141 417.826 275.331 419.875 271.012H419.89C420.528 269.669 421.184 268.256 421.857 266.811C421.269 264.956 420.664 263.121 420.043 261.282C419.069 258.374 418.044 255.481 416.97 252.607L416.964 252.608Z" fill="#CECAC9" fill-opacity="0.25"/>
<path d="M345.463 682.987C331.571 692.024 317.079 700.159 302.03 707.32L302.013 707.338C295.879 710.253 289.664 712.999 283.363 715.591C262.302 724.255 240.317 731.025 217.614 735.747C215.586 736.175 213.559 736.566 211.531 736.959C211.816 737.129 212.1 737.318 212.403 737.502C215.1 739.243 218.082 741.597 221.116 744.272C223.663 746.472 226.242 748.911 228.74 751.4C231.201 753.84 233.599 756.345 235.811 758.731C235.843 758.766 235.893 758.817 235.926 758.868C238.291 761.424 240.434 763.847 242.212 765.947H243.233L246.751 764.753H246.783C263.372 760.302 279.558 754.845 295.259 748.434C295.277 748.434 295.277 748.416 295.294 748.416C302.833 745.329 310.273 742.037 317.597 738.526C316.388 736.752 315.401 735.321 314.762 734.468C314.395 733.975 314.025 733.326 313.673 732.523C313.673 732.523 313.658 732.506 313.673 732.49C312.702 730.308 311.865 727.117 311.212 723.639C310.742 721.015 310.357 718.219 310.139 715.591C310.106 715.167 310.073 714.739 310.056 714.331C309.754 710.032 309.906 706.282 310.643 704.593C310.676 704.526 310.726 704.458 310.778 704.389V704.372C315.568 697.041 345.949 692.76 347.557 682.289L347.625 682.271V681.591C346.92 682.051 346.216 682.511 345.496 682.971C345.496 682.988 345.48 682.988 345.463 682.988V682.987Z" fill="#CECAC9" fill-opacity="0.25"/>
<path d="M341.092 772.231C340.838 771.283 340.586 770.319 340.33 769.321C331.927 773.466 323.392 777.34 314.701 780.961C314.683 780.961 314.683 780.979 314.668 780.979L291.388 788.677V789.946C295.953 791.351 300.465 792.687 304.777 793.889C310.896 795.597 316.543 797.051 321.159 798.085C326.992 799.372 331.166 799.979 332.537 799.555C337.068 796.931 339.84 794.26 341.412 791.384C343.087 788.271 343.375 784.953 342.951 781.247C342.646 778.472 341.921 775.494 341.092 772.229V772.231Z" fill="#CECAC9" fill-opacity="0.25"/>
<path d="M420.733 309.303H421.857C421.826 309.303 421.766 309.303 421.644 309.303H420.733Z" fill="#CECAC9" fill-opacity="0.25"/>
<path d="M51.8329 655.722C52.1969 655.722 52.5636 655.722 52.9433 655.722H51.8185H51.8329Z" fill="#CECAC9" fill-opacity="0.25"/>
<path d="M-108.681 428.84C-109.542 425.825 -110.349 422.793 -111.087 419.726C-111.385 418.541 -111.668 417.337 -111.948 416.153C-112.194 417.129 -112.526 417.758 -112.984 417.914C-116.216 418.976 -120.008 417.374 -120.008 417.374C-119.833 419.099 -119.851 420.893 -120.043 422.672C-120.431 426.435 -121.572 430.199 -123.204 433.614C-124.292 435.896 -125.594 438.006 -127.015 439.837C-127.015 439.837 -123.399 440.691 -118.252 441.91C-113.968 442.923 -108.61 444.178 -103.395 445.396C-104.292 442.906 -105.135 440.396 -105.942 437.87C-106.908 434.887 -107.821 431.876 -108.682 428.843L-108.681 428.84Z" fill="#CECAC9" fill-opacity="0.25"/>
</svg>
