<svg width="83" height="83" viewBox="0 0 83 83" fill="none" xmlns="http://www.w3.org/2000/svg">
<rect x="-2.40413" y="2.40413" width="78.1917" height="78.1917" rx="39.0959" transform="matrix(-1 0 0 1 78.1917 0)" stroke="white" stroke-width="4.80827"/>
<path d="M56 39.2524C57.5174 39.2524 58.7476 40.4826 58.7476 42C58.7476 43.5174 57.5174 44.7476 56 44.7476V39.2524ZM25.0572 43.9428C23.9842 42.8698 23.9842 41.1302 25.0572 40.0572L42.5427 22.5717C43.6157 21.4987 45.3553 21.4987 46.4283 22.5717C47.5013 23.6447 47.5013 25.3843 46.4283 26.4573L30.8857 42L46.4283 57.5427C47.5013 58.6157 47.5013 60.3553 46.4283 61.4283C45.3553 62.5013 43.6157 62.5013 42.5427 61.4283L25.0572 43.9428ZM56 44.7476H27V39.2524H56V44.7476Z" fill="white"/>
</svg>
