<svg width="59" height="19" viewBox="0 0 59 19" fill="none" xmlns="http://www.w3.org/2000/svg">
<path d="M55.8181 1.57269C54.5846 1.57269 53.5796 1.25872 53.5796 0.873384C53.5796 0.488049 54.5846 0.174072 55.8181 0.174072C57.0516 0.174072 58.0566 0.488049 58.0566 0.873384C58.0566 1.2611 57.0516 1.57269 55.8181 1.57269ZM58.0566 5.05735C58.0566 4.67202 57.0516 4.35804 55.8181 4.35804C54.5846 4.35804 53.5796 4.67202 53.5796 5.05735C53.5796 5.44269 54.5846 5.75667 55.8181 5.75667C57.0516 5.75667 58.0566 5.44507 58.0566 5.05735ZM58.0566 9.24133C58.0566 8.85599 57.0516 8.54202 55.8181 8.54202C54.5846 8.54202 53.5796 8.85599 53.5796 9.24133C53.5796 9.62666 54.5846 9.94064 55.8181 9.94064C57.0516 9.94301 58.0566 9.62904 58.0566 9.24133ZM58.0566 13.4277C58.0566 13.0423 57.0516 12.7284 55.8181 12.7284C54.5846 12.7284 53.5796 13.0423 53.5796 13.4277C53.5796 13.813 54.5846 14.127 55.8181 14.127C57.0516 14.127 58.0566 13.813 58.0566 13.4277ZM58.0566 17.6116C58.0566 17.2263 57.0516 16.9123 55.8181 16.9123C54.5846 16.9123 53.5796 17.2263 53.5796 17.6116C53.5796 17.997 54.5846 18.311 55.8181 18.311C57.0516 18.311 58.0566 17.997 58.0566 17.6116ZM44.6636 0.873384C44.6636 0.488049 43.6585 0.174072 42.4251 0.174072C41.1916 0.174072 40.1866 0.488049 40.1866 0.873384C40.1866 1.25872 41.1916 1.57269 42.4251 1.57269C43.6585 1.57269 44.6636 1.2611 44.6636 0.873384ZM44.6636 5.05735C44.6636 4.67202 43.6585 4.35804 42.4251 4.35804C41.1916 4.35804 40.1866 4.67202 40.1866 5.05735C40.1866 5.44269 41.1916 5.75667 42.4251 5.75667C43.6585 5.75667 44.6636 5.44507 44.6636 5.05735ZM44.6636 9.24133C44.6636 8.85599 43.6585 8.54202 42.4251 8.54202C41.1916 8.54202 40.1866 8.85599 40.1866 9.24133C40.1866 9.62666 41.1916 9.94064 42.4251 9.94064C43.6585 9.94301 44.6636 9.62904 44.6636 9.24133ZM44.6636 13.4277C44.6636 13.0423 43.6585 12.7284 42.4251 12.7284C41.1916 12.7284 40.1866 13.0423 40.1866 13.4277C40.1866 13.813 41.1916 14.127 42.4251 14.127C43.6585 14.127 44.6636 13.813 44.6636 13.4277ZM44.6636 17.6116C44.6636 17.2263 43.6585 16.9123 42.4251 16.9123C41.1916 16.9123 40.1866 17.2263 40.1866 17.6116C40.1866 17.997 41.1916 18.311 42.4251 18.311C43.6585 18.311 44.6636 17.997 44.6636 17.6116ZM31.263 0.873384C31.263 0.488049 30.258 0.174072 29.0245 0.174072C27.791 0.174072 26.786 0.488049 26.786 0.873384C26.786 1.25872 27.791 1.57269 29.0245 1.57269C30.2656 1.57269 31.263 1.2611 31.263 0.873384ZM31.263 5.05735C31.263 4.67202 30.258 4.35804 29.0245 4.35804C27.791 4.35804 26.786 4.67202 26.786 5.05735C26.786 5.44269 27.791 5.75667 29.0245 5.75667C30.2656 5.75667 31.263 5.44507 31.263 5.05735ZM31.263 9.24133C31.263 8.85599 30.258 8.54202 29.0245 8.54202C27.791 8.54202 26.786 8.85599 26.786 9.24133C26.786 9.62666 27.791 9.94064 29.0245 9.94064C30.2656 9.94301 31.263 9.62904 31.263 9.24133ZM31.263 13.4277C31.263 13.0423 30.258 12.7284 29.0245 12.7284C27.791 12.7284 26.786 13.0423 26.786 13.4277C26.786 13.813 27.791 14.127 29.0245 14.127C30.2656 14.127 31.263 13.813 31.263 13.4277ZM31.263 17.6116C31.263 17.2263 30.258 16.9123 29.0245 16.9123C27.791 16.9123 26.786 17.2263 26.786 17.6116C26.786 17.997 27.791 18.311 29.0245 18.311C30.2656 18.311 31.263 17.997 31.263 17.6116ZM17.87 0.873384C17.87 0.488049 16.8649 0.174072 15.6315 0.174072C14.398 0.174072 13.393 0.488049 13.393 0.873384C13.393 1.25872 14.398 1.57269 15.6315 1.57269C16.8726 1.57269 17.87 1.2611 17.87 0.873384ZM17.87 5.05735C17.87 4.67202 16.8649 4.35804 15.6315 4.35804C14.398 4.35804 13.393 4.67202 13.393 5.05735C13.393 5.44269 14.398 5.75667 15.6315 5.75667C16.8726 5.75667 17.87 5.44507 17.87 5.05735ZM17.87 9.24133C17.87 8.85599 16.8649 8.54202 15.6315 8.54202C14.398 8.54202 13.393 8.85599 13.393 9.24133C13.393 9.62666 14.398 9.94064 15.6315 9.94064C16.8726 9.94301 17.87 9.62904 17.87 9.24133ZM17.87 13.4277C17.87 13.0423 16.8649 12.7284 15.6315 12.7284C14.398 12.7284 13.393 13.0423 13.393 13.4277C13.393 13.813 14.398 14.127 15.6315 14.127C16.8726 14.127 17.87 13.813 17.87 13.4277ZM17.87 17.6116C17.87 17.2263 16.8649 16.9123 15.6315 16.9123C14.398 16.9123 13.393 17.2263 13.393 17.6116C13.393 17.997 14.398 18.311 15.6315 18.311C16.8726 18.311 17.87 17.997 17.87 17.6116ZM4.47702 0.873384C4.47702 0.488049 3.47198 0.174072 2.23851 0.174072C1.00505 0.174072 0 0.488049 0 0.873384C0 1.25872 1.00505 1.57269 2.23851 1.57269C3.47198 1.57269 4.47702 1.2611 4.47702 0.873384ZM4.47702 5.05735C4.47702 4.67202 3.47198 4.35804 2.23851 4.35804C1.00505 4.35804 0 4.67202 0 5.05735C0 5.44269 1.00505 5.75667 2.23851 5.75667C3.47198 5.75667 4.47702 5.44507 4.47702 5.05735ZM4.47702 9.24133C4.47702 8.85599 3.47198 8.54202 2.23851 8.54202C1.00505 8.54202 0 8.85599 0 9.24133C0 9.62666 1.00505 9.94064 2.23851 9.94064C3.47198 9.94064 4.47702 9.62904 4.47702 9.24133ZM4.47702 13.4277C4.47702 13.0423 3.47198 12.7284 2.23851 12.7284C1.00505 12.7284 0 13.0423 0 13.4277C0 13.813 1.00505 14.127 2.23851 14.127C3.47198 14.127 4.47702 13.813 4.47702 13.4277ZM4.47702 17.6116C4.47702 17.2263 3.47198 16.9123 2.23851 16.9123C1.00505 16.9123 0 17.2263 0 17.6116C0 17.997 1.00505 18.311 2.23851 18.311C3.47198 18.311 4.47702 17.997 4.47702 17.6116Z" fill="#FF6F43"/>
</svg>
