<svg width="125" height="125" viewBox="0 0 125 125" fill="none" xmlns="http://www.w3.org/2000/svg">
<rect x="2.87923" y="2.67659" width="119.52" height="119.52" rx="59.7599" stroke="#FFF" stroke-width="4.80827"/>
<path d="M39.0591 60.8374C37.9861 61.9104 37.9861 63.6501 39.0591 64.7231L56.5446 82.2086C57.6176 83.2816 59.3573 83.2816 60.4303 82.2086C61.5033 81.1356 61.5033 79.3959 60.4303 78.3229L44.8876 62.7803L60.4303 47.2376C61.5033 46.1646 61.5033 44.4249 60.4303 43.3519C59.3573 42.2789 57.6176 42.2789 56.5446 43.3519L39.0591 60.8374ZM84.9632 65.5279C86.4807 65.5279 87.7108 64.2977 87.7108 62.7803C87.7108 61.2628 86.4807 60.0327 84.9632 60.0327V65.5279ZM41.002 65.5279H84.9632V60.0327H41.002V65.5279Z" fill="#FFFFFF"/>
</svg>
