<svg width="73" height="73" viewBox="0 0 73 73" fill="none" xmlns="http://www.w3.org/2000/svg">
<path d="M62.0412 61.5698H51.3705V45.0236C51.3705 41.078 51.2994 35.9988 45.8207 35.9988C40.263 35.9988 39.4126 40.2977 39.4126 44.7363V61.5687H28.7418V27.5429H38.9858V32.1929H39.1292C40.1544 30.4573 41.6358 29.0296 43.4156 28.0617C45.1955 27.0938 47.2072 26.622 49.2364 26.6966C60.0516 26.6966 62.0457 33.7404 62.0457 42.9039L62.0412 61.5698ZM16.7017 22.8919C15.477 22.8921 14.2797 22.5327 13.2612 21.8591C12.2428 21.1856 11.449 20.2281 10.9801 19.1079C10.5112 17.9876 10.3883 16.7548 10.627 15.5654C10.8657 14.376 11.4553 13.2834 12.3212 12.4257C13.187 11.5681 14.2903 10.9839 15.4915 10.7471C16.6926 10.5103 17.9377 10.6315 19.0693 11.0954C20.2009 11.5593 21.1681 12.345 21.8487 13.3532C22.5294 14.3613 22.8928 15.5467 22.893 16.7594C22.8931 17.5646 22.7331 18.3619 22.422 19.1058C22.111 19.8498 21.655 20.5258 21.0801 21.0952C20.5052 21.6647 19.8226 22.1164 19.0713 22.4247C18.3201 22.733 17.5149 22.8917 16.7017 22.8919ZM22.0371 61.5698H11.3552V27.5429H22.0371V61.5698ZM67.3611 0.817358H5.99321C4.60034 0.801794 3.25813 1.33441 2.26166 2.29816C1.26518 3.26192 0.695954 4.57796 0.678955 5.9571V66.9726C0.695373 68.3525 1.26427 69.6694 2.26071 70.6341C3.25715 71.5989 4.59965 72.1326 5.99321 72.1179H67.3611C68.7574 72.1352 70.1036 71.6031 71.104 70.6383C72.1044 69.6736 72.6771 68.3552 72.6964 66.9726V5.9527C72.6765 4.57082 72.1034 3.25328 71.103 2.28955C70.1026 1.32582 68.7567 0.794729 67.3611 0.812954" fill="#4F4F4F"/>
</svg>
