<svg width="80" height="80" viewBox="0 0 80 80" fill="none" xmlns="http://www.w3.org/2000/svg">
<path fill-rule="evenodd" clip-rule="evenodd" d="M31.4222 15.1933C18.8712 23.2537 11.8986 32.6353 10.5043 43.3382C8.33369 60 23.234 68.1555 30.7838 60.8278C38.3337 53.5002 33.808 44.1993 28.3412 41.657C22.8743 39.1145 19.5312 40 20.1143 36.6025C20.6975 33.2052 28.4752 23.7855 35.3082 19.3987C35.7615 19.0132 35.934 18.2652 35.4975 17.6977C35.2103 17.3245 34.6472 16.5926 33.808 15.5019C33.0742 14.5481 32.3712 14.5838 31.4222 15.1933Z" fill="#C8C8C8"/>
<path fill-rule="evenodd" clip-rule="evenodd" d="M64.4648 15.1933C51.914 23.2537 44.9413 32.6353 43.547 43.3382C41.3765 60 56.2768 68.1555 63.8266 60.8278C71.3765 53.5002 66.8508 44.1993 61.384 41.657C55.9171 39.1145 52.5738 40 53.1571 36.6025C53.7403 33.2052 61.518 23.7855 68.351 19.3987C68.8043 19.0132 68.9768 18.2652 68.5401 17.6977C68.2531 17.3245 67.69 16.5926 66.8508 15.5019C66.117 14.5481 65.414 14.5838 64.4648 15.1933Z" fill="#C8C8C8"/>
</svg>
