<svg width="80" height="80" viewBox="0 0 80 80" fill="none" xmlns="http://www.w3.org/2000/svg">
<path fill-rule="evenodd" clip-rule="evenodd" d="M48.5778 15.1933C61.1288 23.2537 68.1014 32.6353 69.4957 43.3382C71.6663 60 56.766 68.1555 49.2162 60.8278C41.6663 53.5002 46.192 44.1993 51.6588 41.657C57.1257 39.1145 60.4688 40 59.8857 36.6025C59.3025 33.2052 51.5248 23.7855 44.6918 19.3987C44.2385 19.0132 44.066 18.2652 44.5025 17.6977C44.7897 17.3245 45.3528 16.5926 46.192 15.5019C46.9258 14.5481 47.6288 14.5838 48.5778 15.1933Z" fill="#C8C8C8"/>
<path fill-rule="evenodd" clip-rule="evenodd" d="M15.5352 15.1933C28.086 23.2537 35.0587 32.6353 36.453 43.3382C38.6235 60 23.7232 68.1555 16.1734 60.8278C8.62352 53.5002 13.1492 44.1993 18.616 41.657C24.0829 39.1145 27.4262 40 26.8429 36.6025C26.2597 33.2052 18.482 23.7855 11.649 19.3987C11.1957 19.0132 11.0232 18.2652 11.4599 17.6977C11.7469 17.3245 12.31 16.5926 13.1492 15.5019C13.883 14.5481 14.586 14.5838 15.5352 15.1933Z" fill="#C8C8C8"/>
</svg>
