<svg width="80" height="81" viewBox="0 0 80 81" fill="none" xmlns="http://www.w3.org/2000/svg">
<path fill-rule="evenodd" clip-rule="evenodd" d="M48.5783 15.9335C61.1293 23.9939 68.1019 33.3756 69.4962 44.0784C71.6668 60.7402 56.7665 68.8957 49.2167 61.5681C41.6668 54.2404 46.1925 44.9396 51.6593 42.3972C57.1262 39.8547 60.4693 40.7402 59.8862 37.3427C59.303 33.9454 51.5253 24.5257 44.6923 20.1389C44.239 19.7534 44.0665 19.0054 44.503 18.4379C44.7902 18.0647 45.3533 17.3328 46.1925 16.2421C46.9263 15.2883 47.6293 15.324 48.5783 15.9335Z" fill="white"/>
<path fill-rule="evenodd" clip-rule="evenodd" d="M15.5354 15.9335C28.0863 23.9939 35.0589 33.3756 36.4533 44.0784C38.6238 60.7402 23.7234 68.8957 16.1736 61.5681C8.62377 54.2404 13.1494 44.9396 18.6163 42.3972C24.0831 39.8547 27.4264 40.7402 26.8431 37.3427C26.2599 33.9454 18.4823 24.5257 11.6493 20.1389C11.1959 19.7534 11.0234 19.0054 11.4601 18.4379C11.7471 18.0647 12.3103 17.3328 13.1494 16.2421C13.8833 15.2883 14.5863 15.324 15.5354 15.9335Z" fill="white"/>
</svg>
