<svg width="125" height="125" viewBox="0 0 125 125" fill="none" xmlns="http://www.w3.org/2000/svg">
<rect x="2.80428" y="2.67659" width="119.52" height="119.52" rx="59.7599" stroke="#FFF" stroke-width="4.80827"/>
<path d="M40.927 60.0327C39.4096 60.0327 38.1794 61.2628 38.1794 62.7803C38.1794 64.2977 39.4096 65.5279 40.927 65.5279V60.0327ZM86.8311 64.7231C87.9041 63.6501 87.9041 61.9104 86.8311 60.8374L69.3456 43.3519C68.2726 42.2789 66.533 42.2789 65.46 43.3519C64.387 44.4249 64.387 46.1646 65.46 47.2376L81.0026 62.7803L65.46 78.3229C64.387 79.3959 64.387 81.1356 65.46 82.2086C66.533 83.2816 68.2726 83.2816 69.3456 82.2086L86.8311 64.7231ZM40.927 65.5279H84.8883V60.0327H40.927V65.5279Z" fill="#fff"/>
</svg>
