<svg width="200" height="88" viewBox="0 0 200 88" fill="none" xmlns="http://www.w3.org/2000/svg">
<g id="txe afric logo 02 1" clip-path="url(#clip0_1472_1971)">
<g id="Layer_x0020_1">
<path id="Vector" d="M94.3613 56.1083V35.8861H86.6558V31.9404H106.676V35.8861H98.9354V56.1083H94.3613Z" fill="white"/>
<path id="Vector_2" d="M94.3613 56.1083V35.8861H86.6558V31.9404H106.676V35.8861H98.9354V56.1083H94.3613Z" fill="white"/>
<path id="Vector_3" d="M104.951 56.1082L111.566 46.5606L105.409 37.5771H110.616L114.275 43.3194H114.486L118.216 37.5771H123.107L116.914 46.4553L123.459 56.1082H118.322L114.205 49.6962H113.994L109.842 56.1082H104.951Z" fill="white"/>
<path id="Vector_4" d="M104.951 56.1082L111.566 46.5606L105.409 37.5771H110.616L114.275 43.3194H114.486L118.216 37.5771H123.107L116.914 46.4553L123.459 56.1082H118.322L114.205 49.6962H113.994L109.842 56.1082H104.951Z" fill="white"/>
<path id="Vector_5" d="M124.584 56.1083V31.9404H143.408V35.8511H129.158V41.8049H141.86V45.7154H129.158V52.1977H143.619V56.1083H124.584Z" fill="white"/>
<path id="Vector_6" d="M124.584 56.1083V31.9404H143.408V35.8511H129.158V41.8049H141.86V45.7154H129.158V52.1977H143.619V56.1083H124.584Z" fill="white"/>
<path id="Vector_7" d="M97.4571 87.1525C96.1201 87.1525 94.8413 87.0056 93.6219 86.7122C92.402 86.4187 91.3229 85.9607 90.385 85.3383C89.4465 84.7162 88.7076 83.9413 88.1681 83.0131C87.6283 82.0855 87.3589 80.9873 87.3589 79.7192C87.3589 79.5781 87.3645 79.4373 87.3765 79.2961C87.3881 79.1555 87.3943 79.0496 87.3943 78.9793H92.0035C92.0035 79.0265 91.9974 79.1144 91.9859 79.2433C91.9736 79.3727 91.9681 79.4846 91.9681 79.5781C91.9681 80.353 92.1908 81.017 92.6366 81.5685C93.0819 82.1207 93.7273 82.5436 94.5718 82.8368C95.416 83.1306 96.413 83.2771 97.5625 83.2771C98.3365 83.2771 99.0224 83.2303 99.6207 83.1361C100.219 83.0425 100.735 82.9074 101.169 82.7312C101.603 82.555 101.961 82.3436 102.242 82.0969C102.523 81.8504 102.728 81.5745 102.858 81.2689C102.986 80.9642 103.051 80.6349 103.051 80.2827C103.051 79.6016 102.84 79.0379 102.418 78.5913C101.996 78.1455 101.427 77.7698 100.711 77.464C99.9956 77.1593 99.1863 76.8829 98.2835 76.6362C97.3803 76.3895 96.4541 76.1375 95.504 75.8785C94.5541 75.6205 93.6271 75.3093 92.7244 74.9452C91.8211 74.5812 91.0116 74.1407 90.2965 73.624C89.5807 73.1077 89.0122 72.4559 88.5901 71.6687C88.1677 70.8822 87.9567 69.9369 87.9567 68.8327C87.9567 67.7052 88.1967 66.7188 88.6781 65.8732C89.1584 65.028 89.8391 64.3292 90.7187 63.7771C91.5982 63.2257 92.6242 62.8143 93.7974 62.5441C94.97 62.2744 96.2482 62.1392 97.6326 62.1392C98.9224 62.1392 100.136 62.2744 101.274 62.5441C102.412 62.8143 103.414 63.2371 104.282 63.8122C105.15 64.3881 105.831 65.1159 106.323 65.9966C106.816 66.8772 107.062 67.9288 107.062 69.1496V69.5726H102.523V69.2204C102.523 68.5394 102.318 67.964 101.908 67.4941C101.497 67.0244 100.923 66.6606 100.184 66.402C99.4446 66.1439 98.5827 66.0146 97.5975 66.0146C96.542 66.0146 95.6387 66.1146 94.8884 66.3137C94.1376 66.5138 93.5629 66.8073 93.1644 67.1948C92.7652 67.5822 92.5661 68.0578 92.5661 68.6215C92.5661 69.209 92.7771 69.7022 93.1994 70.1014C93.6216 70.5008 94.19 70.8413 94.9058 71.1228C95.6211 71.4048 96.4302 71.6634 97.3336 71.8979C98.2364 72.133 99.1632 72.3856 100.113 72.6553C101.063 72.9256 101.989 73.2367 102.893 73.5888C103.795 73.9412 104.605 74.3815 105.321 74.91C106.036 75.4386 106.605 76.0902 107.027 76.8653C107.449 77.6402 107.66 78.5684 107.66 79.6484C107.66 81.4574 107.221 82.9131 106.341 84.0168C105.461 85.121 104.253 85.9194 102.717 86.4124C101.18 86.9056 99.427 87.1523 97.4566 87.1523L97.4571 87.1525Z" fill="white"/>
<path id="Vector_8" d="M97.4571 87.1525C96.1201 87.1525 94.8413 87.0056 93.6219 86.7122C92.402 86.4187 91.3229 85.9607 90.385 85.3383C89.4465 84.7162 88.7076 83.9413 88.1681 83.0131C87.6283 82.0855 87.3589 80.9873 87.3589 79.7192C87.3589 79.5781 87.3645 79.4373 87.3765 79.2961C87.3881 79.1555 87.3943 79.0496 87.3943 78.9793H92.0035C92.0035 79.0265 91.9974 79.1144 91.9859 79.2433C91.9736 79.3727 91.9681 79.4846 91.9681 79.5781C91.9681 80.353 92.1908 81.017 92.6366 81.5685C93.0819 82.1207 93.7273 82.5436 94.5718 82.8368C95.416 83.1306 96.413 83.2771 97.5625 83.2771C98.3365 83.2771 99.0224 83.2303 99.6207 83.1361C100.219 83.0425 100.735 82.9074 101.169 82.7312C101.603 82.555 101.961 82.3436 102.242 82.0969C102.523 81.8504 102.728 81.5745 102.858 81.2689C102.986 80.9642 103.051 80.6349 103.051 80.2827C103.051 79.6016 102.84 79.0379 102.418 78.5913C101.996 78.1455 101.427 77.7698 100.711 77.464C99.9956 77.1593 99.1863 76.8829 98.2835 76.6362C97.3803 76.3895 96.4541 76.1375 95.504 75.8785C94.5541 75.6205 93.6271 75.3093 92.7244 74.9452C91.8211 74.5812 91.0116 74.1407 90.2965 73.624C89.5807 73.1077 89.0122 72.4559 88.5901 71.6687C88.1677 70.8822 87.9567 69.9369 87.9567 68.8327C87.9567 67.7052 88.1967 66.7188 88.6781 65.8732C89.1584 65.028 89.8391 64.3292 90.7187 63.7771C91.5982 63.2257 92.6242 62.8143 93.7974 62.5441C94.97 62.2744 96.2482 62.1392 97.6326 62.1392C98.9224 62.1392 100.136 62.2744 101.274 62.5441C102.412 62.8143 103.414 63.2371 104.282 63.8122C105.15 64.3881 105.831 65.1159 106.323 65.9966C106.816 66.8772 107.062 67.9288 107.062 69.1496V69.5726H102.523V69.2204C102.523 68.5394 102.318 67.964 101.908 67.4941C101.497 67.0244 100.923 66.6606 100.184 66.402C99.4446 66.1439 98.5827 66.0146 97.5975 66.0146C96.542 66.0146 95.6387 66.1146 94.8884 66.3137C94.1376 66.5138 93.5629 66.8073 93.1644 67.1948C92.7652 67.5822 92.5661 68.0578 92.5661 68.6215C92.5661 69.209 92.7771 69.7022 93.1994 70.1014C93.6216 70.5008 94.19 70.8413 94.9058 71.1228C95.6211 71.4048 96.4302 71.6634 97.3336 71.8979C98.2364 72.133 99.1632 72.3856 100.113 72.6553C101.063 72.9256 101.989 73.2367 102.893 73.5888C103.795 73.9412 104.605 74.3815 105.321 74.91C106.036 75.4386 106.605 76.0902 107.027 76.8653C107.449 77.6402 107.66 78.5684 107.66 79.6484C107.66 81.4574 107.221 82.9131 106.341 84.0168C105.461 85.121 104.253 85.9194 102.717 86.4124C101.18 86.9056 99.427 87.1523 97.4566 87.1523L97.4571 87.1525Z" fill="white"/>
<path id="Vector_9" d="M115.506 87.1526C113.723 87.1526 112.275 86.6654 111.161 85.6908C110.046 84.7163 109.49 83.0545 109.49 80.7055V68.1987H113.782V79.9306C113.782 80.5884 113.858 81.1342 114.011 81.5685C114.163 82.0035 114.386 82.3557 114.679 82.6256C114.972 82.8957 115.33 83.0894 115.752 83.2067C116.175 83.3245 116.643 83.3829 117.16 83.3829C117.934 83.3829 118.632 83.1951 119.253 82.8192C119.875 82.4438 120.367 81.9208 120.731 81.2515C121.094 80.582 121.276 79.8245 121.276 78.9792V68.1985H125.569V86.7297H122.015L121.664 84.2637H121.417C120.995 84.8274 120.496 85.3266 119.922 85.7607C119.347 86.1957 118.69 86.5359 117.951 86.7825C117.212 87.029 116.397 87.1524 115.506 87.1524L115.506 87.1526Z" fill="white"/>
<path id="Vector_10" d="M115.506 87.1526C113.723 87.1526 112.275 86.6654 111.161 85.6908C110.046 84.7163 109.49 83.0545 109.49 80.7055V68.1987H113.782V79.9306C113.782 80.5884 113.858 81.1342 114.011 81.5685C114.163 82.0035 114.386 82.3557 114.679 82.6256C114.972 82.8957 115.33 83.0894 115.752 83.2067C116.175 83.3245 116.643 83.3829 117.16 83.3829C117.934 83.3829 118.632 83.1951 119.253 82.8192C119.875 82.4438 120.367 81.9208 120.731 81.2515C121.094 80.582 121.276 79.8245 121.276 78.9792V68.1985H125.569V86.7297H122.015L121.664 84.2637H121.417C120.995 84.8274 120.496 85.3266 119.922 85.7607C119.347 86.1957 118.69 86.5359 117.951 86.7825C117.212 87.029 116.397 87.1524 115.506 87.1524L115.506 87.1526Z" fill="white"/>
<path id="Vector_11" d="M128.243 86.7298V68.1986H131.832L132.184 70.6647H132.43C132.829 70.101 133.286 69.6023 133.802 69.1675C134.318 68.7332 134.911 68.3924 135.579 68.1457C136.248 67.8992 136.981 67.7759 137.778 67.7759C138.857 67.7759 139.819 67.9994 140.664 68.4451C141.508 68.8916 142.164 69.6315 142.634 70.6649H142.88C143.279 70.1012 143.748 69.6025 144.288 69.1677C144.827 68.7334 145.449 68.3926 146.153 68.1459C146.856 67.8994 147.618 67.7761 148.44 67.7761C149.542 67.7761 150.515 67.9757 151.36 68.375C152.205 68.7747 152.873 69.4318 153.365 70.3479C153.858 71.264 154.105 72.4855 154.105 74.012V86.7301H149.812V74.8927C149.812 74.2585 149.741 73.7246 149.601 73.2898C149.46 72.8555 149.266 72.5147 149.02 72.268C148.774 72.0216 148.469 71.8399 148.105 71.7221C147.741 71.6048 147.349 71.5459 146.926 71.5459C146.246 71.5459 145.636 71.734 145.097 72.1096C144.557 72.4855 144.13 73.0025 143.813 73.6596C143.496 74.3174 143.338 75.0808 143.338 75.9495V86.7301H139.045V74.8927C139.045 74.2585 138.975 73.7246 138.834 73.2898C138.693 72.8555 138.5 72.5147 138.254 72.268C138.008 72.0216 137.702 71.8399 137.339 71.7221C136.975 71.6048 136.582 71.5459 136.16 71.5459C135.48 71.5459 134.864 71.734 134.313 72.1096C133.762 72.4855 133.328 73.0025 133.011 73.6596C132.695 74.3174 132.536 75.0808 132.536 75.9495V86.7301H128.244L128.243 86.7298Z" fill="white"/>
<path id="Vector_12" d="M128.243 86.7298V68.1986H131.832L132.184 70.6647H132.43C132.829 70.101 133.286 69.6023 133.802 69.1675C134.318 68.7332 134.911 68.3924 135.579 68.1457C136.248 67.8992 136.981 67.7759 137.778 67.7759C138.857 67.7759 139.819 67.9994 140.664 68.4451C141.508 68.8916 142.164 69.6315 142.634 70.6649H142.88C143.279 70.1012 143.748 69.6025 144.288 69.1677C144.827 68.7334 145.449 68.3926 146.153 68.1459C146.856 67.8994 147.618 67.7761 148.44 67.7761C149.542 67.7761 150.515 67.9757 151.36 68.375C152.205 68.7747 152.873 69.4318 153.365 70.3479C153.858 71.264 154.105 72.4855 154.105 74.012V86.7301H149.812V74.8927C149.812 74.2585 149.741 73.7246 149.601 73.2898C149.46 72.8555 149.266 72.5147 149.02 72.268C148.774 72.0216 148.469 71.8399 148.105 71.7221C147.741 71.6048 147.349 71.5459 146.926 71.5459C146.246 71.5459 145.636 71.734 145.097 72.1096C144.557 72.4855 144.13 73.0025 143.813 73.6596C143.496 74.3174 143.338 75.0808 143.338 75.9495V86.7301H139.045V74.8927C139.045 74.2585 138.975 73.7246 138.834 73.2898C138.693 72.8555 138.5 72.5147 138.254 72.268C138.008 72.0216 137.702 71.8399 137.339 71.7221C136.975 71.6048 136.582 71.5459 136.16 71.5459C135.48 71.5459 134.864 71.734 134.313 72.1096C133.762 72.4855 133.328 73.0025 133.011 73.6596C132.695 74.3174 132.536 75.0808 132.536 75.9495V86.7301H128.244L128.243 86.7298Z" fill="white"/>
<path id="Vector_13" d="M156.638 86.7298V68.1986H160.227L160.579 70.6647H160.825C161.224 70.101 161.681 69.6023 162.197 69.1675C162.713 68.7332 163.306 68.3924 163.974 68.1457C164.643 67.8992 165.376 67.7759 166.173 67.7759C167.252 67.7759 168.214 67.9994 169.058 68.4451C169.903 68.8916 170.559 69.6315 171.029 70.6649H171.275C171.674 70.1012 172.142 69.6025 172.682 69.1677C173.222 68.7334 173.844 68.3926 174.547 68.1459C175.251 67.8994 176.013 67.7761 176.834 67.7761C177.936 67.7761 178.91 67.9757 179.754 68.375C180.599 68.7747 181.267 69.4318 181.76 70.3479C182.253 71.264 182.499 72.4855 182.499 74.012V86.7301H178.206V74.8927C178.206 74.2585 178.136 73.7246 177.995 73.2898C177.855 72.8555 177.661 72.5147 177.415 72.268C177.168 72.0216 176.863 71.8399 176.5 71.7221C176.136 71.6048 175.744 71.5459 175.321 71.5459C174.641 71.5459 174.031 71.734 173.492 72.1096C172.952 72.4855 172.524 73.0025 172.207 73.6596C171.891 74.3174 171.732 75.0808 171.732 75.9495V86.7301H167.44V74.8927C167.44 74.2585 167.369 73.7246 167.229 73.2898C167.088 72.8555 166.894 72.5147 166.648 72.268C166.402 72.0216 166.097 71.8399 165.734 71.7221C165.369 71.6048 164.977 71.5459 164.555 71.5459C163.874 71.5459 163.258 71.734 162.707 72.1096C162.156 72.4855 161.722 73.0025 161.406 73.6596C161.089 74.3174 160.931 75.0808 160.931 75.9495V86.7301H156.638V86.7298Z" fill="white"/>
<path id="Vector_14" d="M156.638 86.7298V68.1986H160.227L160.579 70.6647H160.825C161.224 70.101 161.681 69.6023 162.197 69.1675C162.713 68.7332 163.306 68.3924 163.974 68.1457C164.643 67.8992 165.376 67.7759 166.173 67.7759C167.252 67.7759 168.214 67.9994 169.058 68.4451C169.903 68.8916 170.559 69.6315 171.029 70.6649H171.275C171.674 70.1012 172.142 69.6025 172.682 69.1677C173.222 68.7334 173.844 68.3926 174.547 68.1459C175.251 67.8994 176.013 67.7761 176.834 67.7761C177.936 67.7761 178.91 67.9757 179.754 68.375C180.599 68.7747 181.267 69.4318 181.76 70.3479C182.253 71.264 182.499 72.4855 182.499 74.012V86.7301H178.206V74.8927C178.206 74.2585 178.136 73.7246 177.995 73.2898C177.855 72.8555 177.661 72.5147 177.415 72.268C177.168 72.0216 176.863 71.8399 176.5 71.7221C176.136 71.6048 175.744 71.5459 175.321 71.5459C174.641 71.5459 174.031 71.734 173.492 72.1096C172.952 72.4855 172.524 73.0025 172.207 73.6596C171.891 74.3174 171.732 75.0808 171.732 75.9495V86.7301H167.44V74.8927C167.44 74.2585 167.369 73.7246 167.229 73.2898C167.088 72.8555 166.894 72.5147 166.648 72.268C166.402 72.0216 166.097 71.8399 165.734 71.7221C165.369 71.6048 164.977 71.5459 164.555 71.5459C163.874 71.5459 163.258 71.734 162.707 72.1096C162.156 72.4855 161.722 73.0025 161.406 73.6596C161.089 74.3174 160.931 75.0808 160.931 75.9495V86.7301H156.638V86.7298Z" fill="white"/>
<path id="Vector_15" d="M185.031 68.1985H189.324V86.7297H185.031V68.1985ZM185.031 61.2581H189.324V65.3447H185.031V61.2581Z" fill="white"/>
<path id="Vector_16" d="M196.888 87.1525C195.739 87.1525 194.835 86.9238 194.179 86.4657C193.522 86.0077 193.058 85.4211 192.789 84.7042C192.519 83.9881 192.384 83.2543 192.384 82.5025V71.7219H190.168V68.1988H192.49L193.264 63.02H196.677V68.1988H199.879V71.7219H196.677V82.0796C196.677 82.5727 196.806 82.9548 197.064 83.2244C197.322 83.4948 197.709 83.6297 198.225 83.6297H199.879V86.589C199.644 86.6832 199.356 86.7707 199.017 86.8531C198.676 86.935 198.318 87.0058 197.943 87.0647C197.568 87.123 197.216 87.1527 196.888 87.1527L196.888 87.1525Z" fill="white"/>
<path id="Vector_17" d="M196.888 87.1525C195.739 87.1525 194.835 86.9238 194.179 86.4657C193.522 86.0077 193.058 85.4211 192.789 84.7042C192.519 83.9881 192.384 83.2543 192.384 82.5025V71.7219H190.168V68.1988H192.49L193.264 63.02H196.677V68.1988H199.879V71.7219H196.677V82.0796C196.677 82.5727 196.806 82.9548 197.064 83.2244C197.322 83.4948 197.709 83.6297 198.225 83.6297H199.879V86.589C199.644 86.6832 199.356 86.7707 199.017 86.8531C198.676 86.935 198.318 87.0058 197.943 87.0647C197.568 87.123 197.216 87.1527 196.888 87.1527L196.888 87.1525Z" fill="white"/>
<path id="Vector_18" d="M22.8838 68.5182V68.5201C23.3282 68.735 23.7776 68.9388 24.2331 69.128C24.7161 69.3318 25.2064 69.5206 25.7025 69.6949H25.7043C26.2355 69.8839 26.774 70.058 27.3181 70.2156C27.8124 70.3583 28.3083 70.4882 28.8098 70.6067H28.8117C28.8969 70.6271 28.9818 70.6455 29.0672 70.6661H29.0691C29.0837 70.6697 29.0986 70.6716 29.1136 70.6752H29.1151H29.117C29.6279 70.7901 30.1443 70.892 30.6625 70.9793H30.6642C30.7974 71.0033 30.9346 71.0254 31.0697 71.0477H31.0716C31.0955 71.0513 31.1176 71.0551 31.1418 71.0587C31.6766 71.1422 32.2133 71.2108 32.7537 71.2664C32.9609 71.2885 33.1701 71.307 33.3773 71.3237H33.3792C33.42 71.3293 33.4571 71.3312 33.4959 71.3329H33.4976C34.3878 71.4072 35.278 71.4422 36.174 71.4422C36.1295 71.4571 36.0851 71.472 36.0408 71.4866H36.2221L36.3536 71.4422H36.3553H36.3591C37.6711 71.4348 38.9852 71.3514 40.2899 71.1919L40.2918 71.1938L40.2937 71.1919H40.2956C44.8335 70.6454 49.2623 69.1998 53.1212 66.9429C53.9522 66.4573 54.7574 65.9328 55.5308 65.3714C55.5308 65.3695 55.5327 65.3695 55.5327 65.3695C55.7602 65.2063 55.9825 65.0397 56.2045 64.8675L56.2062 64.8656H56.2081C56.6337 64.5376 57.0502 64.1985 57.4537 63.8462C57.7186 63.6165 57.9794 63.3812 58.2346 63.1404L58.2365 63.1385C58.2568 63.1181 58.2753 63.1015 58.2977 63.0811C58.5883 62.8049 58.8731 62.5235 59.1509 62.2343C59.0527 62.121 58.9676 61.9972 58.8935 61.8655C58.8879 61.8581 58.8824 61.8488 58.8788 61.8396C58.7232 61.5615 58.614 61.2521 58.5401 60.9277C58.5382 60.9185 58.5363 60.9092 58.5327 60.8982C58.4623 60.5755 58.4271 60.2422 58.4161 59.9161V59.9142C58.4031 59.5379 58.4235 59.171 58.4606 58.8449C58.5234 58.3057 58.631 57.8813 58.7125 57.7074C58.714 57.698 58.7199 57.6887 58.7235 57.6814C58.766 57.5312 59.0827 57.0513 59.4933 56.3933C59.5026 56.3803 59.5101 56.3674 59.5173 56.3544C59.7542 55.9763 60.0209 55.539 60.2819 55.0759C60.2893 55.063 60.2966 55.05 60.3023 55.0386C60.4077 54.8515 60.5114 54.6605 60.6132 54.468C60.5 54.6644 60.3837 54.8588 60.2635 55.05C60.2561 55.063 60.2486 55.0776 60.2376 55.0906C59.9598 55.5409 59.6655 55.9801 59.3582 56.4062C59.3491 56.4211 59.3398 56.434 59.3287 56.4472V56.4491C58.9752 56.9381 58.605 57.4127 58.2184 57.8703C57.987 58.1446 57.7503 58.4132 57.5079 58.6746C57.284 58.9173 57.0561 59.1546 56.823 59.3863L56.8211 59.388C56.5991 59.6122 56.3732 59.829 56.14 60.0443C55.7663 60.3925 55.3812 60.7261 54.9872 61.0503L54.9853 61.0522H54.9816C54.1154 61.7621 53.2067 62.4161 52.2554 63.0089C52.2554 63.0089 52.2554 63.0108 52.2535 63.0108C52.2351 63.0257 52.2166 63.0368 52.1963 63.048C52.1963 63.0499 52.1945 63.0499 52.1945 63.0499C51.7482 63.328 51.2912 63.5947 50.8287 63.8466C50.1863 64.1988 49.5292 64.5269 48.8593 64.829H48.8577C45.8557 66.1818 42.6058 67.0379 39.3022 67.3677H39.3004C39.2078 67.377 39.117 67.3862 39.0246 67.3936H39.0227C38.9599 67.401 38.9005 67.4065 38.8395 67.4102H38.8376C37.716 67.5085 36.5891 67.5439 35.4656 67.518H35.4637C34.5754 67.4976 33.6907 67.4382 32.8116 67.3418H32.8097C32.0732 67.2602 31.3402 67.1509 30.6147 67.0139H30.6128C29.9707 66.8952 29.3341 66.7543 28.7049 66.5914H28.703C28.133 66.445 27.5685 66.2799 27.0114 66.0983H27.0095C26.495 65.9315 25.9882 65.7482 25.4844 65.5499C25.4827 65.5499 25.4827 65.548 25.4827 65.548C25.0274 65.37 24.5757 65.1772 24.1316 64.9736C24.1187 64.9681 24.1057 64.9606 24.0907 64.9551C23.6613 64.7568 23.2357 64.5474 22.8175 64.3251C22.8156 64.3232 22.8156 64.3232 22.8137 64.3232C22.5917 64.2045 22.3714 64.0841 22.1548 63.9601C21.9847 63.8637 21.8145 63.7654 21.648 63.6635H21.6461C21.6424 63.6616 21.6387 63.6598 21.6369 63.6579C21.2703 63.4374 20.9077 63.2076 20.5524 62.9668C20.5505 62.9668 20.5486 62.9649 20.5469 62.9632C20.2119 62.7389 19.8806 62.5037 19.5568 62.2608C19.553 62.257 19.5513 62.2552 19.5475 62.2514H19.5456C19.542 62.2495 19.5401 62.2478 19.5365 62.244H19.5346C19.2218 62.0087 18.9145 61.7659 18.6129 61.514C18.6074 61.5102 18.6017 61.5066 18.5962 61.501V61.4991C18.2982 61.2545 18.0079 60.9987 17.721 60.7354C17.4432 60.4817 17.1729 60.2184 16.9084 59.9498H16.9065C16.6974 59.7388 16.4902 59.5217 16.2883 59.3013C15.9238 59.5495 15.5905 59.733 15.5905 59.733C15.5905 59.733 15.6478 59.9627 15.7276 60.3391V60.3409L15.9183 61.3323V61.3342C15.9702 61.6436 16.0239 61.9827 16.0682 62.3366V62.3385C16.0682 62.344 16.0699 62.3511 16.0699 62.3587C16.0811 62.4515 16.0922 62.5441 16.1032 62.6387C16.1348 62.9276 16.1662 63.1539 16.2069 63.3297C16.2069 63.3353 16.2088 63.3391 16.2088 63.3446C16.2124 63.3539 16.2143 63.365 16.2161 63.3741C16.2863 63.6578 16.3791 63.7967 16.5326 63.8466C16.6363 63.8801 16.7657 63.8746 16.9343 63.8466H19.7104C19.8416 63.9374 19.9472 64.0523 20.0342 64.1876C20.0397 64.195 20.0433 64.2005 20.0471 64.208C20.2008 64.4507 20.3006 64.7583 20.4098 65.1197C20.4117 65.1253 20.4134 65.1308 20.4153 65.1382C20.4986 65.4198 20.5894 65.7331 20.7115 66.0741C20.7614 66.2167 20.8188 66.363 20.8835 66.5133C20.9815 66.6855 21.0723 66.8356 21.1535 66.9819H21.1554C21.2926 67.2286 21.4018 67.4639 21.4737 67.7845C21.5294 67.8161 21.5848 67.8476 21.6423 67.8771C21.792 67.9605 21.944 68.0422 22.0974 68.1217C22.3567 68.2606 22.6195 68.3924 22.8841 68.5183L22.8838 68.5182Z" fill="white"/>
<path id="Vector_19" d="M15.8342 40.2594C15.8138 39.9111 15.8028 39.5625 15.8009 39.2142V39.2123C15.7972 38.8584 15.8028 38.5062 15.8157 38.1543C15.8286 37.7946 15.8492 37.437 15.8787 37.0793V37.0774C15.9082 36.7106 15.947 36.3472 15.9953 35.9839C16.0433 35.6116 16.1007 35.2409 16.1694 34.8721C16.2358 34.4959 16.3117 34.1236 16.3987 33.751C16.4006 33.7473 16.4006 33.7454 16.4006 33.7416V33.7399C16.4913 33.3524 16.5931 32.9672 16.7059 32.5853V32.5836C16.8191 32.1869 16.9449 31.7939 17.0817 31.4049C17.2263 30.9953 17.3815 30.5932 17.5501 30.195C17.5501 30.1931 17.552 30.1931 17.552 30.1931C17.7202 29.7873 17.9038 29.3888 18.0979 28.9958C18.1053 28.9792 18.1127 28.9643 18.1218 28.9497C18.3313 28.5271 18.5549 28.1137 18.7957 27.708C18.8031 27.6931 18.8123 27.6784 18.8233 27.6634V27.6615C19.0881 27.213 19.3714 26.7739 19.6713 26.3478C19.6768 26.3384 19.6823 26.3293 19.6897 26.3218V26.3199H19.6915C19.9302 25.9772 20.1838 25.6436 20.4466 25.3175C20.5558 25.1805 20.6667 25.0453 20.7834 24.9117L20.7853 24.9098C20.7853 24.9062 20.7889 24.9043 20.7944 24.9007V24.8988C21.2516 24.3613 21.7421 23.8462 22.264 23.3589L22.5139 23.2755L22.264 23.357C22.4158 23.2145 22.5712 23.0735 22.7305 22.9345C23.2875 22.4473 23.876 21.9876 24.4999 21.5632C24.4999 21.5613 24.5016 21.5613 24.5016 21.5613L24.5054 21.5596C27.3536 19.61 30.8995 18.3258 35.1453 18.0347H35.1508C35.5932 18.0051 36.0429 17.9848 36.5018 17.9773C37.096 17.9886 37.6752 18.0183 38.2435 18.0646H38.2454C39.03 18.1313 39.7908 18.2314 40.5273 18.3629H40.5292C40.666 18.3869 40.7996 18.4128 40.9345 18.4389H40.9364C41.4436 18.5408 41.9415 18.6557 42.4263 18.7891H42.4299C42.5039 18.8076 42.58 18.83 42.6539 18.8504C43.1368 18.9857 43.6071 19.1375 44.0661 19.3006C44.0993 19.3135 44.1326 19.3265 44.166 19.3379C44.6231 19.5063 45.0675 19.6861 45.5005 19.8807C45.5134 19.8864 45.5264 19.8919 45.5393 19.8974C45.9649 20.0902 46.3776 20.294 46.7793 20.5108L46.7812 20.5127C47.1752 20.7257 47.5584 20.95 47.9305 21.1852L47.9321 21.1871C48.2894 21.4114 48.6337 21.6485 48.9705 21.895L48.9631 21.8988L48.9741 21.8969C49.2998 22.1341 49.6162 22.3806 49.9218 22.6363H49.9235C50.042 22.7346 50.1585 22.8346 50.2734 22.9346C50.4492 23.0886 50.6212 23.2461 50.7896 23.4035V23.4054C51.032 23.6332 51.2673 23.8666 51.4967 24.1078L51.5318 24.2133L51.5816 24.1967C51.8314 24.4615 52.0721 24.7341 52.3054 25.0121C52.5348 25.2843 52.755 25.5625 52.9698 25.8461V25.8477C53.1789 26.1258 53.3824 26.4112 53.5748 26.7002C53.5767 26.7002 53.5767 26.7021 53.5767 26.7021C53.5858 26.7167 53.5952 26.7297 53.6043 26.7446C53.7858 27.0168 53.9616 27.293 54.1281 27.5729V27.5748C54.1391 27.5896 54.1484 27.6043 54.1559 27.6212C54.3225 27.8971 54.4797 28.1771 54.6294 28.4606V28.4625C54.6407 28.481 54.6519 28.4995 54.6593 28.518C54.809 28.7976 54.9517 29.0794 55.0849 29.3667C55.0959 29.3871 55.1053 29.4055 55.1127 29.4261C55.2459 29.7097 55.3737 29.9969 55.4919 30.2859C55.6214 30.5935 55.7417 30.905 55.8564 31.2199L55.7213 31.2664L55.8564 31.2218C55.9711 31.535 56.0767 31.8518 56.1766 32.1705C56.2748 32.4892 56.3673 32.8099 56.4525 33.1344C56.506 33.3383 56.5579 33.5457 56.6062 33.7513C56.6338 33.8717 56.6597 33.9904 56.6856 34.111C56.7579 34.4408 56.8208 34.7705 56.8762 35.1041C56.9337 35.4377 56.9835 35.773 57.0263 36.1084C57.0668 36.4475 57.1022 36.7884 57.13 37.1295C57.1576 37.4742 57.178 37.8209 57.189 38.1655C57.2019 38.5157 57.2075 38.866 57.2038 39.2144C57.2019 39.5701 57.1909 39.9258 57.1685 40.2799V40.2818C57.1519 40.643 57.1241 41.0044 57.087 41.3639C57.0501 41.7327 57.0037 42.0996 56.9483 42.4646C56.8929 42.8409 56.8281 43.2133 56.7522 43.584C56.6763 43.9674 56.591 44.3474 56.4929 44.7255V44.7274C56.393 45.1182 56.2838 45.5038 56.1616 45.8893V45.8911C56.0378 46.2915 55.9006 46.6881 55.7526 47.0808H55.751C55.5973 47.494 55.4287 47.9018 55.2457 48.304C55.0606 48.7191 54.8606 49.1287 54.646 49.5308C54.6405 49.5419 54.635 49.5529 54.6275 49.564C54.4017 49.9921 54.1572 50.411 53.9002 50.8205C53.8947 50.8316 53.8872 50.8427 53.8798 50.852C53.8762 50.8594 53.8724 50.863 53.8688 50.8686V50.8705C53.5781 51.3319 53.2672 51.7822 52.9378 52.2177C52.9323 52.2252 52.9266 52.2326 52.9211 52.2398C52.8028 52.3976 52.6825 52.5513 52.5583 52.7031C52.2843 53.0422 51.9976 53.3739 51.6996 53.6982L51.6977 53.7001C51.6977 53.7001 51.6958 53.702 51.6941 53.7037C51.4664 53.9504 51.2295 54.1931 50.9869 54.4284H50.9854C50.754 54.6543 50.517 54.873 50.2746 55.0862C50.1857 55.1622 50.099 55.2382 50.0101 55.3121C50.0101 55.314 50.0082 55.314 50.0082 55.314C49.986 55.3325 49.9658 55.3512 49.9435 55.3679C49.8676 55.4327 49.7898 55.4958 49.7122 55.5588C48.9073 56.2111 48.0354 56.806 47.0989 57.3322V57.3341C47.0341 57.384 46.9713 57.4101 46.9064 57.4601L46.9045 57.462H46.9028C46.9009 57.462 46.9009 57.462 46.899 57.4639H46.8973C46.8954 57.4639 46.8954 57.4654 46.8935 57.4654H46.8917C46.8898 57.4654 46.8898 57.4654 46.8879 57.4673H46.886C46.8845 57.4673 46.8845 57.4692 46.8824 57.4692H46.8805C46.879 57.4692 46.879 57.4709 46.8769 57.4709H46.875C46.8731 57.4709 46.8731 57.4728 46.8714 57.4728H46.8695C46.8676 57.4728 46.8676 57.4747 46.8659 57.4747H46.864C46.8621 57.4747 46.8621 57.4766 46.8602 57.4766H46.8586C46.8567 57.4766 46.8567 57.4784 46.8548 57.4784H46.8533C46.8514 57.4784 46.8514 57.4803 46.8495 57.4803H46.8476C46.8458 57.4803 46.8458 57.4822 46.844 57.4822H46.8421C46.8403 57.4822 46.8403 57.4839 46.8384 57.4839H46.8365C46.8348 57.4839 46.8348 57.4858 46.8329 57.4858H46.831C46.8291 57.4858 46.8291 57.4877 46.8274 57.4877H46.8255C46.8236 57.4877 46.8236 57.4896 46.8217 57.4896H46.82C46.8181 57.4896 46.8181 57.4911 46.8162 57.4911H46.8144C46.8126 57.4911 46.8126 57.493 46.8107 57.493C44.8396 58.5604 42.5855 59.3368 40.0534 59.7389H40.0498C39.9221 59.7593 39.7908 59.778 39.6613 59.7963H39.6594C38.6506 59.9391 37.5975 60.0224 36.502 60.043C36.3283 60.0392 36.1559 60.0355 35.9837 60.0281C35.9209 60.0262 35.8618 60.0245 35.7986 60.0207H35.795C35.7286 60.0188 35.6637 60.0151 35.5988 60.0115H35.5969C34.8087 59.9706 34.0479 59.8966 33.3076 59.7909H33.3057C33.2503 59.7835 33.1949 59.7761 33.1411 59.7688H33.1392C33.0208 59.7503 32.9025 59.7298 32.7858 59.7094H32.7839C32.2695 59.6259 31.7661 59.524 31.2754 59.4091H31.2738C31.233 59.3998 31.1941 59.3907 31.1553 59.3796H31.1536C31.1017 59.3684 31.0518 59.3554 31 59.3407H30.9982C30.5172 59.2221 30.0469 59.0885 29.5898 58.9403H29.5879C29.5731 58.9367 29.5621 58.9312 29.549 58.9256H29.5471C29.5101 58.9144 29.4711 58.9014 29.4342 58.8883C29.4806 58.8736 29.5269 58.8569 29.5729 58.8422C29.5231 58.8569 29.473 58.8717 29.4232 58.8849C28.9493 58.729 28.4884 58.5568 28.0407 58.3715V58.3697C28.013 58.3604 27.985 58.3475 27.9574 58.3364C27.9555 58.3364 27.9536 58.3345 27.9519 58.3345H27.95C27.5225 58.1547 27.1079 57.9622 26.7025 57.7601V57.7582C26.2917 57.5526 25.8918 57.332 25.5052 57.1004H25.5033C25.1315 56.8781 24.7723 56.6464 24.4226 56.4054V56.4035C24.0858 56.1702 23.7582 55.9273 23.4399 55.6754C23.2492 55.5251 23.0622 55.3714 22.8792 55.214C22.7644 55.1157 22.6533 55.0176 22.5424 54.9174H22.5405C22.535 54.9119 22.5295 54.9063 22.5257 54.9044C22.3664 54.76 22.2112 54.6153 22.0592 54.4672C21.9444 54.3579 21.8316 54.2466 21.7224 54.1336H21.7205C21.6501 54.0614 21.5818 53.991 21.5114 53.9169C21.3282 53.7241 21.1486 53.5278 20.9711 53.3274C20.7342 53.0568 20.5046 52.7809 20.2844 52.4993C20.0677 52.2231 19.8586 51.9394 19.6588 51.6523C19.4589 51.3688 19.2664 51.0797 19.0852 50.787C18.9018 50.4979 18.7277 50.2032 18.5631 49.905C18.3965 49.6103 18.2393 49.3101 18.0911 49.0062C17.9414 48.706 17.7987 48.4019 17.6655 48.0925C17.5304 47.7868 17.4047 47.4772 17.2844 47.164V47.1621C17.1642 46.8508 17.053 46.5376 16.9476 46.2208C16.8439 45.9021 16.7458 45.5815 16.6533 45.2609C16.5645 44.9384 16.4811 44.6141 16.4054 44.2899C16.3293 43.9618 16.2591 43.634 16.198 43.3038C16.135 42.9704 16.0797 42.6369 16.0334 42.3014C15.9855 41.9642 15.9446 41.627 15.9113 41.2877C15.878 40.945 15.8519 40.6021 15.8354 40.2592L15.8342 40.2594ZM16.545 53.7372C16.7282 53.9835 16.9131 54.2283 17.1057 54.4674C17.1333 54.5044 17.1629 54.5415 17.1926 54.5785H17.1945C17.4185 54.8581 17.6515 55.1328 17.8886 55.4032C18.1291 55.6775 18.377 55.9461 18.6308 56.2113L18.6323 56.213C18.8916 56.4818 19.1561 56.7449 19.4265 57.0045C19.7039 57.2674 19.9872 57.5271 20.2777 57.7772C20.5739 58.0346 20.8774 58.2868 21.1865 58.5295C21.1865 58.5295 21.1865 58.5313 21.1884 58.5313C21.5068 58.7835 21.8306 59.0262 22.1618 59.2633H22.1637C22.3987 59.4302 22.6375 59.595 22.8781 59.7545C22.978 59.8192 23.0779 59.8842 23.178 59.9492C23.189 59.9564 23.2001 59.9638 23.2115 59.9694V59.9713C23.3188 60.0397 23.4276 60.1084 23.5389 60.177C23.7906 60.3325 24.0461 60.4828 24.3051 60.6291C24.3161 60.6365 24.3273 60.6439 24.3405 60.6514H24.3422C24.3515 60.6569 24.3606 60.6624 24.37 60.6679C24.7457 60.8792 25.1268 61.0812 25.5155 61.2758C25.5323 61.2833 25.549 61.2905 25.5657 61.2999C25.9858 61.5075 26.4151 61.7058 26.8483 61.8893H26.8498C26.8683 61.8967 26.8833 61.9039 26.9017 61.9133C27.3441 62.0986 27.7918 62.2747 28.2492 62.4358H28.2511C28.2695 62.4433 28.2897 62.4507 28.3101 62.4562C28.3323 62.4636 28.3544 62.4728 28.3768 62.4783H28.3784C28.8337 62.6397 29.2983 62.786 29.7665 62.9194H29.7684C29.8517 62.9435 29.9351 62.9658 30.0199 62.9897H30.0218C30.4973 63.1194 30.9768 63.2344 31.4636 63.3343H31.4655C31.6097 63.3642 31.756 63.3937 31.9022 63.4215H31.9041C32.398 63.5141 32.8978 63.5919 33.4031 63.6549H33.4068C33.6474 63.6863 33.89 63.7123 34.1341 63.7364H34.1379C34.6691 63.7867 35.2057 63.8199 35.7462 63.8347H35.7498C35.9977 63.8422 36.2496 63.8458 36.5011 63.8458C36.6455 63.8551 36.79 63.8606 36.9342 63.8643H36.9361C37.421 63.881 37.9077 63.8736 38.4001 63.8458C39.4289 63.7867 40.469 63.6345 41.5166 63.4011L41.5257 63.3992L41.5316 63.3975C42.9603 63.075 44.3927 62.5968 45.7955 61.9853L45.7974 61.9834C47.0522 61.4368 48.283 60.7846 49.4656 60.0433C49.7489 59.8654 50.0263 59.6836 50.3041 59.4964C50.3041 59.4947 50.3058 59.4947 50.3058 59.4947L50.4744 59.3798L50.478 59.3779C51.3016 58.8146 52.0937 58.2049 52.8524 57.5599L52.8988 57.5212C53.5077 57.0004 54.0927 56.4574 54.6479 55.8922C54.6515 55.8903 54.655 55.8863 54.655 55.8848L54.6588 55.8829C55.1103 55.4232 55.5433 54.9526 55.9542 54.4672C55.9819 54.4358 56.0077 54.4043 56.0338 54.3727C56.0412 54.3653 56.0486 54.356 56.0541 54.3484C56.4392 53.8927 56.8038 53.4256 57.1462 52.9493V52.9476C57.1573 52.9327 57.1683 52.9198 57.1795 52.9047C57.1795 52.9047 57.1795 52.9032 57.1812 52.9032C57.2904 52.7474 57.3997 52.5917 57.507 52.4342C57.6959 52.1561 57.8772 51.8764 58.0511 51.5946C58.314 51.1666 58.56 50.733 58.7878 50.2957C59.0005 49.8824 59.1986 49.4655 59.3782 49.0449C59.3801 49.0375 59.3837 49.0319 59.3875 49.0245C59.5541 48.6315 59.7058 48.2349 59.8407 47.8367C59.9722 47.4492 60.089 47.06 60.1887 46.6674C60.283 46.2911 60.3645 45.9113 60.4292 45.5314C60.492 45.1662 60.5384 44.7976 60.5698 44.4307C60.6032 44.0729 60.6181 43.7172 60.6196 43.3596C60.6196 43.011 60.6067 42.6628 60.5791 42.3163C60.5513 41.9791 60.5087 41.6418 60.4532 41.3043V41.3026C60.3978 40.9725 60.3274 40.6463 60.2441 40.3186C60.1607 39.998 60.0645 39.6774 59.9537 39.3587C59.8445 39.0474 59.7204 38.7361 59.5835 38.4265C59.4503 38.1227 59.3002 37.8205 59.1375 37.5203C58.9763 37.2237 58.8024 36.929 58.6137 36.6364C58.4286 36.3491 58.2286 36.0639 58.014 35.7802C57.9493 35.6913 57.8808 35.6042 57.8122 35.517C57.7271 35.3485 57.679 35.1056 57.6588 34.8445C57.6291 34.4813 57.6588 34.0773 57.7292 33.766L57.7716 33.7511H57.7307C57.779 33.5418 57.8455 33.3749 57.9252 33.2953C57.9971 33.2232 58.5323 33.2156 59.2928 33.2472H59.2946C59.6944 33.2621 60.1571 33.2878 60.6476 33.3195C60.6143 33.1562 60.5774 32.995 60.5403 32.8339C60.4661 32.5058 60.3847 32.1816 60.2941 31.861C60.209 31.5367 60.1148 31.2142 60.013 30.8991C59.913 30.5768 59.8057 30.2617 59.6928 29.9485C59.5781 29.6336 59.456 29.3221 59.3281 29.0163V29.0144C59.206 28.7127 59.0764 28.414 58.9375 28.1213C58.9356 28.1122 58.932 28.1029 58.9265 28.0937H58.9246C58.7878 27.7935 58.6432 27.4988 58.4916 27.2098C58.4897 27.2023 58.486 27.1949 58.4805 27.1877C58.3285 26.891 58.1696 26.6019 58.0047 26.3165C58.0011 26.3091 57.9973 26.3016 57.9917 26.2942C57.8365 26.022 57.6753 25.7551 57.5068 25.4918V25.4194V25.399V25.3973L57.4569 25.4139C57.2699 25.1211 57.0777 24.834 56.8778 24.5541C56.8778 24.5522 56.8759 24.5522 56.8759 24.5522C56.6723 24.2631 56.4632 23.9815 56.2467 23.7054C56.0264 23.4218 55.8007 23.1457 55.5657 22.8769H55.5638C55.3288 22.599 55.0825 22.3285 54.8309 22.0652C54.5737 21.793 54.3091 21.528 54.0389 21.2723C53.7615 21.0071 53.4763 20.7496 53.1876 20.4996H53.1858C52.884 20.24 52.5786 19.9898 52.2659 19.7509V19.749H52.264C51.942 19.4972 51.6125 19.2544 51.2757 19.0226C51.0128 18.8392 50.7445 18.6595 50.4725 18.4888C50.3855 18.4315 50.2968 18.3759 50.2061 18.322C50.0061 18.196 49.8045 18.0756 49.6009 17.9587C49.4194 17.8531 49.2343 17.7493 49.0512 17.6493C48.6385 17.4251 48.2202 17.2117 47.7946 17.0119H47.7927C47.3431 16.7968 46.8878 16.5967 46.4252 16.4095H46.4233C45.9275 16.2093 45.4241 16.0239 44.915 15.8555C44.3598 15.6701 43.7989 15.5034 43.2327 15.3569H43.2308C42.6979 15.216 42.1592 15.0937 41.617 14.988C41.5207 14.9678 41.4246 14.9491 41.3284 14.9325H41.3265C40.7544 14.8251 40.179 14.7382 39.5998 14.6694H39.5979C39.4332 14.6492 39.2667 14.6323 39.1019 14.6159H39.1C38.4301 14.5471 37.7564 14.5046 37.0827 14.488C36.8329 14.4806 36.5829 14.4768 36.335 14.4768H36.3335C36.2796 14.4768 36.2258 14.4768 36.1723 14.4787H36.1704C34.8325 14.4861 33.496 14.5936 32.1765 14.7993C29.3688 15.2365 26.639 16.1243 24.1369 17.4622L24.1203 17.4677L24.1184 17.4696C23.8131 17.631 23.5117 17.8013 23.2134 17.9773C22.4158 18.4498 21.6458 18.9727 20.9055 19.5433C20.8722 19.5673 20.8408 19.5917 20.8073 19.6193L20.8056 19.6212L20.8018 19.6231C20.7963 19.6267 20.7927 19.6305 20.7872 19.6341L20.7853 19.636C20.1243 20.1512 19.4934 20.7034 18.8882 21.2982C18.8808 21.3039 18.8735 21.3115 18.8678 21.3169V21.3184C18.3773 21.7985 17.9055 22.3064 17.4559 22.84L17.454 22.8419C17.4485 22.8474 17.443 22.8548 17.4374 22.8623C17.0617 23.3088 16.6989 23.7759 16.3529 24.2594V24.2613H16.351V24.2629C16.0548 24.678 15.77 25.1061 15.4979 25.549C15.485 25.5694 15.472 25.5899 15.4589 25.612H15.457V25.6139C15.2015 26.0346 14.9555 26.4663 14.7205 26.9111C14.5056 27.3207 14.3004 27.7394 14.106 28.1694V28.1711C13.9245 28.5696 13.7542 28.9773 13.5933 29.3943C13.4395 29.7854 13.2953 30.1836 13.1621 30.5916V30.5932C13.1418 30.6471 13.1252 30.7025 13.1067 30.758C13.4935 30.9471 13.847 31.1435 14.1246 31.327L14.1265 31.3289C14.5002 31.579 14.7373 31.8109 14.7373 31.9848C14.7373 32.0422 14.7298 32.109 14.7169 32.1869V32.1887C14.6705 32.4702 14.5449 32.88 14.382 33.3524L14.3801 33.3543C14.3375 33.4822 14.2894 33.6157 14.2414 33.751C14.1471 34.0104 14.047 34.2791 13.9452 34.5534C13.7955 34.9555 13.6417 35.3651 13.5011 35.7562C13.3641 36.1399 13.2382 36.5068 13.144 36.8272C13.133 36.8642 13.12 36.9032 13.1069 36.9404C12.8885 37.5165 12.3259 38.0335 11.7058 38.4526V38.4618L11.6984 38.4637V39.0494V39.5181L11.7022 39.5162C11.7096 39.8646 11.7226 40.2131 11.7447 40.5577C11.765 40.9023 11.793 41.2454 11.828 41.5862C11.8634 41.9253 11.9058 42.2625 11.9538 42.5982C12.0021 42.9335 12.0574 43.267 12.1204 43.5987C12.1817 43.9304 12.25 44.2605 12.3278 44.5867C12.4018 44.9128 12.4831 45.2388 12.5719 45.5594C12.659 45.884 12.7553 46.2027 12.8552 46.5193C12.957 46.8381 13.0643 47.1549 13.179 47.4681C13.292 47.7832 13.414 48.0944 13.5401 48.404C13.6678 48.7134 13.801 49.0211 13.9418 49.3251C14.0824 49.6327 14.2285 49.9347 14.3822 50.2349C14.5359 50.539 14.695 50.8373 14.8616 51.1318C15.028 51.4302 15.202 51.7249 15.3816 52.0139C15.4186 52.0769 15.4594 52.1398 15.4983 52.2029C15.6425 52.4326 15.7905 52.6587 15.9442 52.8831C16.1368 53.172 16.3385 53.4575 16.5458 53.7374L16.545 53.7372Z" fill="white"/>
<path id="Vector_20" d="M24.4331 38.4657V38.4638C24.448 38.1026 24.4757 37.741 24.5201 37.3817C24.5644 37.0072 24.6257 36.6349 24.7016 36.266C24.7809 35.8788 24.8791 35.4933 24.9938 35.1155V35.1136C25.116 34.7076 25.2587 34.3074 25.4213 33.9182C25.4453 33.8627 25.4678 33.8069 25.4917 33.7513C25.6529 33.3787 25.8323 33.0156 26.0304 32.6618L26.0321 32.6599C26.2895 32.1948 26.5798 31.7462 26.9 31.3182L26.9019 31.3163C27.3072 30.7788 27.7606 30.2748 28.264 29.8116L28.2659 29.8097C30.2463 27.9881 32.9908 26.8002 36.5017 26.7373C36.8109 26.7428 37.1124 26.7577 37.4086 26.7818H37.4105C38.1748 26.8373 38.8984 26.9506 39.5833 27.1154H39.5869C40.1626 27.2524 40.7068 27.4231 41.2268 27.6269H41.2287C41.6895 27.8085 42.1299 28.0142 42.5481 28.244H42.55C42.9367 28.4535 43.3033 28.685 43.653 28.9334H43.6549C43.9823 29.167 44.2951 29.4154 44.5894 29.6766V29.6785H44.5913C44.6098 29.6931 44.6264 29.708 44.6433 29.7265C44.9062 29.96 45.156 30.2084 45.3927 30.4658H45.3946V30.4677C45.4056 30.4788 45.4167 30.49 45.426 30.5031C45.6593 30.7569 45.8775 31.0202 46.083 31.2924C46.083 31.2924 46.0849 31.2924 46.0849 31.2943C46.0923 31.3054 46.1014 31.3164 46.1088 31.3278C46.3105 31.5946 46.4974 31.8689 46.6733 32.1522L46.6382 32.1651C46.6492 32.1615 46.6621 32.1579 46.6751 32.1541C46.8566 32.4433 47.0231 32.7399 47.1785 33.0417C47.297 33.2752 47.408 33.5122 47.5135 33.7515C47.5411 33.8199 47.5708 33.8867 47.5988 33.9553C47.7263 34.2649 47.8412 34.5781 47.943 34.8968V34.8985C48.0465 35.2155 48.137 35.5378 48.213 35.8624V35.864C48.2927 36.1901 48.3575 36.5202 48.411 36.8519C48.4648 37.1872 48.5073 37.5263 48.5351 37.8656V37.8675C48.5646 38.2138 48.5794 38.5605 48.5813 38.9071C48.5849 39.2628 48.5739 39.6188 48.548 39.9726C48.5238 40.3376 48.4833 40.7028 48.4274 41.0659V41.0678C48.3701 41.4475 48.2961 41.8237 48.2036 42.1963C48.1091 42.5909 47.9963 42.9801 47.8631 43.3638C47.7244 43.7714 47.5632 44.1719 47.38 44.563C47.3781 44.5685 47.3762 44.5757 47.3726 44.5814H47.3707V44.583C47.1671 45.024 46.934 45.4542 46.6747 45.8672V45.8691C46.3732 46.3526 46.0345 46.8161 45.6605 47.2533C45.6587 47.2552 45.6568 47.2588 45.6549 47.2607C45.146 47.8557 44.5703 48.4023 43.9263 48.8878L43.9244 48.8897C43.8985 48.9101 43.8728 48.9307 43.8448 48.9492C42.0607 50.2741 39.7731 51.1341 36.9823 51.2674H36.9804C36.8916 51.2729 36.8048 51.2766 36.716 51.2785H36.7103L36.5012 51.284C35.6943 51.2693 34.9262 51.195 34.2007 51.0672H34.1988C34.1914 51.0672 34.1859 51.0653 34.1785 51.0636C34.1766 51.0636 34.1766 51.0617 34.1766 51.0617C33.5419 50.9504 32.9403 50.7984 32.3685 50.6077H32.3666C31.867 50.4408 31.3914 50.2465 30.9378 50.0257H30.9359C30.9249 50.0202 30.9138 50.0147 30.9028 50.0072H30.9009C30.5011 49.8127 30.1199 49.5977 29.757 49.3624H29.7553C29.4054 49.1382 29.0742 48.8953 28.7597 48.6379C28.4598 48.3952 28.1765 48.1355 27.9083 47.8652C27.9064 47.8652 27.9064 47.8633 27.9064 47.8633C27.6472 47.6036 27.4048 47.3333 27.1754 47.0515C26.9515 46.779 26.7424 46.4956 26.5479 46.2046C26.3554 45.9192 26.1777 45.6264 26.0114 45.3282V45.3263C25.8483 45.0316 25.6967 44.7295 25.5595 44.4222C25.4227 44.1181 25.2987 43.8069 25.1858 43.4918C25.073 43.1768 24.9749 42.858 24.886 42.5356V42.5337C24.7989 42.2114 24.723 41.8833 24.6602 41.5551C24.5974 41.2217 24.5473 40.8881 24.5083 40.5509C24.4695 40.208 24.4436 39.8653 24.4305 39.5205C24.4176 39.1684 24.4176 38.8181 24.4324 38.4661L24.4331 38.4657ZM20.6911 39.7055C20.704 40.0482 20.728 40.3929 20.7611 40.7359C20.7944 41.075 20.8372 41.414 20.889 41.7496C20.9406 42.0832 21.0018 42.413 21.0741 42.7427C21.1426 43.0689 21.2219 43.395 21.3127 43.7175V43.7194C21.4015 44.0418 21.4997 44.3605 21.6089 44.6756V44.6775C21.7162 44.9924 21.8328 45.3056 21.9603 45.6133V45.6152C22.0863 45.9246 22.2233 46.2303 22.3713 46.5324C22.5176 46.8382 22.6749 47.1384 22.8433 47.4331C23.0119 47.7315 23.1913 48.0245 23.38 48.3097C23.5707 48.6004 23.7724 48.884 23.9853 49.162V49.1639H23.9872C24.2018 49.4475 24.4295 49.7253 24.6681 49.9941C24.6866 50.0164 24.7071 50.0387 24.7275 50.061C24.9514 50.3128 25.1864 50.5574 25.4308 50.7948H25.4326C25.6215 50.9782 25.814 51.1581 26.0136 51.3284C26.1044 51.4101 26.197 51.4878 26.2895 51.5656H26.2914C26.6004 51.8212 26.9225 52.066 27.2592 52.2994H27.2611C27.6126 52.544 27.9792 52.7758 28.3603 52.9888V52.9907C28.3641 52.9944 28.3677 52.9963 28.3732 52.9982C28.7619 53.2205 29.1674 53.4262 29.5856 53.6152C29.5966 53.6207 29.6078 53.6245 29.6169 53.6282H29.6188C30.0445 53.821 30.4834 53.9953 30.9383 54.1507C30.9847 54.1675 31.0327 54.1822 31.0791 54.1991H31.081C31.3713 54.2955 31.6696 54.3864 31.9729 54.4679C32.2523 54.5439 32.5355 54.6123 32.8261 54.6754H32.8299C33.5274 54.8257 34.253 54.9366 35.01 55.007H35.0137C35.4969 55.0499 35.9929 55.0775 36.5017 55.0868C37.1162 55.0758 37.7119 55.0385 38.2895 54.9756H38.2932C38.4024 54.9645 38.5135 54.9516 38.6208 54.9366C38.9966 54.8904 39.3628 54.8346 39.7218 54.7662C39.7274 54.7643 39.7312 54.7643 39.7348 54.7643C40.0698 54.7014 40.3957 54.6292 40.7156 54.5475C40.7285 54.5439 40.7418 54.5401 40.7528 54.5401C40.786 54.5328 40.8175 54.5254 40.8491 54.5199C42.3518 54.1324 43.6973 53.5544 44.9114 52.8353C44.9114 52.8353 44.9114 52.8335 44.9131 52.8335C44.9762 52.7983 45.039 52.7593 45.102 52.7204V52.7187C45.7995 52.2906 46.4475 51.8086 47.0436 51.2842C47.197 51.1508 47.3452 51.0138 47.4913 50.8746V50.8729H47.4932L47.4951 50.871C47.9502 50.4355 48.3703 49.9779 48.7592 49.494C48.7961 49.4496 48.8311 49.4069 48.8646 49.3625H48.8665C49.2143 48.9215 49.5364 48.4637 49.8307 47.9894V47.9875C49.838 47.9783 49.8436 47.969 49.8492 47.9598C50.1045 47.5484 50.3397 47.1258 50.5541 46.6941L50.556 46.6922C50.5634 46.6774 50.5726 46.6608 50.5781 46.6458C50.7725 46.2567 50.9502 45.8584 51.1114 45.4543V45.4524C51.1114 45.4488 51.1133 45.4469 51.115 45.4433C51.2685 45.0541 51.4093 44.6592 51.5333 44.2589C51.6536 43.8773 51.759 43.4899 51.8517 43.0989V43.097C51.9405 42.7229 52.0183 42.3465 52.0811 41.9666C52.142 41.6014 52.192 41.2347 52.2309 40.8641V40.8622L52.3106 39.7819V39.78C52.3254 39.4279 52.3309 39.076 52.3235 38.7219C52.3197 38.3754 52.3031 38.0287 52.2771 37.6823C52.2531 37.3413 52.2177 37.0003 52.1717 36.6629V36.6612C52.1273 36.3257 52.0735 35.992 52.0105 35.6605C51.9477 35.3307 51.8736 35.0027 51.7902 34.6784C51.7143 34.3671 51.6256 34.0576 51.5292 33.7518C51.5256 33.7389 51.522 33.7278 51.5163 33.7147V33.7128C51.4183 33.3941 51.3072 33.079 51.1888 32.7677C51.0686 32.4545 50.9388 32.1451 50.8001 31.8411C50.6687 31.554 50.5298 31.2705 50.3818 30.9924C50.3726 30.972 50.3616 30.9533 50.3503 30.935C50.2022 30.6552 50.045 30.381 49.8804 30.1122C49.8675 30.0899 49.8545 30.0697 49.8395 30.0493C49.6694 29.7731 49.4898 29.5045 49.3011 29.2393C49.2881 29.2208 49.2752 29.2043 49.2622 29.1858C49.0716 28.9191 48.8697 28.6594 48.6588 28.4057C48.6439 28.3853 48.6274 28.3649 48.6108 28.3462C48.5035 28.2167 48.3924 28.0888 48.2795 27.9646C48.15 27.8181 48.0166 27.6755 47.8779 27.5347V27.5329C47.6169 27.2623 47.3431 27.0011 47.0579 26.7509L47.0948 26.738H47.0432C46.7506 26.4821 46.4472 26.2358 46.1325 26.0022C45.7976 25.7521 45.4495 25.5151 45.0868 25.2943C44.7055 25.0571 44.3075 24.8367 43.895 24.6346H43.8931C43.4749 24.4252 43.0419 24.2345 42.594 24.064C42.5681 24.053 42.5442 24.0436 42.5181 24.0362C42.5181 24.0362 42.5181 24.0343 42.5162 24.0343H42.5145C41.9943 23.836 41.454 23.6636 40.8912 23.5192H40.8874C40.2527 23.3504 39.5921 23.219 38.9036 23.1226H38.8998C38.1336 23.0132 37.3341 22.9503 36.5012 22.9353H36.2791H36.0328C36.0162 22.9412 35.9996 22.9465 35.9829 22.9521C32.2517 23.1094 29.2038 24.2568 26.8366 26.0264C26.8071 26.0485 26.7793 26.0689 26.7513 26.091L26.7496 26.0929C26.4793 26.2968 26.2203 26.5099 25.9686 26.7304C25.5965 27.0565 25.2467 27.3956 24.9174 27.7534L24.9155 27.7553H24.9139L24.9121 27.7572C24.6807 28.0071 24.4568 28.263 24.2458 28.528C24.0646 28.7484 23.8942 28.9726 23.7294 29.2024V29.2043C23.4185 29.636 23.1316 30.0825 22.8689 30.5424V30.5441C22.8597 30.5589 22.8504 30.5738 22.843 30.5906C22.6154 30.9891 22.4063 31.3968 22.2174 31.8138V31.8153H22.2157C22.0342 32.2139 21.8677 32.6215 21.7178 33.0347H21.7159V33.0366C21.6306 33.2738 21.5492 33.5112 21.4754 33.752C21.4252 33.9057 21.3808 34.0596 21.3365 34.2153C21.2292 34.595 21.1348 34.9787 21.0551 35.3642V35.366C20.9756 35.7365 20.9109 36.1091 20.8571 36.4853C20.8055 36.8485 20.7646 37.2136 20.7351 37.5787V37.5806C20.7052 37.9381 20.6887 38.2959 20.6812 38.6535C20.6738 39.0036 20.6776 39.354 20.6906 39.7041V39.706L20.6911 39.7055Z" fill="white"/>
<path id="Vector_21" d="M33.0515 38.775C33.0737 38.3858 33.1572 38.0004 33.2978 37.6391C33.5014 37.1072 33.8308 36.6271 34.2842 36.2566H34.2861L34.2876 36.2548C34.8224 35.8174 35.5296 35.5338 36.4107 35.5006C36.4124 35.4987 36.4143 35.4987 36.4179 35.5006C36.4737 35.5006 36.5161 35.4987 36.5456 35.4987H36.5513C36.5568 35.4987 36.5623 35.4987 36.566 35.5006H36.5698C37.2562 35.5208 37.8394 35.6951 38.3167 35.9748C38.6645 36.1787 38.957 36.4383 39.1957 36.7385V36.7403C39.4104 37.009 39.5789 37.3074 39.7026 37.6263C39.8248 37.9376 39.9045 38.2692 39.9379 38.6049C39.9749 38.9587 39.9638 39.3181 39.9045 39.6704C39.8322 40.0891 39.6897 40.4968 39.4789 40.8658L39.477 40.8675C38.9383 41.8071 37.9465 42.4984 36.5009 42.5243C36.0144 42.5152 35.5793 42.4317 35.1944 42.2871H35.1925V42.2852H35.1908C34.7595 42.1242 34.3951 41.8871 34.0934 41.596V41.5943C33.8341 41.3477 33.6251 41.0605 33.4623 40.7492C33.3066 40.4526 33.1938 40.1339 33.1272 39.806V39.8041H33.1255C33.0549 39.4669 33.031 39.1204 33.0513 38.7756L33.0515 38.775ZM29.3 38.9623C29.2982 39.3086 29.3184 39.6533 29.3593 39.9964V39.9982C29.4017 40.3316 29.463 40.6633 29.5463 40.9895V40.9914C29.6277 41.3156 29.7314 41.6343 29.8553 41.9439C29.9794 42.2571 30.1257 42.5609 30.2921 42.8537C30.4624 43.154 30.655 43.4432 30.8715 43.7156V43.7173H30.8734C31.0973 44.0046 31.349 44.2751 31.6228 44.5235C31.919 44.7923 32.2429 45.0386 32.5962 45.2554C32.5962 45.2554 32.5981 45.2554 32.5981 45.2573C32.9961 45.5021 33.4291 45.7113 33.9012 45.8782H33.9048C34.4934 46.0876 35.1394 46.2283 35.8408 46.2914L35.7351 46.3268H36.5013C38.6407 46.2878 40.3027 45.5501 41.4889 44.4216V44.4197C41.9387 43.9935 42.32 43.51 42.6328 42.9875L42.6347 42.9856C42.8715 42.5889 43.0696 42.17 43.2269 41.7347L43.2288 41.7328C43.3656 41.3566 43.473 40.9675 43.5508 40.5728C43.6231 40.2093 43.6693 39.8426 43.6879 39.4721V39.4702C43.71 39.12 43.7083 38.7678 43.6805 38.4195C43.6565 38.0804 43.6103 37.7432 43.5435 37.4095C43.4771 37.0814 43.3901 36.7572 43.2825 36.4421V36.4404C43.1752 36.1234 43.0456 35.8121 42.8959 35.5138C42.744 35.2078 42.5701 34.9133 42.374 34.6333V34.6315C42.1704 34.3389 41.9444 34.0608 41.6946 33.8015H41.6929C41.615 33.7198 41.5353 33.642 41.4522 33.5659C41.2541 33.3769 41.0414 33.2028 40.8156 33.0397H40.8137V33.0378C40.7712 33.0063 40.7267 32.9768 40.6824 32.9452C40.3751 32.7339 40.0439 32.543 39.6867 32.3798H39.6849C39.6757 32.3762 39.6664 32.3724 39.6572 32.3668H39.6554C39.6221 32.3522 39.5905 32.3373 39.5555 32.3223C39.0872 32.1184 38.5783 31.9592 38.0285 31.8517H38.0248C38.0045 31.8462 37.986 31.8424 37.9655 31.8388H37.9636C37.5029 31.7534 37.0161 31.7035 36.5014 31.6943C35.8074 31.7071 35.1633 31.7925 34.5712 31.9426H34.5693L34.5619 31.9443L34.5564 31.9462H34.5528C34.2031 32.0352 33.8718 32.1464 33.5571 32.276L33.5516 32.2779V32.2798H33.5497L33.5332 32.2853C32.7392 32.6189 32.0562 33.0765 31.4862 33.627C31.4844 33.627 31.4844 33.6289 31.4844 33.6289C31.2974 33.8069 31.1253 33.9938 30.9626 34.1903V34.1921C30.6199 34.6055 30.3332 35.0556 30.098 35.5321V35.5338H30.0963C30.0925 35.5412 30.0906 35.5468 30.087 35.5542C29.8983 35.9358 29.7447 36.3343 29.6241 36.7439L29.4818 36.7919L29.6241 36.7458C29.5153 37.1165 29.4335 37.4962 29.38 37.8799L29.1949 37.9412V37.9429L29.38 37.8819C29.3281 38.2395 29.3022 38.6007 29.3003 38.9623H29.3Z" fill="white"/>
<path id="Vector_22" d="M60.6135 66.4703C60.5637 66.222 60.4933 65.9348 60.3989 65.5882C60.347 65.401 60.2897 65.1971 60.2248 64.9729C59.8512 65.3345 59.4661 65.6865 59.0719 66.0273L59.07 66.0292C58.3241 66.676 57.543 67.2856 56.7307 67.8564V67.8583C55.5129 68.718 54.2229 69.4963 52.8791 70.1895L52.8719 70.1912C52.857 70.2006 52.8405 70.208 52.8236 70.2171C51.9221 70.6785 50.9952 71.1032 50.0492 71.4867C47.7914 72.402 45.4206 73.0951 43.0016 73.5473C42.811 73.5843 42.6221 73.6178 42.4316 73.6512C40.877 73.916 39.3056 74.0848 37.7307 74.1513C36.6702 74.1977 35.6079 74.1977 34.551 74.1497C33.6943 74.1126 32.841 74.0438 31.9936 73.9421C31.2605 73.855 30.5331 73.7457 29.8096 73.6123H29.8077C29.8058 73.6104 29.8041 73.6104 29.8022 73.6104C29.16 73.4919 28.5215 73.3528 27.8885 73.1953C27.8847 73.1953 27.883 73.1953 27.8811 73.1934C27.313 73.0524 26.7485 72.8969 26.1914 72.7226C26.1785 72.7207 26.1674 72.7171 26.1545 72.7116H26.1526C25.6362 72.5521 25.1235 72.378 24.6166 72.189H24.6147C24.6037 72.1871 24.5944 72.1816 24.5833 72.1778C24.0964 71.9983 23.6155 71.8055 23.1396 71.5996C23.0527 71.5627 22.9676 71.5257 22.8807 71.4867C22.6177 71.3699 22.3569 71.2495 22.0979 71.1253C22.1607 71.2476 22.2273 71.368 22.2977 71.4867C22.3609 71.5977 22.4273 71.7052 22.4958 71.8128C22.6902 72.1222 22.8957 72.4133 23.0899 72.6726C23.0974 72.68 23.1012 72.6874 23.1067 72.6947C23.3637 73.0322 23.6008 73.3138 23.7709 73.5009C23.7802 73.5121 23.7895 73.5212 23.7987 73.5308C23.9041 73.6474 23.9802 73.7232 24.0133 73.7476C24.0745 73.7937 24.1912 74.0364 24.3316 74.3701C24.3354 74.3795 24.339 74.3886 24.3428 74.3979C24.452 74.6648 24.5759 74.9854 24.6961 75.3061C24.6999 75.3171 24.7055 75.3282 24.7091 75.3394C24.8293 75.6618 24.946 75.9805 25.0403 76.2456C25.0477 76.2658 25.0533 76.2845 25.0607 76.303C25.5826 76.4733 26.1082 76.6291 26.6394 76.7716C27.2483 76.9385 27.8609 77.0867 28.4789 77.2166C29.0065 77.3296 29.5358 77.4296 30.0687 77.5169C30.2224 77.5445 30.3779 77.5685 30.5316 77.5929C31.0645 77.6725 31.5993 77.7428 32.1361 77.7985C32.3821 77.8264 32.6284 77.8504 32.8764 77.8708H32.8783C33.415 77.9192 33.9553 77.9543 34.4957 77.9783H34.4995C34.8787 77.9968 35.2563 78.0082 35.6359 78.0116H35.6376C36.798 78.0301 37.9622 77.995 39.1245 77.9097H39.1281C40.8473 77.7857 42.5613 77.5483 44.2491 77.2054C44.4196 77.1722 44.5878 77.137 44.7564 77.0999L44.7655 77.098C47.5787 76.4866 50.314 75.5933 52.8848 74.4073L52.9347 74.3907L53.1308 74.3257H53.0755C54.6929 73.5753 56.2439 72.7192 57.706 71.7556C57.7079 71.7556 57.7079 71.7537 57.7096 71.7537H57.7115C57.7134 71.7537 57.7134 71.7518 57.7151 71.7518H57.717C57.8502 71.6647 57.9836 71.5775 58.115 71.487C58.8609 70.9831 59.5844 70.4491 60.2804 69.8896C60.2842 69.8748 60.2859 69.8597 60.2897 69.845V69.8431C60.2916 69.8338 60.2933 69.8228 60.2952 69.8136C60.3767 69.376 60.4505 69.0184 60.5117 68.7163C60.5136 68.7091 60.5136 68.7034 60.5154 68.6961C60.5526 68.5107 60.5856 68.344 60.6135 68.1922C60.6524 67.9751 60.6819 67.7843 60.6948 67.6009C60.6967 67.5973 60.6967 67.5954 60.6967 67.5916C60.7226 67.2656 60.7041 66.9597 60.6318 66.5649C60.6263 66.5354 60.6208 66.504 60.6134 66.4704L60.6135 66.4703Z" fill="white"/>
<path id="Vector_23" d="M4.71532 21.7857C4.4655 21.7746 4.26572 21.7411 4.15272 21.6708C3.99158 21.5725 3.94724 21.3207 3.96208 20.9816C3.9714 20.6703 4.0323 20.2847 4.09354 19.8808C4.15065 19.5156 4.21 19.134 4.23777 18.7783C4.26917 18.3873 4.26365 18.026 4.17842 17.7443C4.14703 17.6368 4.10251 17.5404 4.04524 17.4587C3.95259 17.598 3.86012 17.7388 3.76937 17.8795C3.48816 18.3149 3.21609 18.7559 2.95126 19.2043C2.69765 19.6324 2.4537 20.0644 2.21838 20.5017C1.98892 20.9223 1.77068 21.3485 1.55779 21.7765V21.7784C1.35421 22.1916 1.15615 22.6069 0.967238 23.0276C0.784018 23.4333 0.608388 23.8448 0.438107 24.258C0.286114 24.6287 0.139986 25.0029 -0.000793457 25.379V28.6239V28.7372C0.0121458 28.7223 0.110312 28.6444 0.265756 28.5351C0.876663 28.1089 2.39039 27.1842 3.27336 27.4994C3.40845 27.1102 3.54923 26.7248 3.69726 26.3431C3.85615 25.9335 4.02108 25.5258 4.19481 25.1235C4.37441 24.7067 4.56332 24.2952 4.75741 23.8839V23.882C4.96289 23.4539 5.17578 23.0314 5.39593 22.6144C5.54602 22.331 5.69957 22.0493 5.85691 21.7694V21.4079L4.7186 21.786H4.71497L4.71532 21.7857Z" fill="white"/>
<path id="Vector_24" d="M36.6826 3.81058C37.621 3.81421 38.5609 3.85688 39.4937 3.93478H39.4956C40.2839 3.99939 41.067 4.09216 41.8442 4.21066H41.8459C42.5382 4.31448 43.2211 4.44041 43.8967 4.5869C44.489 4.71301 45.0738 4.85569 45.6492 5.01497C45.5086 4.71663 45.3643 4.42746 45.2181 4.14968C45.0554 3.83839 44.8904 3.53989 44.7276 3.25658C44.5461 2.94339 44.3665 2.65076 44.1908 2.38007C43.9854 2.05945 43.7854 1.77217 43.6003 1.51841C43.3451 1.17378 43.1157 0.893932 42.9212 0.690091C42.8527 0.617883 42.79 0.554831 42.7306 0.500934C42.1678 0.41007 41.5961 0.330606 41.0205 0.263754C40.1804 0.165634 39.3289 0.095326 38.4758 0.0507574L38.6294 0.000488281H36.4918H35.4442L35.3999 0.0153445H35.398C35.0336 0.0264002 34.6691 0.0412564 34.308 0.0637134C34.3173 0.171162 34.3228 0.274982 34.3209 0.373102C34.3173 0.843835 34.1971 1.2218 33.9952 1.53499C33.12 2.8952 30.701 3.00835 29.5682 4.05709C29.4036 4.20928 29.2667 4.37961 29.1647 4.57792C30.4086 4.30567 31.691 4.10546 32.9904 3.97935C34.2102 3.8586 35.4463 3.80315 36.6826 3.81058Z" fill="white"/>
<path id="Vector_25" d="M71.9063 22.7382C71.7676 22.4325 71.623 22.1286 71.4733 21.8282C71.3253 21.5244 71.1715 21.2241 71.0144 20.9258C70.8568 20.6237 70.6961 20.3253 70.5294 20.0289C70.3648 19.7306 70.1944 19.4359 70.0203 19.1432C69.8445 18.8485 69.667 18.5557 69.4837 18.2667C69.3003 17.976 69.1135 17.6847 68.9211 17.3995C68.7286 17.1084 68.5324 16.8231 68.3306 16.5396C68.1289 16.2523 67.9234 15.969 67.7107 15.6892C67.7124 15.6873 67.7107 15.6835 67.7052 15.6817C67.5328 15.4464 67.3551 15.2146 67.174 14.983C66.6631 15.0904 66.2505 15.1739 65.897 15.2331C65.8951 15.235 65.8933 15.235 65.8914 15.235C65.0214 15.3815 64.5164 15.3849 63.8018 15.259C63.5891 15.2201 63.3559 15.1701 63.0893 15.1087H63.0874C62.7969 15.0422 62.4637 14.9624 62.0695 14.8679C62.2065 15.0144 62.3435 15.1607 62.4786 15.3108C62.4805 15.3108 62.4805 15.3108 62.4805 15.3127C62.7246 15.5796 62.9654 15.8519 63.2002 16.1281C63.4333 16.3988 63.6628 16.6747 63.8869 16.9547C63.8869 16.9547 63.8888 16.9547 63.8888 16.9562C63.8888 16.9562 63.8905 16.9562 63.8905 16.9581C64.1129 17.2325 64.3294 17.5102 64.542 17.7939C64.5992 17.8697 64.6567 17.9457 64.7141 18.0217C64.8677 18.2275 65.0178 18.4351 65.1658 18.6426C65.3675 18.9262 65.5635 19.2115 65.7562 19.5006C65.9487 19.7879 66.1357 20.0771 66.3188 20.3697C66.4999 20.6589 66.6759 20.9515 66.85 21.248C67.022 21.5408 67.1904 21.8374 67.3534 22.1376C67.5161 22.4342 67.6753 22.7344 67.827 23.0362C67.9807 23.3347 68.1306 23.6367 68.273 23.9425C68.4194 24.2446 68.5581 24.5503 68.6934 24.858C68.697 24.8635 68.6989 24.8691 68.7025 24.8765C68.8283 25.1636 68.9524 25.4547 69.0707 25.7475C69.0966 25.6901 69.1209 25.6381 69.1356 25.6027C69.2615 25.3101 69.8169 24.8098 70.468 24.2779C70.4718 24.2743 70.4773 24.2705 70.4828 24.2669C70.9975 23.8443 71.5709 23.4052 72.0412 23.0326V22.6935L71.9061 22.7381L71.9063 22.7382Z" fill="white"/>
<path id="Vector_26" d="M66.8595 27.5749C66.7412 27.2617 66.619 26.9504 66.4912 26.6428C66.3671 26.3426 66.2393 26.0442 66.1061 25.7476C66.1025 25.7383 66.097 25.7291 66.0932 25.7198C66.0876 25.7087 66.084 25.6977 66.0783 25.6866C66.0728 25.6718 66.0654 25.6588 66.0599 25.6438C65.9322 25.3622 65.8009 25.0824 65.6658 24.8061C65.6603 24.7951 65.6548 24.7859 65.6493 24.7747C65.5067 24.4819 65.3606 24.1912 65.2088 23.9039H65.2069C65.2033 23.8946 65.1995 23.8854 65.194 23.878C65.0402 23.5852 64.8812 23.296 64.72 23.0108L64.7185 23.0089C64.7126 22.9996 64.7073 22.9904 64.7036 22.9811C64.5391 22.694 64.3724 22.4105 64.2002 22.1287V22.1268C64.0206 21.8321 63.8357 21.5412 63.6487 21.2541C63.458 20.965 63.2639 20.6779 63.064 20.3942H63.0621C63.0031 20.3052 62.9382 20.2144 62.8752 20.1254C62.8752 20.1254 62.8752 20.1237 62.8733 20.1237L62.4477 19.5417H62.4458C62.2348 19.2581 62.0164 18.9784 61.7963 18.7041H61.7944C61.5723 18.4244 61.3429 18.1482 61.1096 17.8756C60.8728 17.6012 60.6321 17.329 60.3861 17.0623C60.1381 16.7897 59.8826 16.5212 59.6233 16.258C59.6068 16.2395 59.5883 16.2208 59.5699 16.2022C58.8701 16.208 58.2466 16.8194 57.1973 16.8788C56.9696 16.8918 56.7215 16.8788 56.4477 16.8285C56.1682 16.7639 55.9037 16.6561 55.6537 16.5173C55.304 16.3245 54.9838 16.0688 54.695 15.7815C54.4357 15.5257 54.2026 15.2441 53.9954 14.9568C53.8029 14.6939 53.6328 14.4288 53.4863 14.175C53.4698 14.1453 53.4532 14.1176 53.4365 14.0879C53.2422 13.743 53.0887 13.4282 52.9831 13.1834C52.8851 12.9611 52.8259 12.7979 52.8055 12.7258C52.6853 12.5645 52.565 12.4237 52.4482 12.3033C52.078 11.9217 51.719 11.7249 51.3657 11.6083C50.7511 11.4045 50.1459 11.4396 49.5074 11.169C49.1836 11.0301 48.8504 10.8133 48.5024 10.4464C48.4895 10.4316 48.4747 10.415 48.4581 10.4C48.2637 10.1868 48.0637 9.92543 47.8584 9.60482C47.6935 9.34915 47.5272 9.05635 47.355 8.71725C47.2956 8.59874 47.2328 8.47281 47.1716 8.341C46.8681 8.2301 46.5629 8.12611 46.2536 8.02591C45.6965 7.84453 45.1282 7.68129 44.5548 7.5348H44.5529C43.9254 7.3719 43.2907 7.23094 42.6482 7.11053C42.1468 7.01414 41.6434 6.9307 41.1345 6.86212H41.1326C40.9124 6.83068 40.6921 6.8008 40.4701 6.77679H40.4682C39.9573 6.71581 39.4446 6.66744 38.9303 6.6341H38.9267C38.5842 6.60646 38.2381 6.58797 37.894 6.57502C37.2943 6.55066 36.6927 6.54513 36.0932 6.55273H36.0876C35.5952 6.56016 35.1049 6.57675 34.6145 6.60663H34.6126C33.2023 6.68817 31.7975 6.85677 30.4206 7.1107C30.415 7.11226 30.4095 7.11226 30.404 7.11433C29.9432 7.20157 29.486 7.29606 29.0326 7.40144C29.0307 7.40144 29.0288 7.40144 29.0269 7.40334C29.0252 7.40334 29.0233 7.40334 29.0216 7.40524C29.0197 7.40524 29.0178 7.40524 29.0157 7.40679C29.0142 7.40679 29.0102 7.40869 29.0085 7.40869C27.3538 7.79236 25.751 8.29816 24.228 8.93577C24.0429 9.01368 23.8597 9.09159 23.6783 9.17295C23.6747 9.17485 23.6728 9.17485 23.6692 9.17658C23.6673 9.17658 23.6673 9.17848 23.6654 9.17848C23.4767 9.26381 23.2843 9.34881 23.0992 9.43777C23.1342 9.76944 23.1565 10.0624 23.1675 10.3217C23.1694 10.3476 23.1711 10.3737 23.1711 10.3977C23.186 10.8018 23.1749 11.1205 23.1471 11.3763C23.1435 11.4059 23.1399 11.4358 23.1361 11.4634C23.0583 12.0378 22.8901 12.2677 22.7603 12.4418C22.5328 12.7828 18.6646 13.1812 18.1519 13.8076C18.028 13.9689 17.9133 14.0857 17.8077 14.1746C17.7504 14.2246 17.6949 14.2636 17.6431 14.297L17.16 14.4839C17.1581 14.4839 17.1545 14.4858 17.1507 14.4858C17.0619 14.5098 16.977 14.5378 16.8918 14.5858L16.8899 14.5877C16.6697 14.7155 16.4477 14.9936 16.1608 15.757C16.144 15.8069 16.1144 15.8589 16.0737 15.9128V15.9145C15.6056 16.5577 13.7473 17.4731 13.4865 17.6826C13.4511 17.7102 13.3957 17.779 13.3198 17.879V17.8809C13.1052 18.1682 12.7407 18.7073 12.3206 19.2651V19.267C12.1225 19.5284 11.9115 19.7951 11.6986 20.0415C11.4486 20.327 11.1971 20.5844 10.9564 20.7736C10.7214 20.9589 10.4975 21.0812 10.2995 21.1014C9.21876 21.2147 9.10404 21.6148 9.04676 21.8985C9.03744 21.9539 8.97257 21.993 8.87268 22.0206C8.74691 22.2264 8.62287 22.4321 8.50055 22.6415C8.25091 23.0659 8.01213 23.4959 7.78268 23.9331V23.935C7.77336 23.9497 7.76594 23.9645 7.7587 23.9796C7.5477 24.3796 7.34585 24.7875 7.15158 25.1988C6.95905 25.6065 6.77583 26.0195 6.60002 26.4367C6.43181 26.837 6.27068 27.241 6.11903 27.6504H6.11713C6.04881 27.8321 5.98204 28.0156 5.91718 28.2008V30.8821L9.34678 29.7443C9.34678 29.7443 9.3485 29.7462 9.3504 29.7443C9.36524 29.7481 9.3818 29.7517 9.39871 29.7536C9.40233 29.7443 9.40423 29.7351 9.40785 29.7258C9.54656 29.3217 9.69476 28.9215 9.85227 28.525C10.0131 28.1118 10.1852 27.7043 10.3667 27.3001C10.5555 26.8756 10.7573 26.4569 10.9664 26.0437H10.9683C11.1885 25.6082 11.4198 25.18 11.6603 24.7595H11.6622L11.6991 24.7465V24.6927C11.9379 24.2813 12.186 23.8754 12.4431 23.4789C12.4505 23.4641 12.4598 23.4513 12.471 23.4383V23.4364C12.7598 22.9899 13.0597 22.5525 13.374 22.1243C13.374 22.1206 13.3759 22.1187 13.3799 22.1168C13.3909 22.1002 13.402 22.0837 13.4149 22.0688C13.7701 21.5813 14.1423 21.1071 14.5273 20.6457C14.5289 20.6457 14.5289 20.6438 14.5289 20.6438C14.8436 20.2676 15.1674 19.9007 15.4988 19.5414C15.6229 19.408 15.745 19.2762 15.8709 19.1465L15.8728 19.1447H15.8747C16.2576 18.7443 16.6537 18.3553 17.0608 17.9771C17.2202 17.8291 17.3829 17.6809 17.5477 17.5365C17.5477 17.5365 17.5477 17.5346 17.5496 17.5346C18.2676 16.8989 19.0192 16.2967 19.8 15.7352V15.7333C20.5736 15.1755 21.3769 14.6549 22.206 14.1748C22.6575 13.9116 23.1149 13.6633 23.581 13.428C23.581 13.4261 23.5829 13.4261 23.5829 13.4261C26.0888 12.1513 28.8076 11.2357 31.6705 10.7467H31.676C33.1121 10.5002 34.5837 10.3611 36.0828 10.3407C36.2217 10.3388 36.3623 10.3371 36.5029 10.3371C37.3302 10.3371 38.1481 10.3722 38.9588 10.4426C39.736 10.5074 40.5042 10.6059 41.263 10.7354C41.9274 10.8448 42.5842 10.98 43.232 11.1376C43.7836 11.2692 44.3294 11.4192 44.8663 11.586C44.9014 11.5954 44.9348 11.6045 44.9681 11.6175C45.4974 11.7807 46.0193 11.9585 46.5357 12.153C47.017 12.3347 47.4925 12.5275 47.9625 12.735C48.4088 12.9297 48.8473 13.1354 49.2804 13.3522H49.2823C49.6949 13.5597 50.1021 13.7765 50.5018 14.0045C50.6019 14.058 50.7018 14.1156 50.8017 14.1748C51.0869 14.3377 51.3662 14.5065 51.6438 14.6825C52.0049 14.9067 52.3601 15.1403 52.7098 15.3832C53.0485 15.6166 53.3835 15.8574 53.7109 16.106C54.0312 16.3449 54.3458 16.5931 54.6531 16.8489C54.9547 17.0954 55.2488 17.3494 55.5395 17.6087L55.5413 17.6106C55.8264 17.8628 56.1039 18.1221 56.3778 18.3869V18.3888C56.6463 18.6465 56.9109 18.9096 57.1664 19.18H57.168V19.1819C57.4235 19.4467 57.6714 19.7155 57.9138 19.9898C58.0843 20.1826 58.2525 20.3773 58.4174 20.5737V20.5756C58.4857 20.6535 58.5506 20.7311 58.6151 20.8109C58.8409 21.0852 59.0614 21.3649 59.2761 21.6485C59.4907 21.9263 59.698 22.208 59.8997 22.4953C60.0997 22.779 60.2957 23.0681 60.4863 23.3589H60.4882C60.6713 23.6425 60.8527 23.9298 61.0266 24.2207C61.0304 24.2245 61.0325 24.2281 61.0341 24.2318C61.21 24.5228 61.3801 24.8156 61.5432 25.1138C61.5432 25.1138 61.5468 25.1157 61.5449 25.1176C61.7095 25.4085 61.867 25.7032 62.0188 26.0014C62.0207 26.0052 62.0225 26.0088 62.0244 26.0126C62.1744 26.307 62.3206 26.6056 62.4593 26.9074C62.4629 26.9112 62.4648 26.9168 62.4667 26.9223C62.609 27.2263 62.746 27.5321 62.8758 27.8415C63.007 28.1491 63.1309 28.4587 63.2515 28.77C63.3718 29.0832 63.4846 29.3983 63.5919 29.7151C63.703 30.0302 63.8048 30.347 63.903 30.6657C63.9992 30.9844 64.0898 31.305 64.1749 31.6293H64.1768C64.2618 31.9518 64.3431 32.2779 64.4173 32.6058C64.4932 32.932 64.5617 33.2602 64.6245 33.5918C64.6283 33.6067 64.6302 33.6233 64.6338 33.6383C65.3575 33.7031 65.8366 33.7513 65.8366 33.7513C65.7666 33.5791 65.7312 33.4067 65.7257 33.2268C65.7127 32.8858 65.8052 32.521 65.9772 32.089C66.1199 31.7277 66.3197 31.3182 66.5585 30.84C66.7455 30.4655 66.9546 30.0504 67.1804 29.5798H67.182C67.2523 29.4335 67.3246 29.2796 67.3988 29.1222C67.3339 28.9201 67.2674 28.7202 67.1989 28.5198C67.0916 28.203 66.9785 27.8879 66.8602 27.5747L66.8595 27.5749Z" fill="white"/>
<path id="Vector_27" d="M59.0412 74.4776C57.5068 75.4597 55.9061 76.3438 54.244 77.122L54.2421 77.1239C53.5646 77.4407 52.8781 77.7391 52.1822 78.0208C49.8559 78.9623 47.4276 79.698 44.9199 80.2112C44.696 80.2577 44.4721 80.3002 44.2481 80.3429C44.2795 80.3613 44.3109 80.3819 44.3444 80.4019C44.6424 80.5911 44.9717 80.8469 45.3067 81.1377C45.5881 81.3767 45.873 81.6417 46.1488 81.9122C46.4207 82.1774 46.6856 82.4497 46.9298 82.709C46.9335 82.7128 46.939 82.7183 46.9426 82.7238C47.2038 83.0016 47.4405 83.2649 47.6369 83.4931H47.7497L48.1382 83.3633H48.1418C49.974 82.8796 51.7619 82.2866 53.4961 81.5899C53.498 81.5899 53.498 81.588 53.4999 81.588C54.3327 81.2525 55.1544 80.8948 55.9634 80.5132C55.8298 80.3204 55.7208 80.1649 55.6502 80.0722C55.6097 80.0186 55.5688 79.9481 55.53 79.8609C55.53 79.8609 55.5283 79.859 55.53 79.8573C55.4227 79.6201 55.3302 79.2734 55.2581 78.8954C55.2062 78.6102 55.1637 78.3064 55.1396 78.0208C55.1359 77.9747 55.1323 77.9282 55.1304 77.8838C55.0971 77.4167 55.1139 77.0092 55.1953 76.8256C55.1989 76.8183 55.2044 76.8109 55.2101 76.8035V76.8016C55.7393 76.0049 59.0948 75.5396 59.2725 74.4018L59.28 74.3999V74.398V74.3259C59.2022 74.3759 59.1243 74.4259 59.0448 74.4759C59.0448 74.4778 59.0431 74.4778 59.0412 74.4778V74.4776Z" fill="white"/>
<path id="Vector_28" d="M58.5228 84.1454C58.4951 84.0416 58.4675 83.936 58.4395 83.8267C57.5196 84.2806 56.5852 84.7049 55.6337 85.1015C55.6319 85.1015 55.6319 85.1034 55.6301 85.1034L53.0816 85.9466V86.0855C53.5814 86.2394 54.0753 86.3857 54.5474 86.5174C55.2173 86.7044 55.8354 86.8637 56.3408 86.9769C56.9793 87.1178 57.4363 87.1843 57.5864 87.1379C58.0824 86.8506 58.3858 86.5579 58.5579 86.243C58.7412 85.902 58.7728 85.5387 58.7264 85.1328C58.6929 84.8289 58.6136 84.5028 58.5228 84.1452V84.1454Z" fill="white"/>
<path id="Vector_29" d="M67.3288 33.7516H67.3971V33.7275C67.3952 33.7293 67.3916 33.7312 67.3841 33.7312L67.3288 33.7516Z" fill="white"/>
<path id="Vector_30" d="M59.7631 24.6527C59.7764 24.647 59.7896 24.6431 59.8031 24.6394L59.7631 24.6508V24.6527Z" fill="white"/>
<path id="Vector_31" d="M26.6648 71.4902C26.7128 71.4736 26.7611 71.4569 26.8111 71.4382L26.6629 71.4866V71.4883L26.6648 71.4902Z" fill="white"/>
<path id="Vector_32" d="M8.93077 46.7642C8.84002 46.4436 8.75497 46.1212 8.67716 45.7951C8.64576 45.669 8.61592 45.541 8.58641 45.415C8.56054 45.5189 8.52551 45.5857 8.47721 45.6023C8.13664 45.7153 7.73691 45.5449 7.73691 45.5449C7.75537 45.7284 7.75347 45.9191 7.73328 46.1083C7.6924 46.5085 7.57215 46.9088 7.40014 47.2719C7.28541 47.5146 7.14826 47.739 6.9985 47.9337C6.9985 47.9337 7.37961 48.0245 7.92202 48.1541C8.37352 48.2619 8.93819 48.3953 9.48785 48.5248C9.39331 48.26 9.30446 47.9931 9.2194 47.7245C9.11762 47.4073 9.02135 47.0871 8.9306 46.7645L8.93077 46.7642Z" fill="white"/>
</g>
</g>
<defs>
<clipPath id="clip0_1472_1971">
<rect width="200" height="87.2728" fill="white"/>
</clipPath>
</defs>
</svg>
