<svg width="528" height="528" viewBox="0 0 528 528" fill="none" xmlns="http://www.w3.org/2000/svg">
<path d="M347.499 132C347.499 178.116 310.115 215.5 263.999 215.5C217.883 215.5 180.499 178.116 180.499 132C180.499 85.8843 217.883 48.5001 263.999 48.5001C310.115 48.5001 347.499 85.8843 347.499 132Z" fill="black" stroke="#FF6F43" stroke-width="9"/>
<path d="M435.498 385C435.498 412.726 435.256 435.143 415.156 451.512C404.933 459.838 389.217 466.877 364.855 471.809C340.514 476.736 307.843 479.5 263.998 479.5C220.153 479.5 187.483 476.736 163.141 471.809C138.779 466.877 123.063 459.838 112.84 451.512C92.7399 435.143 92.498 412.726 92.498 385C92.498 360.013 110.554 336.472 141.756 318.921C172.816 301.449 216.027 290.5 263.998 290.5C311.969 290.5 355.18 301.449 386.24 318.921C417.442 336.472 435.498 360.013 435.498 385Z" fill="black" stroke="#FF6F43" stroke-width="9"/>
</svg>
